<?xml version="1.0" encoding="utf-8"?>
<!-- Generator: Adobe Illustrator 26.0.1, SVG Export Plug-In . SVG Version: 6.00 Build 0)  -->
<svg version="1.1" id="Layer_1" xmlns="http://www.w3.org/2000/svg" xmlns:xlink="http://www.w3.org/1999/xlink" x="0px" y="0px"
	 viewBox="0 0 1080 1080" style="enable-background:new 0 0 1080 1080;" xml:space="preserve">
<style type="text/css">
	.st0{clip-path:url(#SVGID_00000018203861079738554900000012675145846861754809_);}
	.st1{fill-rule:evenodd;clip-rule:evenodd;fill:#C91456;}
	.st2{fill:none;stroke:#FFFFFF;stroke-width:2.8415;stroke-linejoin:round;stroke-miterlimit:10;}
	.st3{fill-rule:evenodd;clip-rule:evenodd;fill:#FFFFFF;}
</style>
<g>
	<g>
		<defs>
			<rect id="SVGID_1_" x="-278.4" y="67.8" width="1711.2" height="962.6"/>
		</defs>
		<clipPath id="SVGID_00000028315090082550308140000016256871255605521301_">
			<use xlink:href="#SVGID_1_"  style="overflow:visible;"/>
		</clipPath>
		<g style="clip-path:url(#SVGID_00000028315090082550308140000016256871255605521301_);">
			<path class="st1" d="M76.9,556L76.9,556C76.9,300.4,284,93.3,539.6,93.3l0,0c122.7,0,240.4,48.7,327.1,135.5
				c86.8,86.8,135.5,204.4,135.5,327.1l0,0c0,255.5-207.1,462.7-462.7,462.7l0,0C284,1018.6,76.9,811.5,76.9,556z"/>
			<path class="st2" d="M76.9,556L76.9,556C76.9,300.4,284,93.3,539.6,93.3l0,0c122.7,0,240.4,48.7,327.1,135.5
				c86.8,86.8,135.5,204.4,135.5,327.1l0,0c0,255.5-207.1,462.7-462.7,462.7l0,0C284,1018.6,76.9,811.5,76.9,556z"/>
			<path class="st3" d="M205.7,651.6L205.7,651.6c0-186.2,151-337.2,337.2-337.2l0,0c89.4,0,175.2,35.5,238.5,98.8
				s98.8,149,98.8,238.5l0,0c0,186.2-151,337.2-337.2,337.2l0,0C356.7,988.8,205.7,837.9,205.7,651.6z"/>
			<path class="st2" d="M205.7,651.6L205.7,651.6c0-186.2,151-337.2,337.2-337.2l0,0c89.4,0,175.2,35.5,238.5,98.8
				s98.8,149,98.8,238.5l0,0c0,186.2-151,337.2-337.2,337.2l0,0C356.7,988.8,205.7,837.9,205.7,651.6z"/>
			<path class="st1" d="M321.5,726.8L321.5,726.8c0-127.7,103.6-231.3,231.3-231.3l0,0c61.3,0,120.2,24.4,163.6,67.7
				c43.4,43.4,67.7,102.2,67.7,163.6l0,0c0,127.7-103.6,231.3-231.3,231.3l0,0C425.1,958.1,321.5,854.6,321.5,726.8z"/>
			<path class="st2" d="M321.5,726.8L321.5,726.8c0-127.7,103.6-231.3,231.3-231.3l0,0c61.3,0,120.2,24.4,163.6,67.7
				c43.4,43.4,67.7,102.2,67.7,163.6l0,0c0,127.7-103.6,231.3-231.3,231.3l0,0C425.1,958.1,321.5,854.6,321.5,726.8z"/>
		</g>
	</g>
</g>
</svg>
