<?xml version="1.0" encoding="utf-8"?>
<!-- Generator: Adobe Illustrator 25.4.1, SVG Export Plug-In . SVG Version: 6.00 Build 0)  -->
<svg version="1.1" id="Layer_1" xmlns="http://www.w3.org/2000/svg" xmlns:xlink="http://www.w3.org/1999/xlink" x="0px" y="0px"
	 viewBox="0 0 1080 1080" style="enable-background:new 0 0 1080 1080;" xml:space="preserve">
<style type="text/css">
	.st0{clip-path:url(#SVGID_00000043417596577450645020000005455663695334475141_);}
	.st1{fill-rule:evenodd;clip-rule:evenodd;fill:#C91456;}
	.st2{fill:#FFFFFF;}
	.st3{fill-rule:evenodd;clip-rule:evenodd;fill:#FFFFFF;}
	.st4{fill:none;stroke:#FFFFFF;stroke-width:3.5674;stroke-linejoin:round;stroke-miterlimit:10;}
	.st5{fill:#C91456;}
</style>
<g>
	<defs>
		<rect id="SVGID_1_" x="-450.7" y="29" width="1757.6" height="988.6"/>
	</defs>
	<clipPath id="SVGID_00000085956392231713972320000016956301755022188696_">
		<use xlink:href="#SVGID_1_"  style="overflow:visible;"/>
	</clipPath>
	<g style="clip-path:url(#SVGID_00000085956392231713972320000016956301755022188696_);">
		<path class="st1" d="M91,553.1L91,553.1c0-248.7,201.6-450.3,450.3-450.3l0,0c119.4,0,233.9,47.4,318.4,131.9
			s131.9,199,131.9,318.4l0,0c0,248.7-201.6,450.3-450.3,450.3l0,0C292.6,1003.4,91,801.8,91,553.1z"/>
		<path class="st2" d="M337.4,255.3c-2.6,0-5,0.4-7.1,1.3c-2.1,0.9-3.9,2.2-5.4,3.9c-1.4,1.7-2.6,3.8-3.3,6.2
			c-0.8,2.4-1.2,5.1-1.2,8.1c0,4,0.6,7.5,1.8,10.4c1.3,2.9,3.1,5.2,5.6,6.8c2.5,1.6,5.6,2.4,9.3,2.4c2.1,0,4.1-0.2,6-0.5
			c1.9-0.4,3.7-0.8,5.5-1.4v4.8c-1.7,0.7-3.6,1.2-5.5,1.4c-1.9,0.3-4.2,0.5-6.8,0.5c-4.8,0-8.9-1-12.1-3c-3.2-2-5.7-4.8-7.3-8.5
			c-1.6-3.7-2.4-8-2.4-13c0-3.6,0.5-6.9,1.5-9.9c1-3,2.5-5.5,4.4-7.7c1.9-2.2,4.3-3.9,7.1-5.1c2.9-1.2,6.1-1.8,9.8-1.8
			c2.4,0,4.7,0.2,7,0.7c2.2,0.5,4.2,1.2,6,2.1l-2.2,4.7c-1.5-0.7-3.2-1.3-5-1.8C341.4,255.6,339.5,255.3,337.4,255.3z M371.5,262.5
			c4.2,0,7.4,0.9,9.4,2.8c2.1,1.9,3.1,4.9,3.1,9.1v24.2h-3.9l-1.1-5.2h-0.3c-1,1.3-2,2.4-3.1,3.3c-1.1,0.9-2.3,1.5-3.7,2
			c-1.4,0.4-3.2,0.7-5.2,0.7c-2.2,0-4.1-0.4-5.7-1.1c-1.7-0.8-3-1.9-4-3.5c-1-1.6-1.4-3.5-1.4-5.9c0-3.6,1.4-6.3,4.2-8.2
			c2.8-1.9,7.1-3,12.9-3.1l6.2-0.3v-2.2c0-3.1-0.7-5.2-2-6.5c-1.3-1.2-3.2-1.8-5.6-1.8c-1.9,0-3.6,0.3-5.4,0.8
			c-1.7,0.5-3.3,1.2-4.8,1.9l-1.7-4.1c1.6-0.8,3.4-1.5,5.5-2.1C367,262.8,369.2,262.5,371.5,262.5z M378.7,281.1l-5.4,0.2
			c-4.4,0.2-7.5,0.9-9.4,2.2c-1.8,1.3-2.7,3.1-2.7,5.4c0,2,0.6,3.5,1.8,4.5c1.2,1,2.9,1.4,4.9,1.4c3.2,0,5.7-0.9,7.7-2.6
			c2-1.7,3-4.4,3-7.9V281.1z M433.8,262.4c3.9,0,6.9,1,8.9,3.1c2,2,3,5.3,3,9.8v23.4h-5.4v-23.1c0-2.9-0.6-5-1.9-6.5
			c-1.2-1.4-3.1-2.2-5.5-2.2c-3.5,0-6,1-7.5,3c-1.6,2-2.3,4.9-2.3,8.8v19.9h-5.4v-23.1c0-1.9-0.3-3.5-0.8-4.8
			c-0.6-1.3-1.4-2.3-2.5-2.9c-1.1-0.6-2.5-0.9-4.1-0.9c-2.4,0-4.3,0.5-5.7,1.4c-1.4,1-2.4,2.4-3.1,4.3c-0.6,1.9-0.9,4.3-0.9,7.1
			v18.8h-5.4V263h4.3l0.8,5h0.3c0.7-1.2,1.6-2.2,2.7-3.1c1.1-0.9,2.3-1.5,3.7-2s2.8-0.7,4.3-0.7c2.7,0,4.9,0.5,6.7,1.6
			c1.9,1,3.2,2.5,4,4.6h0.3c1.2-2,2.8-3.6,4.8-4.6C429.2,262.9,431.4,262.4,433.8,262.4z M462.2,263v35.6h-5.4V263H462.2z
			 M459.5,249.7c0.9,0,1.6,0.3,2.2,0.9c0.7,0.6,1,1.4,1,2.7c0,1.2-0.3,2.1-1,2.7c-0.6,0.6-1.4,0.8-2.2,0.8c-0.9,0-1.7-0.3-2.3-0.8
			c-0.6-0.6-0.9-1.5-0.9-2.7c0-1.2,0.3-2.1,0.9-2.7C457.8,250,458.6,249.7,459.5,249.7z M490.4,262.4c4.2,0,7.4,1,9.5,3.1
			c2.2,2.1,3.3,5.4,3.3,10v23.2h-5.4v-22.9c0-3-0.7-5.2-2.1-6.6c-1.3-1.5-3.4-2.2-6.2-2.2c-3.9,0-6.7,1.1-8.3,3.3
			c-1.6,2.2-2.4,5.5-2.4,9.7v18.7h-5.4V263h4.3l0.8,5.1h0.3c0.7-1.3,1.7-2.3,2.8-3.2c1.2-0.9,2.5-1.5,4-2S488.8,262.4,490.4,262.4z
			 M545.1,280.8c0,2.9-0.4,5.6-1.2,7.9c-0.7,2.3-1.8,4.3-3.3,5.9c-1.4,1.6-3.1,2.8-5.2,3.6c-2,0.8-4.3,1.2-6.9,1.2
			c-2.4,0-4.6-0.4-6.5-1.2c-2-0.9-3.7-2.1-5.1-3.6c-1.4-1.6-2.6-3.5-3.4-5.9c-0.8-2.3-1.2-4.9-1.2-7.9c0-3.9,0.7-7.2,2-9.9
			c1.3-2.7,3.2-4.8,5.7-6.3c2.5-1.4,5.4-2.2,8.8-2.2c3.3,0,6.1,0.7,8.5,2.2c2.5,1.4,4.3,3.5,5.7,6.3
			C544.4,273.6,545.1,276.9,545.1,280.8z M518,280.8c0,2.9,0.4,5.4,1.1,7.5c0.8,2.1,2,3.7,3.5,4.8c1.6,1.2,3.6,1.7,6.1,1.7
			c2.5,0,4.5-0.6,6.1-1.7c1.6-1.2,2.8-2.8,3.5-4.8c0.8-2.1,1.2-4.6,1.2-7.5c0-2.8-0.4-5.3-1.2-7.3c-0.7-2.1-1.9-3.7-3.5-4.8
			c-1.6-1.2-3.6-1.7-6.1-1.7c-3.7,0-6.4,1.2-8.1,3.7C518.8,273.1,518,276.4,518,280.8z M599.3,286c0,2.8-0.7,5.2-2.1,7.2
			c-1.4,2-3.4,3.5-5.9,4.5c-2.5,1-5.4,1.6-8.8,1.6c-1.8,0-3.5-0.1-5.1-0.3c-1.6-0.2-3.1-0.4-4.4-0.7c-1.3-0.3-2.5-0.7-3.6-1.2v-5.3
			c1.6,0.7,3.6,1.3,6,1.9c2.3,0.6,4.8,0.8,7.4,0.8c2.4,0,4.4-0.3,6-0.9c1.6-0.6,2.9-1.5,3.7-2.7c0.9-1.2,1.3-2.7,1.3-4.4
			c0-1.6-0.4-2.9-1.1-4c-0.7-1.1-1.9-2.1-3.6-3c-1.6-0.9-3.9-1.9-6.7-2.9c-2-0.7-3.8-1.5-5.4-2.3c-1.5-0.9-2.8-1.8-3.8-2.9
			c-1-1.1-1.8-2.4-2.4-3.8c-0.5-1.4-0.8-3.1-0.8-4.9c0-2.5,0.7-4.7,2-6.5c1.3-1.8,3.1-3.2,5.4-4.2c2.3-1,4.9-1.4,7.9-1.4
			c2.5,0,4.9,0.2,7,0.7c2.2,0.5,4.1,1.1,5.9,2l-1.7,4.7c-1.7-0.7-3.5-1.3-5.5-1.8c-1.9-0.5-3.9-0.7-5.9-0.7s-3.8,0.3-5.2,0.9
			c-1.4,0.6-2.4,1.4-3.2,2.5c-0.7,1.1-1.1,2.4-1.1,3.8c0,1.7,0.3,3.1,1,4.2c0.7,1.1,1.8,2.1,3.4,3c1.6,0.9,3.6,1.7,6.2,2.7
			c2.8,1,5.1,2.1,7.1,3.2c2,1.2,3.5,2.5,4.5,4.2C598.8,281.4,599.3,283.5,599.3,286z M622.5,299.3c-3.2,0-6-0.7-8.5-2
			c-2.5-1.3-4.4-3.4-5.7-6.1c-1.4-2.7-2.1-6.1-2.1-10.3c0-4.3,0.7-7.8,2.2-10.6c1.4-2.7,3.4-4.8,6-6.1c2.5-1.3,5.4-2,8.6-2
			c1.8,0,3.5,0.2,5.1,0.6c1.7,0.4,3,0.8,4.1,1.3l-1.6,4.5c-1.1-0.4-2.3-0.8-3.8-1.1c-1.4-0.4-2.7-0.6-4-0.6c-2.5,0-4.5,0.5-6.2,1.6
			c-1.6,1-2.9,2.6-3.7,4.7c-0.8,2-1.2,4.6-1.2,7.6c0,2.9,0.4,5.3,1.2,7.4c0.8,2,2,3.6,3.5,4.7c1.6,1.1,3.6,1.6,5.9,1.6
			c1.9,0,3.6-0.2,5.1-0.6c1.5-0.4,2.9-0.9,4.1-1.4v4.8c-1.2,0.6-2.5,1.1-4,1.4C626.2,299.2,624.5,299.3,622.5,299.3z M645.5,248.1
			v15.1c0,0.9,0,1.7-0.1,2.6c0,0.9-0.1,1.7-0.2,2.4h0.3c0.7-1.3,1.7-2.3,2.8-3.2c1.2-0.9,2.5-1.5,3.9-1.9c1.4-0.4,3-0.7,4.6-0.7
			c2.9,0,5.2,0.5,7.1,1.4c1.9,0.9,3.4,2.3,4.3,4.2c1,1.9,1.4,4.4,1.4,7.4v23.2h-5.4v-22.9c0-3-0.7-5.2-2.1-6.6
			c-1.3-1.5-3.4-2.2-6.2-2.2c-2.6,0-4.7,0.5-6.3,1.5c-1.6,1-2.7,2.5-3.4,4.5c-0.7,1.9-1,4.3-1,7.1v18.6h-5.4v-50.6H645.5z
			 M711.6,280.8c0,2.9-0.4,5.6-1.2,7.9c-0.7,2.3-1.8,4.3-3.3,5.9c-1.4,1.6-3.1,2.8-5.2,3.6c-2,0.8-4.3,1.2-6.9,1.2
			c-2.4,0-4.6-0.4-6.5-1.2c-2-0.9-3.7-2.1-5.1-3.6c-1.4-1.6-2.6-3.5-3.4-5.9c-0.8-2.3-1.2-4.9-1.2-7.9c0-3.9,0.7-7.2,2-9.9
			c1.3-2.7,3.2-4.8,5.7-6.3c2.5-1.4,5.4-2.2,8.8-2.2c3.3,0,6.1,0.7,8.5,2.2c2.5,1.4,4.3,3.5,5.7,6.3
			C710.9,273.6,711.6,276.9,711.6,280.8z M684.5,280.8c0,2.9,0.4,5.4,1.1,7.5c0.8,2.1,2,3.7,3.5,4.8c1.6,1.2,3.6,1.7,6.1,1.7
			c2.5,0,4.5-0.6,6.1-1.7c1.6-1.2,2.8-2.8,3.5-4.8c0.8-2.1,1.2-4.6,1.2-7.5c0-2.8-0.4-5.3-1.2-7.3c-0.7-2.1-1.9-3.7-3.5-4.8
			c-1.6-1.2-3.6-1.7-6.1-1.7c-3.7,0-6.4,1.2-8.1,3.7C685.4,273.1,684.5,276.4,684.5,280.8z M751.6,280.8c0,2.9-0.4,5.6-1.2,7.9
			c-0.7,2.3-1.8,4.3-3.3,5.9c-1.4,1.6-3.1,2.8-5.2,3.6c-2,0.8-4.3,1.2-6.9,1.2c-2.4,0-4.6-0.4-6.5-1.2c-2-0.9-3.7-2.1-5.1-3.6
			c-1.4-1.6-2.6-3.5-3.4-5.9c-0.8-2.3-1.2-4.9-1.2-7.9c0-3.9,0.7-7.2,2-9.9c1.3-2.7,3.2-4.8,5.7-6.3c2.5-1.4,5.4-2.2,8.8-2.2
			c3.3,0,6.1,0.7,8.5,2.2c2.5,1.4,4.3,3.5,5.7,6.3C750.9,273.6,751.6,276.9,751.6,280.8z M724.5,280.8c0,2.9,0.4,5.4,1.1,7.5
			c0.8,2.1,2,3.7,3.5,4.8c1.6,1.2,3.6,1.7,6.1,1.7c2.5,0,4.5-0.6,6.1-1.7c1.6-1.2,2.8-2.8,3.5-4.8c0.8-2.1,1.2-4.6,1.2-7.5
			c0-2.8-0.4-5.3-1.2-7.3c-0.7-2.1-1.9-3.7-3.5-4.8c-1.6-1.2-3.6-1.7-6.1-1.7c-3.7,0-6.4,1.2-8.1,3.7
			C725.4,273.1,724.5,276.4,724.5,280.8z M766.4,298.7H761v-50.6h5.4V298.7z"/>
		<path class="st2" d="M457.9,377.1h-5.5v-42.6h-15v-4.8h35.4v4.8h-14.9V377.1z M509.9,359.2c0,2.9-0.4,5.6-1.2,7.9
			c-0.7,2.3-1.8,4.3-3.3,5.9c-1.4,1.6-3.1,2.8-5.2,3.6c-2,0.8-4.3,1.2-6.9,1.2c-2.4,0-4.6-0.4-6.5-1.2c-2-0.9-3.7-2.1-5.1-3.6
			c-1.4-1.6-2.6-3.5-3.4-5.9c-0.8-2.3-1.2-4.9-1.2-7.9c0-3.9,0.7-7.2,2-9.9c1.3-2.7,3.2-4.8,5.7-6.3c2.5-1.4,5.4-2.2,8.8-2.2
			c3.3,0,6.1,0.7,8.5,2.2c2.5,1.4,4.3,3.5,5.7,6.3C509.2,352.1,509.9,355.4,509.9,359.2z M482.8,359.2c0,2.9,0.4,5.4,1.1,7.5
			c0.8,2.1,2,3.7,3.5,4.8c1.6,1.2,3.6,1.7,6.1,1.7c2.5,0,4.5-0.6,6.1-1.7s2.8-2.8,3.5-4.8c0.8-2.1,1.2-4.6,1.2-7.5
			c0-2.8-0.4-5.3-1.2-7.3c-0.7-2.1-1.9-3.7-3.5-4.8c-1.6-1.2-3.6-1.7-6.1-1.7c-3.7,0-6.4,1.2-8.1,3.7
			C483.6,351.5,482.8,354.9,482.8,359.2z M549.9,359.2c0,2.9-0.4,5.6-1.2,7.9c-0.7,2.3-1.8,4.3-3.3,5.9c-1.4,1.6-3.1,2.8-5.2,3.6
			c-2,0.8-4.3,1.2-6.9,1.2c-2.4,0-4.6-0.4-6.5-1.2c-2-0.9-3.7-2.1-5.1-3.6c-1.4-1.6-2.6-3.5-3.4-5.9c-0.8-2.3-1.2-4.9-1.2-7.9
			c0-3.9,0.7-7.2,2-9.9c1.3-2.7,3.2-4.8,5.7-6.3c2.5-1.4,5.4-2.2,8.8-2.2c3.3,0,6.1,0.7,8.5,2.2c2.5,1.4,4.3,3.5,5.7,6.3
			C549.2,352.1,549.9,355.4,549.9,359.2z M522.8,359.2c0,2.9,0.4,5.4,1.1,7.5c0.8,2.1,2,3.7,3.5,4.8c1.6,1.2,3.6,1.7,6.1,1.7
			c2.5,0,4.5-0.6,6.1-1.7s2.8-2.8,3.5-4.8c0.8-2.1,1.2-4.6,1.2-7.5c0-2.8-0.4-5.3-1.2-7.3c-0.7-2.1-1.9-3.7-3.5-4.8
			c-1.6-1.2-3.6-1.7-6.1-1.7c-3.7,0-6.4,1.2-8.1,3.7C523.7,351.5,522.8,354.9,522.8,359.2z M564.6,377.1h-5.4v-50.6h5.4V377.1z
			 M581.4,326.6v26.3c0,0.9,0,1.9-0.1,3.2c0,1.2-0.1,2.3-0.1,3.3h0.2c0.4-0.6,1.1-1.4,2-2.5c0.9-1.1,1.6-2,2.2-2.7l11.9-12.6h6.3
			l-14.3,15.2l15.4,20.4h-6.5l-12.5-16.9l-4.3,4v12.9H576v-50.6H581.4z M616.4,341.5v35.6H611v-35.6H616.4z M613.8,328.2
			c0.9,0,1.6,0.3,2.2,0.9c0.7,0.6,1,1.4,1,2.7c0,1.2-0.3,2.1-1,2.7c-0.6,0.6-1.4,0.8-2.2,0.8c-0.9,0-1.7-0.3-2.3-0.8
			c-0.6-0.6-0.9-1.5-0.9-2.7c0-1.2,0.3-2.1,0.9-2.7C612.1,328.5,612.8,328.2,613.8,328.2z M639.3,373.3c0.9,0,1.8-0.1,2.7-0.2
			c0.9-0.1,1.7-0.3,2.3-0.6v4.2c-0.6,0.3-1.5,0.5-2.6,0.7c-1.1,0.2-2.2,0.3-3.2,0.3c-1.9,0-3.6-0.3-5.2-1c-1.5-0.7-2.7-1.8-3.7-3.3
			c-0.9-1.6-1.3-3.8-1.3-6.6v-21.1h-5.1v-2.6l5.1-2.1l2.2-7.7h3.2v8.2h10.4v4.2h-10.4v21c0,2.2,0.5,3.9,1.5,5
			C636.2,372.8,637.6,373.3,639.3,373.3z"/>
		<path class="st3" d="M284.3,709.5L284.3,709.5c0-141.9,115-257,257-257l0,0c68.2,0,133.5,27.1,181.7,75.3s75.3,113.5,75.3,181.7
			l0,0c0,141.9-115,257-257,257l0,0C399.4,966.5,284.3,851.4,284.3,709.5z"/>
		<path class="st4" d="M284.3,709.5L284.3,709.5c0-141.9,115-257,257-257l0,0c68.2,0,133.5,27.1,181.7,75.3s75.3,113.5,75.3,181.7
			l0,0c0,141.9-115,257-257,257l0,0C399.4,966.5,284.3,851.4,284.3,709.5z"/>
		<path class="st5" d="M424.9,612.4c-2.6,0-5,0.4-7.1,1.3c-2.1,0.9-3.9,2.2-5.4,3.9c-1.4,1.7-2.6,3.8-3.3,6.2
			c-0.8,2.4-1.2,5.1-1.2,8.1c0,4,0.6,7.5,1.8,10.4c1.3,2.9,3.1,5.2,5.6,6.8c2.5,1.6,5.6,2.4,9.3,2.4c2.1,0,4.1-0.2,6-0.5
			c1.9-0.4,3.7-0.8,5.5-1.4v4.8c-1.7,0.7-3.6,1.2-5.5,1.4c-1.9,0.3-4.2,0.5-6.8,0.5c-4.8,0-8.9-1-12.1-3c-3.2-2-5.7-4.8-7.3-8.5
			c-1.6-3.7-2.4-8-2.4-13c0-3.6,0.5-6.9,1.5-9.9s2.5-5.5,4.4-7.7c1.9-2.2,4.3-3.9,7.1-5.1c2.9-1.2,6.1-1.8,9.8-1.8
			c2.4,0,4.7,0.2,7,0.7c2.2,0.5,4.2,1.2,6,2.1l-2.2,4.7c-1.5-0.7-3.2-1.3-5-1.8C429,612.6,427,612.4,424.9,612.4z M461.9,619.4
			c0.7,0,1.5,0,2.3,0.1s1.5,0.2,2.1,0.3l-0.7,5c-0.6-0.1-1.3-0.3-2-0.3c-0.7-0.1-1.4-0.2-2-0.2c-1.4,0-2.8,0.3-4.1,0.9
			c-1.3,0.6-2.4,1.4-3.3,2.5c-0.9,1.1-1.7,2.4-2.2,3.9c-0.6,1.5-0.8,3.1-0.8,5v19.1h-5.4v-35.6h4.5l0.6,6.6h0.2
			c0.7-1.3,1.6-2.5,2.7-3.6c1-1.1,2.2-2,3.6-2.6C458.7,619.7,460.2,619.4,461.9,619.4z M478.3,620.1v35.6h-5.4v-35.6H478.3z
			 M475.7,606.8c0.9,0,1.6,0.3,2.2,0.9c0.7,0.6,1,1.4,1,2.7c0,1.2-0.3,2.1-1,2.7c-0.6,0.6-1.4,0.8-2.2,0.8c-0.9,0-1.7-0.3-2.3-0.8
			c-0.6-0.6-0.9-1.5-0.9-2.7c0-1.2,0.3-2.1,0.9-2.7C474,607.1,474.7,606.8,475.7,606.8z M503,619.5c4.2,0,7.4,0.9,9.4,2.8
			c2.1,1.9,3.1,4.9,3.1,9.1v24.2h-3.9l-1.1-5.2h-0.3c-1,1.3-2,2.4-3.1,3.3c-1.1,0.9-2.3,1.5-3.7,2c-1.4,0.4-3.2,0.7-5.2,0.7
			c-2.2,0-4.1-0.4-5.7-1.1c-1.7-0.8-3-1.9-4-3.5c-1-1.6-1.4-3.5-1.4-5.9c0-3.6,1.4-6.3,4.2-8.2c2.8-1.9,7.1-3,12.9-3.1l6.2-0.3v-2.2
			c0-3.1-0.7-5.2-2-6.5c-1.3-1.2-3.2-1.8-5.6-1.8c-1.9,0-3.6,0.3-5.4,0.8c-1.7,0.5-3.3,1.2-4.8,1.9l-1.7-4.1
			c1.6-0.8,3.4-1.5,5.5-2.1C498.5,619.8,500.7,619.5,503,619.5z M510.2,638.1l-5.4,0.2c-4.4,0.2-7.5,0.9-9.4,2.2
			c-1.8,1.3-2.7,3.1-2.7,5.4c0,2,0.6,3.5,1.8,4.5c1.2,1,2.9,1.4,4.9,1.4c3.2,0,5.7-0.9,7.7-2.6c2-1.7,3-4.4,3-7.9V638.1z
			 M540.9,656.4c-3.2,0-6-0.7-8.5-2c-2.5-1.3-4.4-3.4-5.7-6.1c-1.4-2.7-2.1-6.1-2.1-10.3c0-4.3,0.7-7.8,2.2-10.6s3.4-4.8,6-6.1
			c2.5-1.3,5.4-2,8.6-2c1.8,0,3.5,0.2,5.1,0.6c1.7,0.4,3,0.8,4.1,1.3l-1.6,4.5c-1.1-0.4-2.3-0.8-3.8-1.1c-1.4-0.4-2.7-0.6-4-0.6
			c-2.5,0-4.5,0.5-6.2,1.6c-1.6,1-2.9,2.6-3.7,4.7c-0.8,2-1.2,4.6-1.2,7.6c0,2.9,0.4,5.3,1.2,7.4c0.8,2,2,3.6,3.5,4.7
			c1.6,1.1,3.6,1.6,5.9,1.6c1.9,0,3.6-0.2,5.1-0.6s2.9-0.9,4.1-1.4v4.8c-1.2,0.6-2.5,1.1-4,1.4C544.7,656.2,542.9,656.4,540.9,656.4
			z M546.2,665c0,2.1-0.8,3.7-2.5,4.9c-1.6,1.2-4,1.8-7.1,1.8c-0.7,0-1.3,0-2-0.1c-0.6-0.1-1.1-0.2-1.4-0.3v-3.4
			c0.4,0.1,0.9,0.2,1.6,0.2c0.7,0.1,1.3,0.1,2,0.1c1.6,0,2.9-0.2,3.7-0.7c0.9-0.5,1.3-1.3,1.3-2.4c0-1.2-0.6-2.1-1.7-2.6
			c-1.2-0.5-2.6-0.9-4.5-1.1l2.9-5.7h3.6l-1.7,3.6c1.1,0.2,2,0.6,2.9,1c0.9,0.5,1.6,1.1,2.1,1.8C546,662.9,546.2,663.9,546.2,665z
			 M571.9,619.5c4.2,0,7.4,0.9,9.4,2.8c2.1,1.9,3.1,4.9,3.1,9.1v24.2h-3.9l-1.1-5.2h-0.3c-1,1.3-2,2.4-3.1,3.3
			c-1.1,0.9-2.3,1.5-3.7,2c-1.4,0.4-3.2,0.7-5.2,0.7c-2.2,0-4.1-0.4-5.7-1.1c-1.7-0.8-3-1.9-4-3.5c-1-1.6-1.4-3.5-1.4-5.9
			c0-3.6,1.4-6.3,4.2-8.2c2.8-1.9,7.1-3,12.9-3.1l6.2-0.3v-2.2c0-3.1-0.7-5.2-2-6.5c-1.3-1.2-3.2-1.8-5.6-1.8
			c-1.9,0-3.6,0.3-5.4,0.8c-1.7,0.5-3.3,1.2-4.8,1.9l-1.7-4.1c1.6-0.8,3.4-1.5,5.5-2.1C567.4,619.8,569.6,619.5,571.9,619.5z
			 M579.1,638.1l-5.4,0.2c-4.4,0.2-7.5,0.9-9.4,2.2c-1.8,1.3-2.7,3.1-2.7,5.4c0,2,0.6,3.5,1.8,4.5c1.2,1,2.9,1.4,4.9,1.4
			c3.2,0,5.7-0.9,7.7-2.6c2-1.7,3-4.4,3-7.9V638.1z M559.1,615.3c0.1-1.3,0.4-2.5,0.7-3.5c0.4-1,0.9-1.9,1.4-2.6
			c0.6-0.7,1.4-1.3,2.2-1.7c0.9-0.4,1.8-0.6,2.8-0.6c1,0,2,0.2,2.8,0.6c0.9,0.4,1.8,0.9,2.6,1.4c0.8,0.5,1.6,0.9,2.4,1.3
			c0.8,0.4,1.5,0.6,2.2,0.6c1,0,1.8-0.3,2.4-0.9c0.6-0.7,1-1.7,1.3-3.1h3.2c-0.3,2.5-1.1,4.6-2.3,6.1c-1.2,1.5-2.8,2.2-4.8,2.2
			c-1,0-1.9-0.2-2.8-0.6c-0.9-0.4-1.7-0.9-2.6-1.4s-1.6-1-2.5-1.3c-0.8-0.4-1.5-0.6-2.3-0.6c-1.1,0-1.9,0.3-2.5,0.9
			c-0.6,0.6-1,1.6-1.3,3H559.1z M626.2,637.8c0,2.9-0.4,5.6-1.2,7.9c-0.7,2.3-1.8,4.3-3.3,5.9c-1.4,1.6-3.1,2.8-5.2,3.6
			c-2,0.8-4.3,1.2-6.9,1.2c-2.4,0-4.6-0.4-6.5-1.2c-2-0.9-3.7-2.1-5.1-3.6c-1.4-1.6-2.6-3.5-3.4-5.9c-0.8-2.3-1.2-4.9-1.2-7.9
			c0-3.9,0.7-7.2,2-9.9c1.3-2.7,3.2-4.8,5.7-6.3c2.5-1.4,5.4-2.2,8.8-2.2c3.3,0,6.1,0.7,8.5,2.2c2.5,1.4,4.3,3.5,5.7,6.3
			C625.6,630.6,626.2,633.9,626.2,637.8z M599.2,637.8c0,2.9,0.4,5.4,1.1,7.5c0.8,2.1,2,3.7,3.5,4.8c1.6,1.2,3.6,1.7,6.1,1.7
			c2.5,0,4.5-0.6,6.1-1.7c1.6-1.2,2.8-2.8,3.5-4.8c0.8-2.1,1.2-4.6,1.2-7.5c0-2.8-0.4-5.3-1.2-7.3c-0.7-2.1-1.9-3.7-3.5-4.8
			c-1.6-1.2-3.6-1.7-6.1-1.7c-3.7,0-6.4,1.2-8.1,3.7C600,630.1,599.2,633.5,599.2,637.8z M666.6,619.4c3,0,5.6,0.7,7.8,2.1
			c2.2,1.3,3.8,3.2,5,5.6c1.2,2.4,1.7,5.2,1.7,8.5v3.3h-24.6c0,4.2,1.1,7.3,3.1,9.5c2,2.2,4.9,3.3,8.5,3.3c2.3,0,4.3-0.2,6-0.6
			c1.7-0.4,3.6-1,5.5-1.8v4.7c-1.8,0.8-3.6,1.4-5.4,1.8c-1.7,0.4-3.8,0.6-6.2,0.6c-3.4,0-6.4-0.7-9-2.1c-2.5-1.4-4.5-3.5-5.9-6.1
			c-1.4-2.7-2.1-6-2.1-10c0-3.8,0.7-7.1,2-9.9c1.3-2.8,3.1-5,5.5-6.5C660.6,620.2,663.4,619.4,666.6,619.4z M666.5,623.9
			c-2.9,0-5.2,0.9-6.9,2.8c-1.7,1.9-2.7,4.5-3.1,7.9h18.9c0-2.1-0.4-4-1-5.6c-0.6-1.6-1.6-2.9-2.9-3.8
			C670.2,624.3,668.6,623.9,666.5,623.9z"/>
		<path class="st5" d="M459,709.3h16.6v23.1c-2.5,0.9-5.1,1.5-7.7,1.9c-2.6,0.4-5.6,0.6-8.8,0.6c-4.9,0-9.1-1-12.5-3
			c-3.4-2-5.9-4.8-7.7-8.4c-1.7-3.7-2.6-8-2.6-13c0-4.9,1-9.2,2.9-12.9c1.9-3.7,4.7-6.5,8.4-8.5c3.7-2,8.1-3.1,13.3-3.1
			c2.6,0,5.1,0.3,7.5,0.8c2.4,0.5,4.6,1.2,6.6,2.1l-2.1,4.8c-1.7-0.8-3.7-1.4-5.8-2c-2.1-0.6-4.3-0.8-6.5-0.8c-3.9,0-7.2,0.8-10,2.5
			c-2.7,1.6-4.9,3.9-6.4,6.8c-1.4,2.9-2.2,6.4-2.2,10.4c0,4,0.6,7.4,1.9,10.4c1.3,2.9,3.3,5.2,6,6.9c2.7,1.6,6.2,2.4,10.4,2.4
			c2.2,0,4-0.1,5.5-0.3c1.6-0.3,3-0.6,4.2-0.9v-14.5H459V709.3z M500,697.9c3,0,5.6,0.7,7.8,2.1c2.2,1.3,3.8,3.2,5,5.6
			c1.2,2.4,1.7,5.2,1.7,8.5v3.3h-24.6c0,4.2,1.1,7.3,3.1,9.5c2,2.2,4.9,3.3,8.5,3.3c2.3,0,4.3-0.2,6-0.6c1.7-0.4,3.6-1,5.5-1.8v4.7
			c-1.8,0.8-3.6,1.4-5.4,1.8c-1.7,0.4-3.8,0.6-6.2,0.6c-3.4,0-6.4-0.7-9-2.1c-2.5-1.4-4.5-3.5-5.9-6.1c-1.4-2.7-2.1-6-2.1-10
			c0-3.8,0.7-7.1,2-9.9c1.3-2.8,3.1-5,5.5-6.5C494,698.7,496.8,697.9,500,697.9z M499.9,702.4c-2.9,0-5.2,0.9-6.9,2.8
			c-1.7,1.9-2.7,4.5-3.1,7.9h18.9c0-2.1-0.4-4-1-5.6c-0.6-1.6-1.6-2.9-2.9-3.8C503.6,702.8,502,702.4,499.9,702.4z M546.7,724.4
			c0,2.3-0.6,4.2-1.7,5.7c-1.1,1.6-2.7,2.7-4.8,3.5c-2.1,0.8-4.6,1.2-7.5,1.2c-2.5,0-4.6-0.2-6.5-0.6c-1.8-0.4-3.4-0.9-4.8-1.7v-5
			c1.4,0.7,3.2,1.4,5.2,2c2,0.6,4.1,0.9,6.2,0.9c3.1,0,5.3-0.5,6.7-1.5c1.4-1,2.1-2.4,2.1-4.1c0-1-0.3-1.8-0.8-2.6
			c-0.6-0.7-1.5-1.5-2.8-2.2c-1.3-0.7-3.1-1.5-5.4-2.3c-2.3-0.9-4.2-1.7-5.9-2.6c-1.6-0.9-2.9-1.9-3.8-3.1c-0.9-1.3-1.3-2.9-1.3-4.8
			c0-3,1.2-5.3,3.6-6.9c2.5-1.6,5.7-2.5,9.6-2.5c2.2,0,4.2,0.2,6,0.7c1.9,0.4,3.6,1,5.2,1.7l-1.8,4.3c-1.5-0.6-3.1-1.2-4.7-1.6
			c-1.7-0.4-3.4-0.7-5.1-0.7c-2.5,0-4.4,0.4-5.7,1.2s-2,1.9-2,3.3c0,1.1,0.3,2,0.9,2.8c0.6,0.7,1.6,1.4,3,2c1.4,0.6,3.2,1.3,5.4,2.2
			c2.2,0.8,4.1,1.7,5.7,2.6c1.6,0.9,2.9,2,3.7,3.2C546.2,720.9,546.7,722.5,546.7,724.4z M566.8,730.4c0.9,0,1.8-0.1,2.7-0.2
			s1.7-0.3,2.3-0.6v4.2c-0.6,0.3-1.5,0.5-2.6,0.7c-1.1,0.2-2.2,0.3-3.2,0.3c-1.9,0-3.6-0.3-5.2-1c-1.5-0.7-2.7-1.8-3.7-3.3
			c-0.9-1.6-1.3-3.8-1.3-6.6v-21.1h-5.1v-2.6l5.1-2.1l2.2-7.7h3.2v8.2h10.4v4.2h-10.4v21c0,2.2,0.5,3.9,1.5,5
			C563.8,729.9,565.1,730.4,566.8,730.4z M592.4,698c4.2,0,7.4,0.9,9.4,2.8c2.1,1.9,3.1,4.9,3.1,9.1v24.2H601l-1.1-5.2h-0.3
			c-1,1.3-2,2.4-3.1,3.3c-1.1,0.9-2.3,1.5-3.7,2c-1.4,0.4-3.2,0.7-5.2,0.7c-2.2,0-4.1-0.4-5.7-1.1c-1.7-0.8-3-1.9-4-3.5
			c-1-1.6-1.4-3.5-1.4-5.9c0-3.6,1.4-6.3,4.2-8.2c2.8-1.9,7.1-3,12.9-3.1l6.2-0.3v-2.2c0-3.1-0.7-5.2-2-6.5
			c-1.3-1.2-3.2-1.8-5.6-1.8c-1.9,0-3.6,0.3-5.4,0.8c-1.7,0.5-3.3,1.2-4.8,1.9l-1.7-4.1c1.6-0.8,3.4-1.5,5.5-2.1
			C587.9,698.3,590.1,698,592.4,698z M599.6,716.6l-5.4,0.2c-4.4,0.2-7.5,0.9-9.4,2.2c-1.8,1.3-2.7,3.1-2.7,5.4c0,2,0.6,3.5,1.8,4.5
			c1.2,1,2.9,1.4,4.9,1.4c3.2,0,5.7-0.9,7.7-2.6c2-1.7,3-4.4,3-7.9V716.6z M579.6,693.8c0.1-1.3,0.4-2.5,0.7-3.5
			c0.4-1,0.9-1.9,1.4-2.6c0.6-0.7,1.4-1.3,2.2-1.7c0.9-0.4,1.8-0.6,2.8-0.6c1,0,2,0.2,2.8,0.6c0.9,0.4,1.8,0.9,2.6,1.4
			c0.8,0.5,1.6,0.9,2.4,1.3c0.8,0.4,1.5,0.6,2.2,0.6c1,0,1.8-0.3,2.4-0.9c0.6-0.7,1-1.7,1.3-3.1h3.2c-0.3,2.5-1.1,4.6-2.3,6.1
			c-1.2,1.5-2.8,2.2-4.8,2.2c-1,0-1.9-0.2-2.8-0.6c-0.9-0.4-1.7-0.9-2.6-1.4c-0.8-0.5-1.6-1-2.5-1.3c-0.8-0.4-1.5-0.6-2.3-0.6
			c-1.1,0-1.9,0.3-2.5,0.9c-0.6,0.6-1,1.6-1.3,3H579.6z M646.8,716.3c0,2.9-0.4,5.6-1.2,7.9c-0.7,2.3-1.8,4.3-3.3,5.9
			c-1.4,1.6-3.1,2.8-5.2,3.6c-2,0.8-4.3,1.2-6.9,1.2c-2.4,0-4.6-0.4-6.5-1.2c-2-0.9-3.7-2.1-5.1-3.6c-1.4-1.6-2.6-3.5-3.4-5.9
			c-0.8-2.3-1.2-4.9-1.2-7.9c0-3.9,0.7-7.2,2-9.9c1.3-2.7,3.2-4.8,5.7-6.3c2.5-1.4,5.4-2.2,8.8-2.2c3.3,0,6.1,0.7,8.5,2.2
			c2.5,1.4,4.3,3.5,5.7,6.3C646.1,709.1,646.8,712.4,646.8,716.3z M619.7,716.3c0,2.9,0.4,5.4,1.1,7.5c0.8,2.1,2,3.7,3.5,4.8
			c1.6,1.2,3.6,1.7,6.1,1.7c2.5,0,4.5-0.6,6.1-1.7s2.8-2.8,3.5-4.8c0.8-2.1,1.2-4.6,1.2-7.5c0-2.8-0.4-5.3-1.2-7.3
			c-0.7-2.1-1.9-3.7-3.5-4.8c-1.6-1.2-3.6-1.7-6.1-1.7c-3.7,0-6.4,1.2-8.1,3.7C620.5,708.6,619.7,712,619.7,716.3z"/>
		<path class="st5" d="M416.1,812.7h-26.4v-47.5h26.4v4.8h-20.9v15.4h19.7v4.8h-19.7v17.6h20.9V812.7z M434.3,794.4L422,777h6.2
			l9.4,13.7l9.4-13.7h6.1l-12.3,17.4l13,18.2h-6.2l-10-14.5l-10,14.5h-6.1L434.3,794.4z M477.4,776.4c4.5,0,8,1.5,10.6,4.6
			c2.6,3,4,7.6,4,13.8c0,4.1-0.6,7.5-1.8,10.2c-1.2,2.7-2.9,4.8-5.1,6.2c-2.2,1.4-4.8,2.1-7.7,2.1c-1.9,0-3.6-0.2-5-0.7
			c-1.4-0.5-2.6-1.2-3.7-2.1c-1-0.9-1.8-1.8-2.5-2.7h-0.4c0.1,0.8,0.1,1.8,0.2,3c0.1,1.2,0.2,2.2,0.2,3.1v14.7h-5.4V777h4.5l0.7,5.2
			h0.2c0.7-1.1,1.6-2.1,2.6-3c1-0.9,2.2-1.6,3.6-2.1C473.7,776.7,475.4,776.4,477.4,776.4z M476.4,780.9c-2.5,0-4.4,0.5-6,1.4
			c-1.5,0.9-2.6,2.3-3.3,4.2c-0.7,1.9-1,4.3-1.1,7.1v1.1c0,3,0.3,5.6,1,7.6c0.7,2.1,1.8,3.7,3.3,4.7c1.5,1.1,3.6,1.6,6.2,1.6
			c2.2,0,4-0.6,5.5-1.8c1.5-1.2,2.6-2.8,3.3-5c0.7-2.2,1.1-4.6,1.1-7.4c0-4.2-0.8-7.6-2.5-10C482.3,782.2,479.8,780.9,476.4,780.9z
			 M515.1,776.4c3,0,5.6,0.7,7.8,2.1c2.2,1.3,3.8,3.2,5,5.6c1.2,2.4,1.7,5.2,1.7,8.5v3.3H505c0,4.2,1.1,7.3,3.1,9.5
			c2,2.2,4.9,3.3,8.5,3.3c2.3,0,4.3-0.2,6-0.6c1.7-0.4,3.6-1,5.5-1.8v4.7c-1.8,0.8-3.6,1.4-5.4,1.8c-1.7,0.4-3.8,0.6-6.2,0.6
			c-3.4,0-6.4-0.7-9-2.1c-2.5-1.4-4.5-3.5-5.9-6.1c-1.4-2.7-2.1-6-2.1-10c0-3.8,0.7-7.1,2-9.9c1.3-2.8,3.1-5,5.5-6.5
			C509.1,777.1,511.9,776.4,515.1,776.4z M515,780.8c-2.9,0-5.2,0.9-6.9,2.8c-1.7,1.9-2.7,4.5-3.1,7.9h18.9c0-2.1-0.4-4-1-5.6
			c-0.6-1.6-1.6-2.9-2.9-3.8C518.7,781.3,517.1,780.8,515,780.8z M551.4,813.3c-4.5,0-8.1-1.5-10.7-4.6c-2.6-3.1-4-7.7-4-13.7
			c0-6.1,1.3-10.8,4-13.9c2.7-3.2,6.3-4.7,10.8-4.7c1.9,0,3.5,0.3,5,0.8c1.4,0.5,2.6,1.2,3.6,2c1,0.8,1.9,1.8,2.6,2.8h0.4
			c-0.1-0.7-0.2-1.6-0.3-2.7c-0.1-1.2-0.1-2.2-0.1-2.9v-14.3h5.4v50.6h-4.3l-0.8-5.1h-0.2c-0.7,1.1-1.5,2-2.6,2.9
			c-1,0.9-2.2,1.5-3.7,2.1C555,813.1,553.3,813.3,551.4,813.3z M552.3,808.8c3.8,0,6.5-1.1,8-3.2c1.6-2.2,2.4-5.4,2.4-9.6v-1
			c0-4.5-0.8-8-2.3-10.4c-1.5-2.4-4.2-3.6-8.1-3.6c-3.3,0-5.8,1.3-7.5,3.8c-1.6,2.5-2.5,6-2.5,10.4c0,4.4,0.8,7.8,2.5,10.1
			C546.5,807.6,548.9,808.8,552.3,808.8z M584.9,777v35.6h-5.4V777H584.9z M582.2,763.7c0.9,0,1.6,0.3,2.2,0.9c0.7,0.6,1,1.4,1,2.7
			c0,1.2-0.3,2.1-1,2.7c-0.6,0.6-1.4,0.8-2.2,0.8c-0.9,0-1.7-0.3-2.3-0.8c-0.6-0.6-0.9-1.5-0.9-2.7c0-1.2,0.3-2.1,0.9-2.7
			C580.5,764,581.3,763.7,582.2,763.7z M610.5,813.3c-3.2,0-6-0.7-8.5-2c-2.5-1.3-4.4-3.4-5.7-6.1c-1.4-2.7-2.1-6.1-2.1-10.3
			c0-4.3,0.7-7.8,2.2-10.6c1.4-2.7,3.4-4.8,6-6.1c2.5-1.3,5.4-2,8.6-2c1.8,0,3.5,0.2,5.1,0.6c1.7,0.4,3,0.8,4.1,1.3l-1.6,4.5
			c-1.1-0.4-2.3-0.8-3.8-1.1c-1.4-0.4-2.7-0.6-4-0.6c-2.5,0-4.5,0.5-6.2,1.6c-1.6,1-2.9,2.6-3.7,4.7c-0.8,2-1.2,4.6-1.2,7.6
			c0,2.9,0.4,5.3,1.2,7.4c0.8,2,2,3.6,3.5,4.7c1.6,1.1,3.6,1.6,5.9,1.6c1.9,0,3.6-0.2,5.1-0.6c1.5-0.4,2.9-0.9,4.1-1.4v4.8
			c-1.2,0.6-2.5,1.1-4,1.4C614.3,813.2,612.5,813.3,610.5,813.3z M615.8,822c0,2.1-0.8,3.7-2.5,4.9c-1.6,1.2-4,1.8-7.1,1.8
			c-0.7,0-1.3,0-2-0.1c-0.6-0.1-1.1-0.2-1.4-0.3v-3.4c0.4,0.1,0.9,0.2,1.6,0.2c0.7,0.1,1.3,0.1,2,0.1c1.6,0,2.9-0.2,3.7-0.7
			c0.9-0.5,1.3-1.3,1.3-2.4c0-1.2-0.6-2.1-1.7-2.6c-1.2-0.5-2.6-0.9-4.5-1.1l2.9-5.7h3.6l-1.7,3.6c1.1,0.2,2,0.6,2.9,1
			c0.9,0.5,1.6,1.1,2.1,1.8C615.6,819.9,615.8,820.8,615.8,822z M641.5,776.5c4.2,0,7.4,0.9,9.4,2.8c2.1,1.9,3.1,4.9,3.1,9.1v24.2
			h-3.9l-1.1-5.2h-0.3c-1,1.3-2,2.4-3.1,3.3c-1.1,0.9-2.3,1.5-3.7,2c-1.4,0.4-3.2,0.7-5.2,0.7c-2.2,0-4.1-0.4-5.7-1.1
			c-1.7-0.8-3-1.9-4-3.5c-1-1.6-1.4-3.5-1.4-5.9c0-3.6,1.4-6.3,4.2-8.2c2.8-1.9,7.1-3,12.9-3.1l6.2-0.3v-2.2c0-3.1-0.7-5.2-2-6.5
			c-1.3-1.2-3.2-1.8-5.6-1.8c-1.9,0-3.6,0.3-5.4,0.8c-1.7,0.5-3.3,1.2-4.8,1.9l-1.7-4.1c1.6-0.8,3.4-1.5,5.5-2.1
			C637,776.8,639.2,776.5,641.5,776.5z M648.7,795.1l-5.4,0.2c-4.4,0.2-7.5,0.9-9.4,2.2c-1.8,1.3-2.7,3.1-2.7,5.4
			c0,2,0.6,3.5,1.8,4.5c1.2,1,2.9,1.4,4.9,1.4c3.2,0,5.7-0.9,7.7-2.6c2-1.7,3-4.4,3-7.9V795.1z M628.7,772.3
			c0.1-1.3,0.4-2.5,0.7-3.5c0.4-1,0.9-1.9,1.4-2.6c0.6-0.7,1.4-1.3,2.2-1.7c0.9-0.4,1.8-0.6,2.8-0.6c1,0,2,0.2,2.8,0.6
			c0.9,0.4,1.8,0.9,2.6,1.4c0.8,0.5,1.6,0.9,2.4,1.3s1.5,0.6,2.2,0.6c1,0,1.8-0.3,2.4-0.9c0.6-0.7,1-1.7,1.3-3.1h3.2
			c-0.3,2.5-1.1,4.6-2.3,6.1c-1.2,1.5-2.8,2.2-4.8,2.2c-1,0-1.9-0.2-2.8-0.6c-0.9-0.4-1.7-0.9-2.6-1.4c-0.8-0.5-1.6-1-2.5-1.3
			c-0.8-0.4-1.5-0.6-2.3-0.6c-1.1,0-1.9,0.3-2.5,0.9c-0.6,0.6-1,1.6-1.3,3H628.7z M695.8,794.8c0,2.9-0.4,5.6-1.2,7.9
			c-0.7,2.3-1.8,4.3-3.3,5.9c-1.4,1.6-3.1,2.8-5.2,3.6c-2,0.8-4.3,1.2-6.9,1.2c-2.4,0-4.6-0.4-6.5-1.2c-2-0.9-3.7-2.1-5.1-3.6
			c-1.4-1.6-2.6-3.5-3.4-5.9c-0.8-2.3-1.2-4.9-1.2-7.9c0-3.9,0.7-7.2,2-9.9c1.3-2.7,3.2-4.8,5.7-6.3c2.5-1.4,5.4-2.2,8.8-2.2
			c3.3,0,6.1,0.7,8.5,2.2c2.5,1.4,4.3,3.5,5.7,6.3C695.1,787.6,695.8,790.9,695.8,794.8z M668.7,794.8c0,2.9,0.4,5.4,1.1,7.5
			c0.8,2.1,2,3.7,3.5,4.8c1.6,1.2,3.6,1.7,6.1,1.7c2.5,0,4.5-0.6,6.1-1.7c1.6-1.2,2.8-2.8,3.5-4.8c0.8-2.1,1.2-4.6,1.2-7.5
			c0-2.8-0.4-5.3-1.2-7.3c-0.7-2.1-1.9-3.7-3.5-4.8c-1.6-1.2-3.6-1.7-6.1-1.7c-3.7,0-6.4,1.2-8.1,3.7
			C669.6,787.1,668.7,790.5,668.7,794.8z"/>
	</g>
</g>
</svg>
