<?xml version="1.0" encoding="utf-8"?>
<!-- Generator: Adobe Illustrator 26.0.1, SVG Export Plug-In . SVG Version: 6.00 Build 0)  -->
<svg version="1.1" id="Layer_1" xmlns="http://www.w3.org/2000/svg" xmlns:xlink="http://www.w3.org/1999/xlink" x="0px" y="0px"
	 viewBox="0 0 1080 1080" style="enable-background:new 0 0 1080 1080;" xml:space="preserve">
<style type="text/css">
	.st0{clip-path:url(#SVGID_00000064331475509909807100000000363556181962598075_);}
	.st1{fill-rule:evenodd;clip-rule:evenodd;fill:#C91456;}
	.st2{fill-rule:evenodd;clip-rule:evenodd;fill:#FFFFFF;}
	.st3{fill:none;stroke:#FFFFFF;stroke-width:3.5674;stroke-linejoin:round;stroke-miterlimit:10;}
</style>
<g>
	<g>
		<defs>
			<rect id="SVGID_1_" x="-450.7" y="29" width="1757.6" height="988.6"/>
		</defs>
		<clipPath id="SVGID_00000116924069583605351070000000451553829200621987_">
			<use xlink:href="#SVGID_1_"  style="overflow:visible;"/>
		</clipPath>
		<g style="clip-path:url(#SVGID_00000116924069583605351070000000451553829200621987_);">
			<path class="st1" d="M91,553.1L91,553.1c0-248.7,201.6-450.3,450.3-450.3l0,0c119.4,0,233.9,47.4,318.4,131.9
				s131.9,199,131.9,318.4l0,0c0,248.7-201.6,450.3-450.3,450.3l0,0C292.6,1003.4,91,801.8,91,553.1z"/>
			<path class="st2" d="M284.3,709.5L284.3,709.5c0-141.9,115-257,257-257l0,0c68.2,0,133.5,27.1,181.7,75.3s75.3,113.5,75.3,181.7
				l0,0c0,141.9-115,257-257,257l0,0C399.4,966.5,284.3,851.4,284.3,709.5z"/>
			<path class="st3" d="M284.3,709.5L284.3,709.5c0-141.9,115-257,257-257l0,0c68.2,0,133.5,27.1,181.7,75.3s75.3,113.5,75.3,181.7
				l0,0c0,141.9-115,257-257,257l0,0C399.4,966.5,284.3,851.4,284.3,709.5z"/>
		</g>
	</g>
</g>
</svg>
