<?xml version="1.0" encoding="utf-8"?>
<!-- Generator: Adobe Illustrator 25.4.1, SVG Export Plug-In . SVG Version: 6.00 Build 0)  -->
<svg version="1.1" id="Layer_1" xmlns="http://www.w3.org/2000/svg" xmlns:xlink="http://www.w3.org/1999/xlink" x="0px" y="0px"
	 viewBox="0 0 1080 1080" style="enable-background:new 0 0 1080 1080;" xml:space="preserve">
<style type="text/css">
	.st0{clip-path:url(#SVGID_00000000927200046950717710000014384251621777710262_);}
	.st1{fill-rule:evenodd;clip-rule:evenodd;fill:#C91456;}
	.st2{fill:none;stroke:#FFFFFF;stroke-width:2.8415;stroke-linejoin:round;stroke-miterlimit:10;}
	.st3{fill:#FFFFFF;}
	.st4{fill-rule:evenodd;clip-rule:evenodd;fill:#FFFFFF;}
	.st5{fill:#C91456;}
</style>
<g>
	<defs>
		<rect id="SVGID_1_" x="-278.4" y="67.8" width="1711.2" height="962.6"/>
	</defs>
	<clipPath id="SVGID_00000154396330482107760620000005409151315471614129_">
		<use xlink:href="#SVGID_1_"  style="overflow:visible;"/>
	</clipPath>
	<g style="clip-path:url(#SVGID_00000154396330482107760620000005409151315471614129_);">
		<path class="st1" d="M76.9,556L76.9,556C76.9,300.4,284,93.3,539.6,93.3l0,0c122.7,0,240.4,48.7,327.1,135.5
			c86.8,86.8,135.5,204.4,135.5,327.1l0,0c0,255.5-207.1,462.7-462.7,462.7l0,0C284,1018.6,76.9,811.5,76.9,556z"/>
		<path class="st2" d="M76.9,556L76.9,556C76.9,300.4,284,93.3,539.6,93.3l0,0c122.7,0,240.4,48.7,327.1,135.5
			c86.8,86.8,135.5,204.4,135.5,327.1l0,0c0,255.5-207.1,462.7-462.7,462.7l0,0C284,1018.6,76.9,811.5,76.9,556z"/>
		<path class="st3" d="M428.6,279.7h-21v-37.8h21v3.9h-16.6V258h15.7v3.8h-15.7v14h16.6V279.7z M454.6,272c0,1.8-0.5,3.3-1.4,4.6
			c-0.9,1.2-2.2,2.2-3.9,2.8c-1.7,0.6-3.7,0.9-6,0.9c-2,0-3.7-0.2-5.2-0.5c-1.5-0.3-2.7-0.7-3.8-1.3v-4c1.2,0.6,2.5,1.1,4.1,1.6
			c1.6,0.5,3.3,0.7,4.9,0.7c2.5,0,4.2-0.4,5.3-1.2c1.1-0.8,1.7-1.9,1.7-3.2c0-0.8-0.2-1.5-0.7-2c-0.4-0.6-1.2-1.2-2.2-1.7
			c-1-0.6-2.5-1.2-4.3-1.9c-1.8-0.7-3.4-1.4-4.7-2c-1.3-0.7-2.3-1.5-3.1-2.5c-0.7-1-1.1-2.3-1.1-3.9c0-2.4,1-4.2,2.9-5.5
			c2-1.3,4.5-2,7.7-2c1.7,0,3.3,0.2,4.8,0.5c1.5,0.3,2.9,0.8,4.2,1.3l-1.4,3.5c-1.2-0.5-2.4-0.9-3.8-1.2c-1.3-0.4-2.7-0.5-4-0.5
			c-2,0-3.5,0.3-4.6,1c-1.1,0.7-1.6,1.5-1.6,2.7c0,0.9,0.2,1.6,0.7,2.2c0.5,0.6,1.3,1.1,2.4,1.6c1.1,0.5,2.5,1.1,4.3,1.7
			c1.8,0.7,3.3,1.3,4.6,2c1.3,0.7,2.3,1.6,3,2.6C454.3,269.2,454.6,270.4,454.6,272z M470.7,276.7c0.7,0,1.4-0.1,2.2-0.2
			c0.7-0.1,1.3-0.3,1.8-0.4v3.4c-0.5,0.2-1.2,0.4-2.1,0.5c-0.9,0.2-1.7,0.3-2.6,0.3c-1.5,0-2.9-0.3-4.1-0.8
			c-1.2-0.5-2.2-1.4-2.9-2.7c-0.7-1.3-1.1-3-1.1-5.2v-16.8h-4v-2.1l4-1.7l1.7-6.2h2.6v6.6h8.3v3.4h-8.3v16.7c0,1.8,0.4,3.1,1.2,4
			C468.3,276.3,469.4,276.7,470.7,276.7z M503.9,251.4v28.4h-3.6l-0.6-4h-0.2c-0.6,1-1.4,1.8-2.3,2.5c-0.9,0.7-2,1.2-3.1,1.5
			c-1.2,0.4-2.4,0.5-3.7,0.5c-2.2,0-4.1-0.4-5.6-1.1c-1.5-0.7-2.6-1.9-3.4-3.4c-0.8-1.5-1.2-3.5-1.2-5.9v-18.6h4.4v18.3
			c0,2.3,0.5,4.1,1.6,5.3c1.1,1.2,2.7,1.7,4.9,1.7c2.1,0,3.8-0.4,5-1.2c1.3-0.8,2.2-2,2.7-3.5c0.6-1.6,0.8-3.5,0.8-5.7v-14.9H503.9z
			 M523.1,280.3c-3.6,0-6.4-1.2-8.5-3.7c-2.1-2.5-3.2-6.1-3.2-10.9c0-4.9,1.1-8.6,3.2-11.1c2.2-2.5,5-3.8,8.6-3.8
			c1.5,0,2.8,0.2,4,0.6c1.1,0.4,2.1,0.9,2.9,1.6c0.8,0.7,1.5,1.4,2,2.3h0.3c-0.1-0.5-0.1-1.3-0.2-2.2c-0.1-0.9-0.1-1.7-0.1-2.3
			v-11.4h4.3v40.3h-3.5l-0.7-4H532c-0.5,0.9-1.2,1.6-2,2.3c-0.8,0.7-1.8,1.2-2.9,1.6C525.9,280.1,524.6,280.3,523.1,280.3z
			 M523.8,276.7c3,0,5.2-0.9,6.4-2.6c1.3-1.7,1.9-4.3,1.9-7.7v-0.8c0-3.6-0.6-6.4-1.8-8.3c-1.2-1.9-3.3-2.9-6.5-2.9
			c-2.7,0-4.6,1-5.9,3.1c-1.3,2-2,4.8-2,8.3s0.7,6.2,2,8.1C519.1,275.7,521.1,276.7,523.8,276.7z M556,250.9c3.4,0,5.9,0.8,7.5,2.3
			c1.7,1.5,2.5,3.9,2.5,7.3v19.3h-3.1l-0.8-4.2h-0.2c-0.8,1-1.6,1.9-2.5,2.6c-0.9,0.7-1.9,1.2-3,1.6c-1.1,0.4-2.5,0.5-4.2,0.5
			c-1.7,0-3.2-0.3-4.6-0.9c-1.3-0.6-2.4-1.5-3.2-2.8c-0.8-1.2-1.2-2.8-1.2-4.7c0-2.8,1.1-5,3.3-6.5c2.2-1.5,5.7-2.4,10.3-2.5
			l4.9-0.2V261c0-2.5-0.5-4.2-1.6-5.2c-1-1-2.5-1.5-4.4-1.5c-1.5,0-2.9,0.2-4.3,0.7c-1.3,0.4-2.6,0.9-3.8,1.5l-1.3-3.3
			c1.3-0.7,2.7-1.2,4.4-1.6C552.4,251.2,554.2,250.9,556,250.9z M561.8,265.7l-4.3,0.2c-3.5,0.1-6,0.7-7.5,1.8
			c-1.5,1-2.2,2.4-2.2,4.3c0,1.6,0.5,2.8,1.5,3.6c1,0.8,2.3,1.2,3.9,1.2c2.5,0,4.6-0.7,6.2-2.1c1.6-1.4,2.4-3.5,2.4-6.3V265.7z
			 M588.3,250.8c3.3,0,5.9,0.8,7.6,2.5c1.7,1.7,2.6,4.3,2.6,7.9v18.5h-4.3v-18.2c0-2.4-0.5-4.1-1.6-5.3c-1.1-1.2-2.7-1.8-4.9-1.8
			c-3.1,0-5.3,0.9-6.6,2.7c-1.3,1.8-1.9,4.4-1.9,7.7v14.9h-4.3v-28.4h3.5l0.7,4.1h0.2c0.6-1,1.3-1.8,2.3-2.5c0.9-0.7,2-1.2,3.2-1.6
			C585.8,251,587,250.8,588.3,250.8z M616.5,276.7c0.7,0,1.4-0.1,2.2-0.2s1.3-0.3,1.8-0.4v3.4c-0.5,0.2-1.2,0.4-2.1,0.5
			c-0.9,0.2-1.7,0.3-2.6,0.3c-1.5,0-2.9-0.3-4.1-0.8c-1.2-0.5-2.2-1.4-2.9-2.7c-0.7-1.3-1.1-3-1.1-5.2v-16.8h-4v-2.1l4-1.7l1.7-6.2
			h2.6v6.6h8.3v3.4H612v16.7c0,1.8,0.4,3.1,1.2,4C614.1,276.3,615.2,276.7,616.5,276.7z M637.2,250.8c2.4,0,4.5,0.5,6.2,1.6
			c1.7,1.1,3,2.6,4,4.5c0.9,1.9,1.4,4.2,1.4,6.7v2.7h-19.6c0,3.3,0.8,5.8,2.4,7.6c1.6,1.7,3.9,2.6,6.8,2.6c1.8,0,3.4-0.2,4.8-0.5
			c1.4-0.3,2.8-0.8,4.4-1.5v3.8c-1.5,0.7-2.9,1.1-4.3,1.4c-1.4,0.3-3,0.4-5,0.4c-2.7,0-5.1-0.6-7.1-1.7c-2-1.1-3.6-2.8-4.7-4.9
			c-1.1-2.2-1.7-4.8-1.7-7.9c0-3,0.5-5.7,1.6-7.9c1-2.2,2.5-4,4.4-5.2S634.7,250.8,637.2,250.8z M637.2,254.4
			c-2.3,0-4.1,0.8-5.5,2.3c-1.4,1.5-2.2,3.6-2.4,6.3h15.1c0-1.7-0.3-3.2-0.8-4.4c-0.5-1.3-1.3-2.3-2.3-3
			C640.1,254.7,638.8,254.4,637.2,254.4z M674.4,272c0,1.8-0.5,3.3-1.4,4.6c-0.9,1.2-2.2,2.2-3.9,2.8c-1.7,0.6-3.7,0.9-6,0.9
			c-2,0-3.7-0.2-5.2-0.5c-1.5-0.3-2.7-0.7-3.8-1.3v-4c1.2,0.6,2.5,1.1,4.1,1.6c1.6,0.5,3.3,0.7,4.9,0.7c2.5,0,4.2-0.4,5.3-1.2
			c1.1-0.8,1.7-1.9,1.7-3.2c0-0.8-0.2-1.5-0.7-2c-0.4-0.6-1.2-1.2-2.2-1.7c-1-0.6-2.5-1.2-4.3-1.9c-1.8-0.7-3.4-1.4-4.7-2
			c-1.3-0.7-2.3-1.5-3.1-2.5c-0.7-1-1.1-2.3-1.1-3.9c0-2.4,1-4.2,2.9-5.5c2-1.3,4.5-2,7.7-2c1.7,0,3.3,0.2,4.8,0.5
			c1.5,0.3,2.9,0.8,4.2,1.3l-1.4,3.5c-1.2-0.5-2.4-0.9-3.8-1.2c-1.3-0.4-2.7-0.5-4-0.5c-2,0-3.5,0.3-4.6,1c-1.1,0.7-1.6,1.5-1.6,2.7
			c0,0.9,0.2,1.6,0.7,2.2c0.5,0.6,1.3,1.1,2.4,1.6c1.1,0.5,2.5,1.1,4.3,1.7c1.8,0.7,3.3,1.3,4.6,2c1.3,0.7,2.3,1.6,3,2.6
			C674,269.2,674.4,270.4,674.4,272z"/>
		<path class="st4" d="M205.7,651.6L205.7,651.6c0-186.2,151-337.2,337.2-337.2l0,0c89.4,0,175.2,35.5,238.5,98.8
			s98.8,149,98.8,238.5l0,0c0,186.2-151,337.2-337.2,337.2l0,0C356.7,988.8,205.7,837.9,205.7,651.6z"/>
		<path class="st2" d="M205.7,651.6L205.7,651.6c0-186.2,151-337.2,337.2-337.2l0,0c89.4,0,175.2,35.5,238.5,98.8
			s98.8,149,98.8,238.5l0,0c0,186.2-151,337.2-337.2,337.2l0,0C356.7,988.8,205.7,837.9,205.7,651.6z"/>
		<path class="st5" d="M411.9,426.3c4.9,0,8.5,0.9,10.7,2.8c2.2,1.9,3.4,4.6,3.4,8.2c0,1.6-0.3,3.1-0.8,4.6
			c-0.5,1.4-1.3,2.7-2.5,3.8c-1.2,1.1-2.7,2-4.6,2.6c-1.9,0.6-4.2,0.9-7,0.9h-4.6v14.9H402v-37.8H411.9z M411.5,430h-5.1v15.5h4.1
			c2.4,0,4.4-0.3,6-0.8c1.6-0.5,2.8-1.4,3.6-2.5c0.8-1.2,1.2-2.7,1.2-4.7c0-2.5-0.8-4.4-2.4-5.6C417.4,430.6,414.9,430,411.5,430z
			 M446.1,435.2c0.6,0,1.2,0,1.8,0.1c0.6,0.1,1.2,0.1,1.6,0.3l-0.5,4c-0.5-0.1-1-0.2-1.6-0.3c-0.6-0.1-1.1-0.1-1.6-0.1
			c-1.2,0-2.2,0.2-3.2,0.7c-1,0.4-1.9,1.1-2.7,2c-0.7,0.9-1.3,1.9-1.8,3.1c-0.4,1.2-0.7,2.5-0.7,4v15.2h-4.3v-28.4h3.6l0.5,5.2h0.2
			c0.6-1.1,1.3-2,2.1-2.9c0.8-0.9,1.8-1.6,2.9-2.1C443.6,435.5,444.8,435.2,446.1,435.2z M479.4,449.8c0,2.3-0.3,4.4-0.9,6.3
			c-0.6,1.8-1.5,3.4-2.6,4.7c-1.1,1.2-2.5,2.2-4.1,2.9c-1.6,0.7-3.4,1-5.5,1c-1.9,0-3.6-0.3-5.2-1c-1.6-0.7-2.9-1.6-4.1-2.9
			c-1.2-1.3-2.1-2.8-2.7-4.7c-0.6-1.8-0.9-3.9-0.9-6.3c0-3.1,0.5-5.7,1.6-7.9c1.1-2.2,2.6-3.9,4.5-5c2-1.2,4.3-1.7,7-1.7
			c2.6,0,4.9,0.6,6.8,1.7c2,1.2,3.5,2.8,4.5,5C478.8,444.1,479.4,446.8,479.4,449.8z M457.8,449.8c0,2.3,0.3,4.3,0.9,5.9
			c0.6,1.7,1.6,2.9,2.8,3.9c1.3,0.9,2.9,1.4,4.9,1.4c2,0,3.6-0.5,4.8-1.4c1.3-0.9,2.2-2.2,2.8-3.9c0.6-1.7,0.9-3.7,0.9-5.9
			c0-2.2-0.3-4.2-0.9-5.8c-0.6-1.7-1.5-2.9-2.8-3.8c-1.2-0.9-2.9-1.4-4.9-1.4c-3,0-5.1,1-6.5,2.9
			C458.5,443.7,457.8,446.4,457.8,449.8z M499.5,439.1h-7.1v25h-4.3v-25H483V437l5.1-1.4v-1.9c0-2.4,0.3-4.3,1-5.8
			c0.7-1.5,1.7-2.6,3.1-3.3c1.4-0.7,3-1.1,5-1.1c1.1,0,2.1,0.1,3,0.3c0.9,0.2,1.7,0.4,2.4,0.6l-1.1,3.4c-0.6-0.2-1.3-0.4-2-0.5
			c-0.7-0.2-1.5-0.3-2.2-0.3c-1.7,0-2.9,0.5-3.7,1.6c-0.8,1.1-1.2,2.7-1.2,5v2.1h7.1V439.1z M515.6,435.2c2.4,0,4.5,0.5,6.2,1.6
			c1.7,1.1,3,2.6,4,4.5c0.9,1.9,1.4,4.2,1.4,6.7v2.7h-19.6c0,3.3,0.8,5.8,2.4,7.6c1.6,1.7,3.9,2.6,6.8,2.6c1.8,0,3.4-0.2,4.8-0.5
			c1.4-0.3,2.8-0.8,4.4-1.5v3.8c-1.5,0.7-2.9,1.1-4.3,1.4c-1.4,0.3-3,0.4-5,0.4c-2.7,0-5.1-0.6-7.1-1.7c-2-1.1-3.6-2.8-4.7-4.9
			c-1.1-2.2-1.7-4.8-1.7-7.9c0-3,0.5-5.7,1.6-7.9c1-2.2,2.5-4,4.4-5.2C510.8,435.8,513,435.2,515.6,435.2z M515.5,438.7
			c-2.3,0-4.1,0.8-5.5,2.3c-1.4,1.5-2.2,3.6-2.4,6.3h15.1c0-1.7-0.3-3.2-0.8-4.4c-0.5-1.3-1.3-2.3-2.3-3
			C518.5,439.1,517.1,438.7,515.5,438.7z M552.7,456.3c0,1.8-0.5,3.3-1.4,4.6c-0.9,1.2-2.2,2.2-3.9,2.8s-3.7,0.9-6,0.9
			c-2,0-3.7-0.2-5.2-0.5c-1.5-0.3-2.7-0.7-3.8-1.3v-4c1.2,0.6,2.5,1.1,4.1,1.6c1.6,0.5,3.3,0.7,4.9,0.7c2.5,0,4.2-0.4,5.3-1.2
			c1.1-0.8,1.7-1.9,1.7-3.2c0-0.8-0.2-1.5-0.7-2c-0.4-0.6-1.2-1.2-2.2-1.7c-1-0.6-2.5-1.2-4.3-1.9c-1.8-0.7-3.4-1.4-4.7-2
			c-1.3-0.7-2.3-1.5-3.1-2.5c-0.7-1-1.1-2.3-1.1-3.9c0-2.4,1-4.2,2.9-5.5c2-1.3,4.5-2,7.7-2c1.7,0,3.3,0.2,4.8,0.5
			c1.5,0.3,2.9,0.8,4.2,1.3l-1.4,3.5c-1.2-0.5-2.4-0.9-3.8-1.2c-1.3-0.4-2.7-0.5-4-0.5c-2,0-3.5,0.3-4.6,1c-1.1,0.7-1.6,1.5-1.6,2.7
			c0,0.9,0.2,1.6,0.7,2.2c0.5,0.6,1.3,1.1,2.4,1.6c1.1,0.5,2.5,1.1,4.3,1.7c1.8,0.7,3.3,1.3,4.6,2c1.3,0.7,2.3,1.6,3,2.6
			C552.4,453.5,552.7,454.8,552.7,456.3z M578,456.3c0,1.8-0.5,3.3-1.4,4.6c-0.9,1.2-2.2,2.2-3.9,2.8s-3.7,0.9-6,0.9
			c-2,0-3.7-0.2-5.2-0.5c-1.5-0.3-2.7-0.7-3.8-1.3v-4c1.2,0.6,2.5,1.1,4.1,1.6c1.6,0.5,3.3,0.7,4.9,0.7c2.5,0,4.2-0.4,5.3-1.2
			c1.1-0.8,1.7-1.9,1.7-3.2c0-0.8-0.2-1.5-0.7-2c-0.4-0.6-1.2-1.2-2.2-1.7c-1-0.6-2.5-1.2-4.3-1.9c-1.8-0.7-3.4-1.4-4.7-2
			c-1.3-0.7-2.3-1.5-3.1-2.5c-0.7-1-1.1-2.3-1.1-3.9c0-2.4,1-4.2,2.9-5.5c2-1.3,4.5-2,7.7-2c1.7,0,3.3,0.2,4.8,0.5
			c1.5,0.3,2.9,0.8,4.2,1.3l-1.4,3.5c-1.2-0.5-2.4-0.9-3.8-1.2c-1.3-0.4-2.7-0.5-4-0.5c-2,0-3.5,0.3-4.6,1c-1.1,0.7-1.6,1.5-1.6,2.7
			c0,0.9,0.2,1.6,0.7,2.2c0.5,0.6,1.3,1.1,2.4,1.6c1.1,0.5,2.5,1.1,4.3,1.7c1.8,0.7,3.3,1.3,4.6,2c1.3,0.7,2.3,1.6,3,2.6
			C577.7,453.5,578,454.8,578,456.3z M609.4,449.8c0,2.3-0.3,4.4-0.9,6.3c-0.6,1.8-1.5,3.4-2.6,4.7c-1.1,1.2-2.5,2.2-4.1,2.9
			c-1.6,0.7-3.4,1-5.5,1c-1.9,0-3.6-0.3-5.2-1c-1.6-0.7-2.9-1.6-4.1-2.9c-1.2-1.3-2.1-2.8-2.7-4.7c-0.6-1.8-0.9-3.9-0.9-6.3
			c0-3.1,0.5-5.7,1.6-7.9c1.1-2.2,2.6-3.9,4.5-5c2-1.2,4.3-1.7,7-1.7c2.6,0,4.9,0.6,6.8,1.7c2,1.2,3.5,2.8,4.5,5
			C608.8,444.1,609.4,446.8,609.4,449.8z M587.8,449.8c0,2.3,0.3,4.3,0.9,5.9c0.6,1.7,1.6,2.9,2.8,3.9c1.3,0.9,2.9,1.4,4.9,1.4
			c2,0,3.6-0.5,4.8-1.4c1.3-0.9,2.2-2.2,2.8-3.9c0.6-1.7,0.9-3.7,0.9-5.9c0-2.2-0.3-4.2-0.9-5.8c-0.6-1.7-1.5-2.9-2.8-3.8
			c-1.2-0.9-2.9-1.4-4.9-1.4c-3,0-5.1,1-6.5,2.9C588.5,443.7,587.8,446.4,587.8,449.8z M629.7,435.2c0.6,0,1.2,0,1.8,0.1
			c0.6,0.1,1.2,0.1,1.6,0.3l-0.5,4c-0.5-0.1-1-0.2-1.6-0.3c-0.6-0.1-1.1-0.1-1.6-0.1c-1.2,0-2.2,0.2-3.2,0.7c-1,0.4-1.9,1.1-2.7,2
			c-0.7,0.9-1.3,1.9-1.8,3.1c-0.4,1.2-0.7,2.5-0.7,4v15.2h-4.3v-28.4h3.6l0.5,5.2h0.2c0.6-1.1,1.3-2,2.1-2.9
			c0.8-0.9,1.8-1.6,2.9-2.1C627.2,435.5,628.4,435.2,629.7,435.2z M649.4,435.2c2.4,0,4.5,0.5,6.2,1.6c1.7,1.1,3,2.6,4,4.5
			c0.9,1.9,1.4,4.2,1.4,6.7v2.7h-19.6c0,3.3,0.8,5.8,2.4,7.6c1.6,1.7,3.9,2.6,6.8,2.6c1.8,0,3.4-0.2,4.8-0.5
			c1.4-0.3,2.8-0.8,4.4-1.5v3.8c-1.5,0.7-2.9,1.1-4.3,1.4c-1.4,0.3-3,0.4-5,0.4c-2.7,0-5.1-0.6-7.1-1.7c-2-1.1-3.6-2.8-4.7-4.9
			c-1.1-2.2-1.7-4.8-1.7-7.9c0-3,0.5-5.7,1.6-7.9c1-2.2,2.5-4,4.4-5.2C644.7,435.8,646.9,435.2,649.4,435.2z M649.4,438.7
			c-2.3,0-4.1,0.8-5.5,2.3c-1.4,1.5-2.2,3.6-2.4,6.3h15.1c0-1.7-0.3-3.2-0.8-4.4c-0.5-1.3-1.3-2.3-2.3-3
			C652.3,439.1,651,438.7,649.4,438.7z M686.6,456.3c0,1.8-0.5,3.3-1.4,4.6c-0.9,1.2-2.2,2.2-3.9,2.8c-1.7,0.6-3.7,0.9-6,0.9
			c-2,0-3.7-0.2-5.2-0.5c-1.5-0.3-2.7-0.7-3.8-1.3v-4c1.2,0.6,2.5,1.1,4.1,1.6c1.6,0.5,3.3,0.7,4.9,0.7c2.5,0,4.2-0.4,5.3-1.2
			c1.1-0.8,1.7-1.9,1.7-3.2c0-0.8-0.2-1.5-0.7-2c-0.4-0.6-1.2-1.2-2.2-1.7c-1-0.6-2.5-1.2-4.3-1.9c-1.8-0.7-3.4-1.4-4.7-2
			c-1.3-0.7-2.3-1.5-3.1-2.5c-0.7-1-1.1-2.3-1.1-3.9c0-2.4,1-4.2,2.9-5.5c2-1.3,4.5-2,7.7-2c1.7,0,3.3,0.2,4.8,0.5
			c1.5,0.3,2.9,0.8,4.2,1.3l-1.4,3.5c-1.2-0.5-2.4-0.9-3.8-1.2c-1.3-0.4-2.7-0.5-4-0.5c-2,0-3.5,0.3-4.6,1c-1.1,0.7-1.6,1.5-1.6,2.7
			c0,0.9,0.2,1.6,0.7,2.2c0.5,0.6,1.3,1.1,2.4,1.6c1.1,0.5,2.5,1.1,4.3,1.7c1.8,0.7,3.3,1.3,4.6,2c1.3,0.7,2.3,1.6,3,2.6
			C686.2,453.5,686.6,454.8,686.6,456.3z"/>
		<path class="st1" d="M321.5,726.8L321.5,726.8c0-127.7,103.6-231.3,231.3-231.3l0,0c61.3,0,120.2,24.4,163.6,67.7
			c43.4,43.4,67.7,102.2,67.7,163.6l0,0c0,127.7-103.6,231.3-231.3,231.3l0,0C425.1,958.1,321.5,854.6,321.5,726.8z"/>
		<path class="st2" d="M321.5,726.8L321.5,726.8c0-127.7,103.6-231.3,231.3-231.3l0,0c61.3,0,120.2,24.4,163.6,67.7
			c43.4,43.4,67.7,102.2,67.7,163.6l0,0c0,127.7-103.6,231.3-231.3,231.3l0,0C425.1,958.1,321.5,854.6,321.5,726.8z"/>
		<path class="st3" d="M422.8,732.1l4.3,1.1c-0.9,3.6-2.5,6.3-4.9,8.1c-2.3,1.9-5.2,2.8-8.6,2.8c-3.5,0-6.4-0.7-8.6-2.1
			c-2.2-1.5-3.9-3.5-5-6.2c-1.2-2.7-1.7-5.6-1.7-8.7c0-3.4,0.7-6.4,2-8.9c1.3-2.5,3.1-4.4,5.5-5.7c2.4-1.3,5-2,7.9-2
			c3.3,0,6,0.8,8.2,2.5s3.8,4,4.7,7l-4.3,1c-0.7-2.4-1.8-4.1-3.3-5.2c-1.4-1.1-3.2-1.6-5.4-1.6c-2.5,0-4.6,0.6-6.3,1.8
			c-1.7,1.2-2.9,2.8-3.6,4.8c-0.7,2-1,4.1-1,6.2c0,2.8,0.4,5.2,1.2,7.3c0.8,2,2.1,3.6,3.8,4.6c1.7,1,3.6,1.5,5.5,1.5
			c2.4,0,4.4-0.7,6.1-2.1C421.1,736.8,422.2,734.8,422.8,732.1z M430.4,731.7c0-4.4,1.2-7.6,3.6-9.7c2-1.7,4.5-2.6,7.4-2.6
			c3.3,0,5.9,1.1,7.9,3.2c2.1,2.1,3.1,5,3.1,8.8c0,3-0.5,5.4-1.4,7.1c-0.9,1.7-2.2,3.1-4,4.1c-1.7,0.9-3.6,1.4-5.7,1.4
			c-3.3,0-5.9-1.1-8-3.2C431.5,738.7,430.4,735.6,430.4,731.7z M434.6,731.7c0,3,0.7,5.3,2,6.8c1.3,1.5,3,2.3,5,2.3
			c2,0,3.6-0.8,4.9-2.3c1.3-1.5,2-3.8,2-6.9c0-2.9-0.7-5.1-2-6.6c-1.3-1.5-2.9-2.3-4.9-2.3c-2,0-3.6,0.8-5,2.3
			C435.2,726.4,434.6,728.6,434.6,731.7z M455.7,731.7c0-4.4,1.2-7.6,3.6-9.7c2-1.7,4.5-2.6,7.4-2.6c3.3,0,5.9,1.1,7.9,3.2
			c2.1,2.1,3.1,5,3.1,8.8c0,3-0.5,5.4-1.4,7.1c-0.9,1.7-2.2,3.1-4,4.1c-1.7,0.9-3.6,1.4-5.7,1.4c-3.3,0-5.9-1.1-8-3.2
			C456.8,738.7,455.7,735.6,455.7,731.7z M459.9,731.7c0,3,0.7,5.3,2,6.8c1.3,1.5,3,2.3,5,2.3c2,0,3.6-0.8,4.9-2.3
			c1.3-1.5,2-3.8,2-6.9c0-2.9-0.7-5.1-2-6.6c-1.3-1.5-2.9-2.3-4.9-2.3c-2,0-3.6,0.8-5,2.3C460.5,726.4,459.9,728.6,459.9,731.7z
			 M482.5,743.5v-23.6h3.6v3.6c0.9-1.7,1.8-2.8,2.5-3.3c0.8-0.5,1.6-0.8,2.6-0.8c1.3,0,2.7,0.4,4.1,1.3l-1.4,3.7
			c-1-0.6-2-0.8-2.9-0.8c-0.9,0-1.6,0.3-2.4,0.8c-0.7,0.5-1.2,1.2-1.5,2.2c-0.4,1.4-0.7,3-0.7,4.7v12.3H482.5z M512.9,743.5v-3
			c-1.5,2.3-3.7,3.5-6.6,3.5c-1.9,0-3.6-0.5-5.2-1.6c-1.6-1-2.8-2.5-3.7-4.4c-0.9-1.9-1.3-4-1.3-6.4c0-2.4,0.4-4.5,1.2-6.4
			c0.8-1.9,2-3.4,3.6-4.4c1.6-1,3.3-1.6,5.3-1.6c1.4,0,2.7,0.3,3.8,0.9c1.1,0.6,2,1.4,2.7,2.4v-11.7h4v32.5H512.9z M500.3,731.7
			c0,3,0.6,5.3,1.9,6.8c1.3,1.5,2.8,2.2,4.5,2.2c1.7,0,3.2-0.7,4.4-2.1c1.2-1.5,1.9-3.6,1.9-6.6c0-3.2-0.6-5.6-1.9-7.1
			c-1.2-1.5-2.8-2.3-4.6-2.3c-1.8,0-3.3,0.7-4.4,2.2C500.9,726.3,500.3,728.6,500.3,731.7z M539.1,735.9l4.1,0.5
			c-0.7,2.4-1.9,4.3-3.6,5.6c-1.7,1.3-4,2-6.7,2c-3.5,0-6.2-1.1-8.2-3.2c-2-2.1-3-5.1-3-8.9c0-4,1-7,3.1-9.2c2-2.2,4.7-3.3,7.9-3.3
			c3.1,0,5.7,1.1,7.7,3.2c2,2.1,3,5.1,3,9c0,0.2,0,0.6,0,1.1h-17.6c0.1,2.6,0.9,4.6,2.2,6c1.3,1.4,3,2,4.9,2c1.5,0,2.7-0.4,3.8-1.2
			C537.7,738.8,538.5,737.6,539.1,735.9z M526,729.4h13.1c-0.2-2-0.7-3.5-1.5-4.4c-1.3-1.5-2.9-2.3-4.9-2.3c-1.8,0-3.4,0.6-4.7,1.9
			C526.8,725.7,526.1,727.3,526,729.4z M548.2,743.5v-23.6h3.6v3.3c1.7-2.6,4.2-3.9,7.5-3.9c1.4,0,2.7,0.3,3.9,0.8s2.1,1.2,2.7,2
			c0.6,0.8,1,1.8,1.2,3c0.1,0.7,0.2,2,0.2,3.9v14.5h-4v-14.3c0-1.6-0.2-2.8-0.5-3.6c-0.3-0.8-0.8-1.5-1.6-2
			c-0.8-0.5-1.7-0.7-2.8-0.7c-1.7,0-3.2,0.5-4.4,1.6c-1.2,1.1-1.8,3.1-1.8,6.1v12.9H548.2z M588.9,740.5c-1.5,1.3-2.9,2.2-4.3,2.7
			c-1.4,0.5-2.8,0.8-4.4,0.8c-2.6,0-4.6-0.6-6-1.9c-1.4-1.3-2.1-2.9-2.1-4.8c0-1.2,0.3-2.2,0.8-3.2c0.5-1,1.2-1.7,2-2.3
			c0.9-0.6,1.8-1,2.9-1.3c0.8-0.2,2-0.4,3.6-0.6c3.2-0.4,5.6-0.8,7.1-1.4c0-0.6,0-0.9,0-1.1c0-1.6-0.4-2.8-1.1-3.4
			c-1-0.9-2.6-1.4-4.6-1.4c-1.9,0-3.3,0.3-4.2,1c-0.9,0.7-1.5,1.8-2,3.5l-3.9-0.5c0.4-1.7,0.9-3,1.7-4c0.8-1,2-1.8,3.6-2.4
			c1.5-0.6,3.3-0.8,5.3-0.8c2,0,3.6,0.2,4.9,0.7c1.3,0.5,2.2,1.1,2.8,1.8s1,1.6,1.2,2.7c0.1,0.7,0.2,1.9,0.2,3.7v5.3
			c0,3.7,0.1,6.1,0.2,7.1c0.2,1,0.5,1.9,1,2.8h-4.2C589.3,742.6,589,741.7,588.9,740.5z M588.6,731.6c-1.5,0.6-3.6,1.1-6.5,1.5
			c-1.7,0.2-2.8,0.5-3.5,0.8c-0.7,0.3-1.2,0.7-1.6,1.3c-0.4,0.6-0.5,1.2-0.5,1.9c0,1.1,0.4,2,1.2,2.7c0.8,0.7,2,1.1,3.6,1.1
			c1.5,0,2.9-0.3,4.1-1c1.2-0.7,2.1-1.6,2.7-2.8c0.4-0.9,0.7-2.2,0.7-4V731.6z M614.1,743.5v-3c-1.5,2.3-3.7,3.5-6.6,3.5
			c-1.9,0-3.6-0.5-5.2-1.6c-1.6-1-2.8-2.5-3.7-4.4c-0.9-1.9-1.3-4-1.3-6.4c0-2.4,0.4-4.5,1.2-6.4c0.8-1.9,2-3.4,3.6-4.4
			c1.6-1,3.3-1.6,5.3-1.6c1.4,0,2.7,0.3,3.8,0.9c1.1,0.6,2,1.4,2.7,2.4v-11.7h4v32.5H614.1z M601.5,731.7c0,3,0.6,5.3,1.9,6.8
			c1.3,1.5,2.8,2.2,4.5,2.2c1.7,0,3.2-0.7,4.4-2.1c1.2-1.5,1.9-3.6,1.9-6.6c0-3.2-0.6-5.6-1.9-7.1c-1.2-1.5-2.8-2.3-4.6-2.3
			c-1.8,0-3.3,0.7-4.4,2.2C602.1,726.3,601.5,728.6,601.5,731.7z M622.6,731.7c0-4.4,1.2-7.6,3.6-9.7c2-1.7,4.5-2.6,7.4-2.6
			c3.3,0,5.9,1.1,7.9,3.2c2.1,2.1,3.1,5,3.1,8.8c0,3-0.5,5.4-1.4,7.1c-0.9,1.7-2.2,3.1-4,4.1c-1.7,0.9-3.6,1.4-5.7,1.4
			c-3.3,0-5.9-1.1-8-3.2C623.6,738.7,622.6,735.6,622.6,731.7z M626.7,731.7c0,3,0.7,5.3,2,6.8c1.3,1.5,3,2.3,5,2.3
			c2,0,3.6-0.8,4.9-2.3c1.3-1.5,2-3.8,2-6.9c0-2.9-0.7-5.1-2-6.6c-1.3-1.5-2.9-2.3-4.9-2.3c-2,0-3.6,0.8-5,2.3
			C627.4,726.4,626.7,728.6,626.7,731.7z M649.3,743.5v-23.6h3.6v3.6c0.9-1.7,1.8-2.8,2.5-3.3c0.8-0.5,1.6-0.8,2.6-0.8
			c1.3,0,2.7,0.4,4.1,1.3l-1.4,3.7c-1-0.6-2-0.8-2.9-0.8c-0.9,0-1.6,0.3-2.4,0.8c-0.7,0.5-1.2,1.2-1.5,2.2c-0.4,1.4-0.7,3-0.7,4.7
			v12.3H649.3z M679.9,740.5c-1.5,1.3-2.9,2.2-4.3,2.7c-1.4,0.5-2.8,0.8-4.4,0.8c-2.6,0-4.6-0.6-6-1.9c-1.4-1.3-2.1-2.9-2.1-4.8
			c0-1.2,0.3-2.2,0.8-3.2c0.5-1,1.2-1.7,2-2.3c0.9-0.6,1.8-1,2.9-1.3c0.8-0.2,2-0.4,3.6-0.6c3.2-0.4,5.6-0.8,7.1-1.4
			c0-0.6,0-0.9,0-1.1c0-1.6-0.4-2.8-1.1-3.4c-1-0.9-2.6-1.4-4.6-1.4c-1.9,0-3.3,0.3-4.2,1c-0.9,0.7-1.5,1.8-2,3.5l-3.9-0.5
			c0.4-1.7,0.9-3,1.7-4c0.8-1,2-1.8,3.6-2.4c1.5-0.6,3.3-0.8,5.3-0.8s3.6,0.2,4.9,0.7c1.3,0.5,2.2,1.1,2.8,1.8s1,1.6,1.2,2.7
			c0.1,0.7,0.2,1.9,0.2,3.7v5.3c0,3.7,0.1,6.1,0.2,7.1c0.2,1,0.5,1.9,1,2.8h-4.2C680.3,742.6,680,741.7,679.9,740.5z M679.6,731.6
			c-1.5,0.6-3.6,1.1-6.5,1.5c-1.7,0.2-2.8,0.5-3.5,0.8c-0.7,0.3-1.2,0.7-1.6,1.3c-0.4,0.6-0.5,1.2-0.5,1.9c0,1.1,0.4,2,1.2,2.7
			c0.8,0.7,2,1.1,3.6,1.1c1.5,0,2.9-0.3,4.1-1c1.2-0.7,2.1-1.6,2.7-2.8c0.4-0.9,0.7-2.2,0.7-4V731.6z M688.2,736.4l4-0.6
			c0.2,1.6,0.8,2.8,1.8,3.7c1,0.8,2.5,1.2,4.3,1.2c1.8,0,3.2-0.4,4.1-1.1c0.9-0.8,1.3-1.7,1.3-2.7c0-0.9-0.4-1.6-1.2-2.1
			c-0.6-0.4-1.9-0.8-4.1-1.3c-2.9-0.7-5-1.4-6.1-1.9c-1.1-0.6-2-1.3-2.6-2.3c-0.6-0.9-0.8-2-0.8-3.2c0-1.1,0.2-2,0.7-2.9
			c0.5-0.9,1.1-1.6,2-2.2c0.6-0.5,1.5-0.9,2.5-1.2c1.1-0.3,2.2-0.5,3.5-0.5c1.9,0,3.5,0.3,4.9,0.8s2.4,1.3,3.1,2.2
			c0.7,0.9,1.2,2.1,1.4,3.6l-3.9,0.5c-0.2-1.2-0.7-2.2-1.6-2.8c-0.9-0.7-2.1-1-3.6-1c-1.8,0-3.2,0.3-4,0.9c-0.8,0.6-1.2,1.3-1.2,2.1
			c0,0.5,0.2,1,0.5,1.4c0.3,0.4,0.8,0.8,1.5,1.1c0.4,0.1,1.6,0.5,3.6,1c2.8,0.7,4.8,1.4,5.9,1.9c1.1,0.5,2,1.2,2.6,2.1
			c0.7,0.9,1,2.1,1,3.4c0,1.3-0.4,2.6-1.2,3.8c-0.8,1.2-1.9,2.1-3.4,2.7c-1.5,0.7-3.1,1-4.9,1c-3.1,0-5.4-0.6-7-1.9
			C689.7,740.8,688.6,738.9,688.2,736.4z"/>
	</g>
</g>
</svg>
