<?xml version="1.0" encoding="utf-8"?>
<!-- Generator: Adobe Illustrator 26.0.1, SVG Export Plug-In . SVG Version: 6.00 Build 0)  -->
<svg version="1.1" id="Layer_1" xmlns="http://www.w3.org/2000/svg" xmlns:xlink="http://www.w3.org/1999/xlink" x="0px" y="0px"
	 viewBox="0 0 960 540" style="enable-background:new 0 0 960 540;" xml:space="preserve">
<style type="text/css">
	.st0{fill:#FFFFFF;stroke:#000000;stroke-miterlimit:10;}
	.st1{clip-path:url(#SVGID_00000020359028151632109910000012786083531549801395_);}
	.st2{fill-rule:evenodd;clip-rule:evenodd;fill:#9E9E9E;fill-opacity:0;}
	.st3{fill-rule:evenodd;clip-rule:evenodd;fill-opacity:0;}
	.st4{fill:none;stroke:#EC6F05;stroke-linejoin:round;stroke-miterlimit:10;}
	.st5{fill:#851F82;}
</style>
<rect y="0" class="st0" width="960" height="540"/>
<g>
	<defs>
		<rect id="SVGID_1_" y="0" width="960" height="540"/>
	</defs>
	<clipPath id="SVGID_00000120535526022855279810000018430105364713506215_">
		<use xlink:href="#SVGID_1_"  style="overflow:visible;"/>
	</clipPath>
	<g style="clip-path:url(#SVGID_00000120535526022855279810000018430105364713506215_);">
		<path class="st2" d="M0,0h960v540H0V0z"/>
		<path class="st3" d="M313.4,185L313.4,185c0-3.8,3.1-6.9,6.9-6.9h122.3c1.8,0,3.6,0.7,4.9,2c1.3,1.3,2,3.1,2,4.9v27.7
			c0,3.8-3.1,6.9-6.9,6.9H320.4c-3.8,0-6.9-3.1-6.9-6.9V185z"/>
		<path class="st4" d="M313.4,185L313.4,185c0-3.8,3.1-6.9,6.9-6.9h122.3c1.8,0,3.6,0.7,4.9,2c1.3,1.3,2,3.1,2,4.9v27.7
			c0,3.8-3.1,6.9-6.9,6.9H320.4c-3.8,0-6.9-3.1-6.9-6.9V185z"/>
		<path class="st5" d="M345.9,193.2c-0.3,0-0.7,0.1-0.9,0.2c-0.3,0.1-0.5,0.3-0.7,0.6c-0.2,0.2-0.3,0.6-0.4,0.9
			c-0.1,0.4-0.1,0.8-0.1,1.2c0,0.6,0.1,1.1,0.2,1.6c0.2,0.4,0.4,0.8,0.7,1c0.3,0.2,0.7,0.3,1.2,0.3c0.3,0,0.7,0,1-0.1
			c0.4-0.1,0.7-0.2,1.2-0.3v1.5c-0.4,0.2-0.8,0.3-1.1,0.3c-0.4,0.1-0.8,0.1-1.2,0.1c-0.9,0-1.6-0.2-2.2-0.5c-0.6-0.4-1-0.9-1.2-1.5
			c-0.3-0.7-0.4-1.4-0.4-2.3c0-0.7,0.1-1.2,0.2-1.8c0.2-0.5,0.4-1,0.8-1.4c0.3-0.4,0.8-0.7,1.3-0.9c0.5-0.2,1.1-0.3,1.7-0.3
			c0.4,0,0.9,0.1,1.3,0.2c0.4,0.1,0.8,0.2,1.2,0.4l-0.6,1.5c-0.3-0.2-0.6-0.3-1-0.4C346.5,193.2,346.2,193.2,345.9,193.2z
			 M355.7,197.1c0,0.5-0.1,1-0.2,1.5c-0.1,0.4-0.4,0.8-0.6,1.1c-0.3,0.3-0.6,0.5-1,0.7c-0.4,0.1-0.8,0.2-1.3,0.2
			c-0.5,0-0.9-0.1-1.3-0.2c-0.4-0.2-0.7-0.4-1-0.7c-0.3-0.3-0.5-0.6-0.7-1.1c-0.1-0.4-0.2-0.9-0.2-1.5c0-0.7,0.1-1.3,0.4-1.8
			c0.3-0.5,0.6-0.9,1.1-1.2c0.5-0.3,1-0.4,1.7-0.4c0.6,0,1.2,0.1,1.6,0.4c0.5,0.3,0.9,0.6,1.1,1.2
			C355.6,195.7,355.7,196.3,355.7,197.1z M351.2,197.1c0,0.4,0,0.8,0.1,1.1c0.1,0.3,0.2,0.5,0.4,0.7c0.2,0.1,0.5,0.2,0.8,0.2
			c0.3,0,0.6-0.1,0.8-0.2c0.2-0.2,0.3-0.4,0.4-0.7c0.1-0.3,0.1-0.7,0.1-1.1c0-0.4,0-0.8-0.1-1.1c-0.1-0.3-0.2-0.5-0.4-0.7
			c-0.2-0.1-0.5-0.2-0.8-0.2c-0.5,0-0.8,0.2-1,0.5C351.3,195.9,351.2,196.4,351.2,197.1z M364.9,193.7c0.8,0,1.3,0.2,1.7,0.6
			c0.4,0.4,0.6,1,0.6,1.8v4.3h-1.8v-3.8c0-0.5-0.1-0.8-0.2-1.1c-0.2-0.2-0.4-0.4-0.7-0.4c-0.5,0-0.8,0.2-1,0.5
			c-0.2,0.3-0.3,0.8-0.3,1.5v3.3h-1.8v-3.8c0-0.3,0-0.6-0.1-0.8c-0.1-0.2-0.2-0.4-0.3-0.5c-0.1-0.1-0.3-0.2-0.6-0.2
			c-0.3,0-0.6,0.1-0.8,0.2c-0.2,0.2-0.3,0.4-0.4,0.7c-0.1,0.3-0.1,0.7-0.1,1.2v3.1h-1.8v-6.5h1.4l0.2,0.8h0.1
			c0.1-0.2,0.3-0.4,0.5-0.5c0.2-0.1,0.4-0.2,0.7-0.3c0.2-0.1,0.5-0.1,0.7-0.1c0.5,0,0.9,0.1,1.2,0.2c0.3,0.2,0.6,0.4,0.8,0.7h0.2
			c0.2-0.3,0.5-0.6,0.8-0.7C364.1,193.8,364.5,193.7,364.9,193.7z M375,193.8v6.5h-1.4l-0.2-0.8h-0.1c-0.1,0.2-0.3,0.4-0.5,0.6
			c-0.2,0.1-0.4,0.2-0.7,0.3c-0.2,0.1-0.5,0.1-0.8,0.1c-0.5,0-0.9-0.1-1.2-0.2c-0.3-0.2-0.6-0.4-0.8-0.8c-0.2-0.4-0.3-0.8-0.3-1.4
			v-4.3h1.8v3.8c0,0.5,0.1,0.8,0.2,1.1c0.2,0.2,0.4,0.3,0.8,0.3c0.4,0,0.6-0.1,0.8-0.2c0.2-0.2,0.4-0.4,0.4-0.7
			c0.1-0.3,0.1-0.7,0.1-1.2v-3.1H375z M380.6,193.7c0.7,0,1.3,0.2,1.7,0.6c0.4,0.4,0.6,1,0.6,1.8v4.3h-1.8v-3.8
			c0-0.5-0.1-0.8-0.3-1.1c-0.2-0.2-0.4-0.4-0.8-0.4c-0.5,0-0.9,0.2-1.1,0.6c-0.2,0.4-0.3,0.9-0.3,1.6v3.1h-1.8v-6.5h1.4l0.2,0.8h0.1
			c0.1-0.2,0.3-0.4,0.5-0.5c0.2-0.1,0.4-0.2,0.7-0.3C380,193.7,380.3,193.7,380.6,193.7z M386.5,193.8v6.5h-1.8v-6.5H386.5z
			 M385.6,191.2c0.3,0,0.5,0.1,0.7,0.2c0.2,0.1,0.3,0.4,0.3,0.7c0,0.3-0.1,0.6-0.3,0.7c-0.2,0.1-0.4,0.2-0.7,0.2
			c-0.3,0-0.5-0.1-0.7-0.2c-0.2-0.1-0.3-0.4-0.3-0.7c0-0.3,0.1-0.6,0.3-0.7C385.1,191.3,385.4,191.2,385.6,191.2z M391,200.5
			c-0.6,0-1.2-0.1-1.7-0.4c-0.5-0.2-0.8-0.6-1-1.1c-0.2-0.5-0.3-1.1-0.3-1.9c0-0.8,0.1-1.5,0.4-2c0.3-0.5,0.6-0.9,1.1-1.1
			c0.5-0.2,1-0.4,1.7-0.4c0.5,0,0.8,0,1.2,0.1c0.3,0.1,0.6,0.2,0.9,0.3l-0.5,1.4c-0.3-0.1-0.5-0.2-0.8-0.3c-0.2-0.1-0.5-0.1-0.7-0.1
			c-0.3,0-0.6,0.1-0.8,0.2c-0.2,0.1-0.3,0.4-0.5,0.7c-0.1,0.3-0.2,0.7-0.2,1.1c0,0.4,0.1,0.8,0.2,1.1c0.1,0.3,0.3,0.5,0.5,0.6
			c0.2,0.1,0.5,0.2,0.8,0.2c0.4,0,0.7,0,1-0.1c0.3-0.1,0.6-0.2,0.8-0.4v1.5c-0.3,0.2-0.6,0.3-0.9,0.4
			C391.9,200.4,391.5,200.5,391,200.5z M397.2,193.7c0.9,0,1.5,0.2,2,0.6c0.5,0.4,0.7,1,0.7,1.8v4.4h-1.2l-0.3-0.9h0
			c-0.2,0.2-0.4,0.4-0.6,0.6c-0.2,0.1-0.4,0.3-0.7,0.3c-0.2,0.1-0.6,0.1-0.9,0.1c-0.4,0-0.7-0.1-1-0.2c-0.3-0.2-0.5-0.4-0.7-0.7
			c-0.2-0.3-0.3-0.7-0.3-1.2c0-0.7,0.2-1.2,0.7-1.5c0.5-0.3,1.2-0.5,2.2-0.6l1.1,0V196c0-0.3-0.1-0.6-0.3-0.8
			c-0.2-0.2-0.4-0.2-0.8-0.2c-0.3,0-0.6,0-0.9,0.1c-0.3,0.1-0.6,0.2-0.9,0.3l-0.6-1.2c0.4-0.2,0.7-0.3,1.2-0.4
			C396.3,193.7,396.8,193.7,397.2,193.7z M398.2,197.3l-0.7,0c-0.6,0-1,0.1-1.2,0.3c-0.2,0.2-0.3,0.4-0.3,0.8c0,0.3,0.1,0.5,0.2,0.6
			c0.2,0.1,0.4,0.2,0.6,0.2c0.4,0,0.7-0.1,1-0.3c0.3-0.2,0.4-0.6,0.4-1V197.3z M403.9,200.5c-0.7,0-1.3-0.3-1.8-0.9
			c-0.5-0.6-0.7-1.4-0.7-2.5c0-1.1,0.2-2,0.7-2.5c0.5-0.6,1.1-0.9,1.8-0.9c0.3,0,0.6,0,0.8,0.1c0.2,0.1,0.4,0.2,0.6,0.3
			c0.2,0.1,0.3,0.3,0.5,0.5h0c0-0.1,0-0.3-0.1-0.5c0-0.2,0-0.5,0-0.8v-2.1h1.8v9.1h-1.4l-0.3-0.8h-0.1c-0.1,0.2-0.3,0.3-0.4,0.5
			c-0.2,0.1-0.4,0.3-0.6,0.4C404.5,200.4,404.2,200.5,403.9,200.5z M404.5,199c0.5,0,0.8-0.1,1-0.4c0.2-0.3,0.3-0.7,0.3-1.3v-0.2
			c0-0.6-0.1-1.1-0.3-1.5c-0.2-0.3-0.6-0.5-1.1-0.5c-0.4,0-0.7,0.2-0.9,0.5c-0.2,0.3-0.3,0.8-0.3,1.5c0,0.6,0.1,1.1,0.3,1.4
			C403.8,198.9,404.1,199,404.5,199z M415.4,197.1c0,0.5-0.1,1-0.2,1.5c-0.1,0.4-0.4,0.8-0.6,1.1c-0.3,0.3-0.6,0.5-1,0.7
			c-0.4,0.1-0.8,0.2-1.3,0.2c-0.5,0-0.9-0.1-1.3-0.2c-0.4-0.2-0.7-0.4-1-0.7c-0.3-0.3-0.5-0.6-0.7-1.1c-0.1-0.4-0.2-0.9-0.2-1.5
			c0-0.7,0.1-1.3,0.4-1.8c0.3-0.5,0.6-0.9,1.1-1.2c0.5-0.3,1-0.4,1.7-0.4c0.6,0,1.2,0.1,1.6,0.4c0.5,0.3,0.9,0.6,1.1,1.2
			C415.2,195.7,415.4,196.3,415.4,197.1z M410.8,197.1c0,0.4,0,0.8,0.1,1.1c0.1,0.3,0.2,0.5,0.4,0.7c0.2,0.1,0.5,0.2,0.8,0.2
			c0.3,0,0.6-0.1,0.8-0.2c0.2-0.2,0.3-0.4,0.4-0.7c0.1-0.3,0.1-0.7,0.1-1.1c0-0.4,0-0.8-0.1-1.1c-0.1-0.3-0.2-0.5-0.4-0.7
			c-0.2-0.1-0.5-0.2-0.8-0.2c-0.5,0-0.8,0.2-1,0.5C410.9,195.9,410.8,196.4,410.8,197.1z M421.4,198.4c0,0.4-0.1,0.8-0.3,1.1
			c-0.2,0.3-0.5,0.5-0.9,0.7c-0.4,0.2-0.9,0.2-1.5,0.2c-0.5,0-0.9,0-1.2-0.1c-0.3-0.1-0.7-0.2-1-0.3v-1.5c0.4,0.2,0.7,0.3,1.1,0.4
			c0.4,0.1,0.8,0.2,1.1,0.2c0.4,0,0.6-0.1,0.8-0.2c0.2-0.1,0.2-0.2,0.2-0.4c0-0.1,0-0.2-0.1-0.3c-0.1-0.1-0.2-0.2-0.4-0.3
			c-0.2-0.1-0.5-0.3-0.9-0.4c-0.4-0.2-0.7-0.3-1-0.5c-0.3-0.2-0.5-0.4-0.6-0.6c-0.1-0.2-0.2-0.6-0.2-0.9c0-0.6,0.2-1.1,0.7-1.4
			c0.5-0.3,1.1-0.5,1.9-0.5c0.4,0,0.8,0,1.2,0.1c0.4,0.1,0.8,0.2,1.1,0.4l-0.5,1.3c-0.3-0.1-0.6-0.2-0.9-0.3
			c-0.3-0.1-0.6-0.1-0.9-0.1c-0.3,0-0.5,0-0.6,0.1c-0.1,0.1-0.2,0.2-0.2,0.3c0,0.1,0,0.2,0.1,0.3c0.1,0.1,0.2,0.2,0.4,0.3
			c0.2,0.1,0.5,0.2,0.9,0.4c0.4,0.2,0.7,0.3,1,0.5c0.3,0.2,0.5,0.4,0.6,0.6C421.3,197.7,421.4,198,421.4,198.4z"/>
		<path class="st3" d="M155.6,184.6L155.6,184.6c0-3.8,3.1-6.9,6.9-6.9h122.3c1.8,0,3.6,0.7,4.9,2c1.3,1.3,2,3.1,2,4.9v27.7
			c0,3.8-3.1,6.9-6.9,6.9H162.5c-3.8,0-6.9-3.1-6.9-6.9V184.6z"/>
		<path class="st4" d="M155.6,184.6L155.6,184.6c0-3.8,3.1-6.9,6.9-6.9h122.3c1.8,0,3.6,0.7,4.9,2c1.3,1.3,2,3.1,2,4.9v27.7
			c0,3.8-3.1,6.9-6.9,6.9H162.5c-3.8,0-6.9-3.1-6.9-6.9V184.6z"/>
		<path class="st5" d="M189.3,203.2l-2.3-7.5H187c0,0.2,0,0.4,0,0.8c0,0.4,0,0.7,0,1.1c0,0.4,0,0.8,0,1.1v4.4h-1.8v-9.5h2.7l2.3,7.3
			h0l2.4-7.3h2.8v9.5h-1.9v-4.5c0-0.3,0-0.6,0-1c0-0.4,0-0.8,0-1.1c0-0.4,0-0.6,0-0.8h-0.1l-2.5,7.5H189.3z M200.7,195.8
			c0.7,0,1.2,0.1,1.7,0.4c0.5,0.2,0.9,0.6,1.1,1.1c0.3,0.5,0.4,1.1,0.4,1.8v1h-4.7c0,0.6,0.2,1,0.5,1.3c0.3,0.3,0.8,0.5,1.3,0.5
			c0.5,0,0.9,0,1.3-0.1c0.4-0.1,0.8-0.2,1.2-0.4v1.5c-0.4,0.2-0.7,0.3-1.1,0.4c-0.4,0.1-0.9,0.1-1.4,0.1c-0.7,0-1.4-0.1-1.9-0.4
			c-0.6-0.3-1-0.7-1.3-1.2c-0.3-0.6-0.5-1.2-0.5-2.1c0-0.9,0.1-1.6,0.4-2.1c0.3-0.6,0.7-1,1.2-1.3C199.4,196,200,195.8,200.7,195.8z
			 M200.7,197.2c-0.4,0-0.7,0.1-1,0.4c-0.2,0.2-0.4,0.6-0.4,1.2h2.8c0-0.3-0.1-0.6-0.2-0.8c-0.1-0.2-0.3-0.4-0.5-0.5
			C201.3,197.3,201,197.2,200.7,197.2z M212.3,196v7.3h-1.5l-0.3-0.9h-0.1c-0.2,0.2-0.4,0.5-0.6,0.6c-0.2,0.2-0.5,0.3-0.8,0.3
			c-0.3,0.1-0.6,0.1-0.9,0.1c-0.5,0-1-0.1-1.4-0.3c-0.4-0.2-0.7-0.5-0.9-0.9c-0.2-0.4-0.3-0.9-0.3-1.5V196h2v4.2
			c0,0.5,0.1,0.9,0.3,1.2c0.2,0.3,0.5,0.4,0.9,0.4c0.4,0,0.7-0.1,1-0.3c0.2-0.2,0.4-0.5,0.5-0.8c0.1-0.4,0.1-0.8,0.1-1.3V196H212.3z
			 M219.4,201.1c0,0.5-0.1,0.9-0.4,1.2c-0.2,0.3-0.6,0.6-1,0.8c-0.5,0.2-1,0.2-1.7,0.2c-0.5,0-0.9,0-1.3-0.1
			c-0.4-0.1-0.7-0.2-1.1-0.3v-1.6c0.4,0.2,0.8,0.3,1.3,0.4c0.5,0.1,0.9,0.2,1.2,0.2c0.4,0,0.7-0.1,0.8-0.2c0.2-0.1,0.2-0.3,0.2-0.5
			c0-0.1,0-0.2-0.1-0.3c-0.1-0.1-0.2-0.2-0.4-0.3s-0.6-0.3-1-0.5c-0.4-0.2-0.8-0.4-1.1-0.6c-0.3-0.2-0.5-0.4-0.7-0.7
			c-0.1-0.3-0.2-0.6-0.2-1c0-0.7,0.3-1.2,0.8-1.5c0.5-0.3,1.2-0.5,2.1-0.5c0.4,0,0.9,0,1.3,0.1c0.4,0.1,0.8,0.2,1.3,0.4l-0.6,1.4
			c-0.4-0.2-0.7-0.3-1-0.4c-0.3-0.1-0.6-0.2-1-0.2c-0.3,0-0.5,0-0.7,0.1c-0.1,0.1-0.2,0.2-0.2,0.3c0,0.1,0,0.2,0.1,0.3
			c0.1,0.1,0.2,0.2,0.4,0.3c0.2,0.1,0.5,0.2,1,0.4c0.4,0.2,0.8,0.3,1.1,0.5c0.3,0.2,0.5,0.4,0.7,0.7
			C219.4,200.3,219.4,200.6,219.4,201.1z M226.7,203.4c-0.8,0-1.5-0.3-2-1c-0.5-0.6-0.8-1.6-0.8-2.8c0-1.2,0.3-2.2,0.8-2.8
			c0.5-0.6,1.2-1,2-1c0.4,0,0.7,0,0.9,0.1c0.3,0.1,0.5,0.2,0.7,0.4c0.2,0.2,0.4,0.3,0.5,0.5h0.1c0-0.1-0.1-0.3-0.1-0.6
			c0-0.3,0-0.6,0-0.8v-2.3h2v10.1h-1.5l-0.4-0.9h-0.1c-0.1,0.2-0.3,0.4-0.5,0.5c-0.2,0.2-0.4,0.3-0.7,0.4
			C227.4,203.3,227.1,203.4,226.7,203.4z M227.4,201.8c0.5,0,0.9-0.2,1.1-0.5c0.2-0.3,0.3-0.8,0.4-1.5v-0.2c0-0.7-0.1-1.2-0.3-1.6
			c-0.2-0.4-0.6-0.6-1.2-0.6c-0.4,0-0.8,0.2-1,0.6c-0.2,0.4-0.4,0.9-0.4,1.6c0,0.7,0.1,1.2,0.4,1.6
			C226.6,201.6,227,201.8,227.4,201.8z M235.8,195.8c1,0,1.7,0.2,2.2,0.6c0.5,0.4,0.8,1.1,0.8,1.9v4.8h-1.4l-0.4-1h-0.1
			c-0.2,0.3-0.4,0.5-0.6,0.6c-0.2,0.2-0.5,0.3-0.7,0.3c-0.3,0.1-0.6,0.1-1,0.1c-0.4,0-0.8-0.1-1.2-0.2c-0.3-0.2-0.6-0.4-0.8-0.8
			c-0.2-0.3-0.3-0.8-0.3-1.3c0-0.8,0.3-1.3,0.8-1.7c0.5-0.4,1.4-0.6,2.4-0.6l1.3,0v-0.3c0-0.4-0.1-0.7-0.3-0.8
			c-0.2-0.2-0.5-0.3-0.8-0.3c-0.3,0-0.7,0.1-1,0.2c-0.3,0.1-0.7,0.2-1,0.4l-0.7-1.3c0.4-0.2,0.8-0.4,1.3-0.5
			C234.8,195.9,235.3,195.8,235.8,195.8z M236.9,199.9l-0.8,0c-0.6,0-1.1,0.1-1.3,0.3c-0.3,0.2-0.4,0.5-0.4,0.8
			c0,0.3,0.1,0.5,0.3,0.6c0.2,0.1,0.4,0.2,0.7,0.2c0.4,0,0.8-0.1,1.1-0.4c0.3-0.2,0.4-0.6,0.4-1.1V199.9z M243.2,203.4
			c-0.8,0-1.5-0.3-2-1c-0.5-0.6-0.8-1.6-0.8-2.8c0-1.2,0.3-2.2,0.8-2.8c0.5-0.6,1.2-1,2-1c0.4,0,0.7,0,0.9,0.1
			c0.3,0.1,0.5,0.2,0.7,0.4c0.2,0.2,0.4,0.3,0.5,0.5h0.1c0-0.1-0.1-0.3-0.1-0.6c0-0.3,0-0.6,0-0.8v-2.3h2v10.1h-1.5l-0.4-0.9h-0.1
			c-0.1,0.2-0.3,0.4-0.5,0.5c-0.2,0.2-0.4,0.3-0.7,0.4C243.9,203.3,243.6,203.4,243.2,203.4z M243.9,201.8c0.5,0,0.9-0.2,1.1-0.5
			c0.2-0.3,0.3-0.8,0.4-1.5v-0.2c0-0.7-0.1-1.2-0.3-1.6s-0.6-0.6-1.2-0.6c-0.4,0-0.8,0.2-1,0.6c-0.2,0.4-0.4,0.9-0.4,1.6
			c0,0.7,0.1,1.2,0.4,1.6C243.1,201.6,243.5,201.8,243.9,201.8z M256,199.6c0,0.6-0.1,1.2-0.2,1.6c-0.2,0.5-0.4,0.9-0.7,1.2
			c-0.3,0.3-0.7,0.6-1.1,0.7c-0.4,0.2-0.9,0.2-1.5,0.2c-0.5,0-1-0.1-1.4-0.2c-0.4-0.2-0.8-0.4-1.1-0.7c-0.3-0.3-0.6-0.7-0.7-1.2
			c-0.2-0.5-0.2-1-0.2-1.6c0-0.8,0.1-1.5,0.4-2c0.3-0.6,0.7-1,1.2-1.3c0.5-0.3,1.2-0.4,1.9-0.4c0.7,0,1.3,0.1,1.8,0.4
			c0.5,0.3,0.9,0.7,1.2,1.3C255.8,198.1,256,198.8,256,199.6z M250.9,199.6c0,0.5,0.1,0.9,0.2,1.2c0.1,0.3,0.3,0.6,0.5,0.7
			c0.2,0.2,0.5,0.2,0.9,0.2c0.4,0,0.6-0.1,0.9-0.2c0.2-0.2,0.4-0.4,0.5-0.7c0.1-0.3,0.2-0.7,0.2-1.2c0-0.5-0.1-0.9-0.2-1.2
			c-0.1-0.3-0.3-0.6-0.5-0.7c-0.2-0.2-0.5-0.2-0.9-0.2c-0.5,0-0.9,0.2-1.2,0.5C251.1,198.3,250.9,198.9,250.9,199.6z M262.7,201.1
			c0,0.5-0.1,0.9-0.4,1.2c-0.2,0.3-0.6,0.6-1,0.8c-0.5,0.2-1,0.2-1.7,0.2c-0.5,0-0.9,0-1.3-0.1c-0.4-0.1-0.7-0.2-1.1-0.3v-1.6
			c0.4,0.2,0.8,0.3,1.3,0.4c0.5,0.1,0.9,0.2,1.2,0.2c0.4,0,0.7-0.1,0.8-0.2c0.2-0.1,0.2-0.3,0.2-0.5c0-0.1,0-0.2-0.1-0.3
			c-0.1-0.1-0.2-0.2-0.4-0.3s-0.6-0.3-1-0.5c-0.4-0.2-0.8-0.4-1.1-0.6c-0.3-0.2-0.5-0.4-0.7-0.7c-0.1-0.3-0.2-0.6-0.2-1
			c0-0.7,0.3-1.2,0.8-1.5c0.5-0.3,1.2-0.5,2.1-0.5c0.4,0,0.9,0,1.3,0.1c0.4,0.1,0.8,0.2,1.3,0.4l-0.6,1.4c-0.4-0.2-0.7-0.3-1-0.4
			c-0.3-0.1-0.6-0.2-1-0.2c-0.3,0-0.5,0-0.7,0.1c-0.1,0.1-0.2,0.2-0.2,0.3c0,0.1,0,0.2,0.1,0.3s0.2,0.2,0.4,0.3
			c0.2,0.1,0.5,0.2,1,0.4c0.4,0.2,0.8,0.3,1.1,0.5c0.3,0.2,0.5,0.4,0.7,0.7C262.6,200.3,262.7,200.6,262.7,201.1z"/>
		<path class="st3" d="M51,41h651.2v57H51V41z"/>
		<path class="st5" d="M69.5,57.2c2.6,0,4.6,0.6,6,1.7s2,2.8,2,4.9c0,1-0.1,1.9-0.4,2.8c-0.3,0.9-0.7,1.7-1.3,2.3s-1.4,1.2-2.5,1.6
			c-1,0.4-2.3,0.6-3.8,0.6h-1.6v7h-5.7V57.2H69.5z M69.4,61.8h-1.5v4.8H69c0.5,0,0.9-0.1,1.4-0.2c0.4-0.2,0.8-0.4,1-0.8
			s0.4-0.9,0.4-1.5c0-0.7-0.2-1.2-0.6-1.6C70.8,62,70.2,61.8,69.4,61.8z M88.4,61.7c2.1,0,3.7,0.5,4.8,1.5c1.2,1,1.7,2.5,1.7,4.3
			v10.6H91L90,76h-0.1c-0.5,0.6-0.9,1-1.4,1.4c-0.5,0.4-1,0.6-1.7,0.8c-0.6,0.2-1.4,0.2-2.3,0.2c-0.9,0-1.8-0.2-2.5-0.6
			c-0.7-0.4-1.3-1-1.8-1.7s-0.6-1.8-0.6-2.9c0-1.7,0.6-3,1.8-3.9c1.2-0.8,3-1.3,5.2-1.4l2.7-0.1v-0.2c0-0.7-0.2-1.2-0.5-1.5
			c-0.4-0.3-0.8-0.5-1.4-0.5c-0.6,0-1.4,0.1-2.2,0.3c-0.8,0.2-1.6,0.5-2.4,0.9l-1.6-3.7c0.9-0.5,2-0.8,3.2-1.1
			C85.6,61.8,86.9,61.7,88.4,61.7z M89.4,70.9L88.1,71c-1,0-1.8,0.2-2.2,0.5c-0.4,0.3-0.6,0.8-0.6,1.4c0,0.6,0.1,1,0.4,1.2
			c0.3,0.3,0.7,0.4,1.2,0.4c0.7,0,1.3-0.2,1.7-0.6c0.5-0.4,0.7-1,0.7-1.7V70.9z M94.7,55.7V56c-0.3,0.3-0.8,0.6-1.3,1
			c-0.5,0.4-1.1,0.8-1.7,1.2c-0.6,0.4-1.2,0.8-1.7,1.2c-0.6,0.4-1,0.7-1.4,1h-3.7V60c0.3-0.4,0.7-0.8,1.2-1.3c0.5-0.5,0.9-1,1.4-1.5
			c0.5-0.5,0.9-1,1.2-1.5H94.7z M104.3,85.2c-2.3,0-4.1-0.4-5.3-1.2c-1.2-0.8-1.9-1.9-1.9-3.3c0-1,0.3-1.8,0.9-2.4
			c0.6-0.6,1.5-1.1,2.7-1.3c-0.5-0.2-0.9-0.5-1.3-1c-0.4-0.5-0.5-0.9-0.5-1.4c0-0.5,0.1-1,0.4-1.3c0.3-0.4,0.9-0.8,1.8-1.4
			c-0.8-0.4-1.5-1-2-1.8c-0.5-0.8-0.7-1.8-0.7-2.9c0-1.2,0.3-2.2,0.8-3c0.5-0.8,1.3-1.5,2.4-1.9c1-0.4,2.3-0.7,3.8-0.7
			c0.2,0,0.5,0,0.9,0.1c0.4,0,0.8,0.1,1.2,0.1c0.4,0,0.7,0.1,1,0.1h5.7v2.7l-2.2,0.8c0.2,0.3,0.3,0.6,0.3,0.9c0.1,0.3,0.1,0.7,0.1,1
			c0,1.8-0.6,3.1-1.8,4.1c-1.2,1-3.1,1.4-5.5,1.4c-0.6,0-1.1,0-1.4-0.1c-0.1,0.1-0.1,0.2-0.2,0.4c0,0.1,0,0.2,0,0.3
			c0,0.2,0.1,0.4,0.4,0.5c0.3,0.1,0.6,0.2,1,0.3c0.4,0,0.8,0.1,1.1,0.1h2.7c1.8,0,3.2,0.4,4.1,1.2c0.9,0.8,1.4,1.9,1.4,3.4
			c0,2-0.8,3.5-2.5,4.6C109.7,84.7,107.3,85.2,104.3,85.2z M104.5,81.7c0.7,0,1.4-0.1,2-0.2c0.7-0.1,1.3-0.3,1.7-0.6
			c0.5-0.3,0.7-0.6,0.7-1c0-0.3-0.1-0.6-0.4-0.8c-0.3-0.2-0.6-0.3-1.1-0.3c-0.4-0.1-0.9-0.1-1.4-0.1H104c-0.4,0-0.8,0.1-1.1,0.2
			c-0.3,0.1-0.6,0.3-0.8,0.5c-0.2,0.2-0.3,0.5-0.3,0.8c0,0.5,0.2,0.8,0.7,1.1C103,81.6,103.7,81.7,104.5,81.7z M105.3,69.8
			c0.5,0,1-0.2,1.2-0.6c0.3-0.4,0.4-1,0.4-1.9c0-0.8-0.1-1.5-0.4-1.9c-0.3-0.4-0.7-0.6-1.3-0.6c-0.6,0-1,0.2-1.3,0.6
			c-0.3,0.4-0.4,1-0.4,1.9c0,0.8,0.1,1.4,0.4,1.9C104.3,69.6,104.7,69.8,105.3,69.8z M122.1,62v16.2h-5.6V62H122.1z M119.4,55.4
			c0.8,0,1.5,0.2,2.1,0.5c0.6,0.3,0.9,1,0.9,2c0,1-0.3,1.6-0.9,2c-0.6,0.3-1.3,0.5-2.1,0.5c-0.8,0-1.5-0.2-2.1-0.5
			c-0.6-0.3-0.9-1-0.9-2c0-1,0.3-1.7,0.9-2C117.8,55.6,118.5,55.4,119.4,55.4z M136.2,61.7c1.7,0,3,0.5,4.1,1.4
			c1.1,0.9,1.6,2.5,1.6,4.5v10.5h-5.6v-8.8c0-1.1-0.2-1.9-0.5-2.4c-0.3-0.6-0.8-0.8-1.5-0.8c-1.1,0-1.8,0.4-2.1,1.3
			c-0.4,0.9-0.5,2.1-0.5,3.7v7.1H126V62h4.2l0.8,2.1h0.2c0.3-0.5,0.8-0.9,1.2-1.3c0.5-0.4,1-0.6,1.6-0.8
			C134.7,61.8,135.4,61.7,136.2,61.7z M153.6,61.7c2.1,0,3.7,0.5,4.8,1.5c1.2,1,1.7,2.5,1.7,4.3v10.6h-3.9l-1.1-2.1h-0.1
			c-0.5,0.6-0.9,1-1.4,1.4c-0.5,0.4-1,0.6-1.7,0.8c-0.6,0.2-1.4,0.2-2.3,0.2c-0.9,0-1.8-0.2-2.5-0.6c-0.7-0.4-1.3-1-1.8-1.7
			c-0.4-0.8-0.6-1.8-0.6-2.9c0-1.7,0.6-3,1.8-3.9c1.2-0.8,3-1.3,5.2-1.4l2.7-0.1v-0.2c0-0.7-0.2-1.2-0.5-1.5
			c-0.4-0.3-0.8-0.5-1.4-0.5c-0.6,0-1.4,0.1-2.2,0.3c-0.8,0.2-1.6,0.5-2.4,0.9l-1.6-3.7c0.9-0.5,2-0.8,3.2-1.1
			C150.8,61.8,152.1,61.7,153.6,61.7z M154.6,70.9l-1.3,0.1c-1,0-1.8,0.2-2.2,0.5c-0.4,0.3-0.6,0.8-0.6,1.4c0,0.6,0.1,1,0.4,1.2
			c0.3,0.3,0.7,0.4,1.2,0.4c0.7,0,1.3-0.2,1.7-0.6c0.5-0.4,0.7-1,0.7-1.7V70.9z M171.9,78.2V57.2h5.7v20.9H171.9z M192,61.7
			c1.7,0,3,0.5,4.1,1.4c1.1,0.9,1.6,2.5,1.6,4.5v10.5H192v-8.8c0-1.1-0.2-1.9-0.5-2.4c-0.3-0.6-0.8-0.8-1.5-0.8
			c-1.1,0-1.8,0.4-2.1,1.3c-0.4,0.9-0.5,2.1-0.5,3.7v7.1h-5.6V62h4.2l0.8,2.1h0.2c0.3-0.5,0.8-0.9,1.2-1.3c0.5-0.4,1-0.6,1.6-0.8
			C190.5,61.8,191.2,61.7,192,61.7z M207.1,62v16.2h-5.6V62H207.1z M204.3,55.4c0.8,0,1.5,0.2,2.1,0.5c0.6,0.3,0.9,1,0.9,2
			c0,1-0.3,1.6-0.9,2c-0.6,0.3-1.3,0.5-2.1,0.5c-0.8,0-1.5-0.2-2.1-0.5c-0.6-0.3-0.9-1-0.9-2c0-1,0.3-1.7,0.9-2
			C202.8,55.6,203.5,55.4,204.3,55.4z M218.4,78.5c-1.6,0-3.1-0.3-4.3-0.9c-1.2-0.6-2.1-1.5-2.8-2.7c-0.7-1.2-1-2.8-1-4.7
			c0-2,0.4-3.6,1.1-4.8c0.7-1.2,1.8-2.2,3-2.8c1.3-0.6,2.8-0.9,4.4-0.9c1,0,1.9,0.1,2.8,0.3c0.9,0.2,1.7,0.5,2.5,0.9l-1.6,4.1
			c-0.7-0.3-1.3-0.5-1.9-0.7c-0.6-0.2-1.2-0.3-1.8-0.3c-0.6,0-1.1,0.1-1.5,0.4c-0.4,0.3-0.8,0.7-1,1.3c-0.2,0.6-0.3,1.3-0.3,2.3
			c0,0.9,0.1,1.7,0.4,2.3c0.2,0.6,0.6,1,1,1.2c0.4,0.2,0.9,0.4,1.5,0.4c0.8,0,1.6-0.1,2.4-0.4c0.8-0.2,1.6-0.6,2.3-1V77
			c-0.7,0.4-1.4,0.8-2.3,1C220.5,78.3,219.5,78.5,218.4,78.5z M232.4,62v16.2h-5.6V62H232.4z M229.6,55.4c0.8,0,1.5,0.2,2.1,0.5
			c0.6,0.3,0.9,1,0.9,2c0,1-0.3,1.6-0.9,2c-0.6,0.3-1.3,0.5-2.1,0.5c-0.8,0-1.5-0.2-2.1-0.5c-0.6-0.3-0.9-1-0.9-2c0-1,0.3-1.7,0.9-2
			C228.1,55.6,228.8,55.4,229.6,55.4z M244.2,61.7c2.1,0,3.7,0.5,4.8,1.5c1.2,1,1.7,2.5,1.7,4.3v10.6h-3.9l-1.1-2.1h-0.1
			c-0.5,0.6-0.9,1-1.4,1.4c-0.5,0.4-1,0.6-1.7,0.8c-0.6,0.2-1.4,0.2-2.3,0.2c-0.9,0-1.8-0.2-2.5-0.6c-0.7-0.4-1.3-1-1.8-1.7
			c-0.4-0.8-0.6-1.8-0.6-2.9c0-1.7,0.6-3,1.8-3.9c1.2-0.8,3-1.3,5.2-1.4l2.7-0.1v-0.2c0-0.7-0.2-1.2-0.5-1.5
			c-0.4-0.3-0.8-0.5-1.4-0.5c-0.6,0-1.4,0.1-2.2,0.3c-0.8,0.2-1.6,0.5-2.4,0.9l-1.6-3.7c0.9-0.5,2-0.8,3.2-1.1
			C241.4,61.8,242.8,61.7,244.2,61.7z M245.2,70.9l-1.3,0.1c-1,0-1.8,0.2-2.2,0.5c-0.4,0.3-0.6,0.8-0.6,1.4c0,0.6,0.1,1,0.4,1.2
			c0.3,0.3,0.7,0.4,1.2,0.4c0.7,0,1.3-0.2,1.7-0.6c0.5-0.4,0.7-1,0.7-1.7V70.9z M260.2,78.2h-5.6V55.9h5.6V78.2z"/>
		<path class="st3" d="M155.6,240.5L155.6,240.5c0-3.8,3.1-6.9,6.9-6.9h122.3c1.8,0,3.6,0.7,4.9,2s2,3.1,2,4.9v27.7
			c0,3.8-3.1,6.9-6.9,6.9H162.5c-3.8,0-6.9-3.1-6.9-6.9V240.5z"/>
		<path class="st4" d="M155.6,240.5L155.6,240.5c0-3.8,3.1-6.9,6.9-6.9h122.3c1.8,0,3.6,0.7,4.9,2s2,3.1,2,4.9v27.7
			c0,3.8-3.1,6.9-6.9,6.9H162.5c-3.8,0-6.9-3.1-6.9-6.9V240.5z"/>
		<path class="st5" d="M178.5,259.2l-2.3-7.5h-0.1c0,0.2,0,0.4,0,0.8c0,0.4,0,0.7,0,1.1c0,0.4,0,0.8,0,1.1v4.4h-1.8v-9.5h2.7
			l2.3,7.3h0l2.4-7.3h2.8v9.5h-1.9v-4.5c0-0.3,0-0.6,0-1c0-0.4,0-0.8,0-1.1c0-0.4,0-0.6,0-0.8h-0.1l-2.5,7.5H178.5z M188.9,251.9
			v7.3h-2v-7.3H188.9z M187.9,249.1c0.3,0,0.6,0.1,0.8,0.2c0.2,0.1,0.3,0.4,0.3,0.8c0,0.4-0.1,0.6-0.3,0.8c-0.2,0.1-0.5,0.2-0.8,0.2
			c-0.3,0-0.5-0.1-0.8-0.2c-0.2-0.1-0.3-0.4-0.3-0.8c0-0.4,0.1-0.6,0.3-0.8C187.4,249.1,187.6,249.1,187.9,249.1z M195.1,251.8
			c0.8,0,1.4,0.2,1.9,0.6c0.5,0.4,0.7,1.1,0.7,2v4.8h-2v-4.3c0-0.5-0.1-0.9-0.3-1.2c-0.2-0.3-0.5-0.4-0.9-0.4c-0.6,0-1,0.2-1.2,0.6
			c-0.2,0.4-0.3,1-0.3,1.8v3.4h-2v-7.3h1.5l0.3,0.9h0.1c0.2-0.2,0.3-0.5,0.6-0.6s0.5-0.3,0.8-0.3
			C194.5,251.8,194.8,251.8,195.1,251.8z M201.8,249.1v2.1c0,0.4,0,0.7,0,1c0,0.3,0,0.6,0,0.7h0.1c0.2-0.2,0.3-0.5,0.5-0.6
			c0.2-0.2,0.5-0.3,0.7-0.3c0.3-0.1,0.5-0.1,0.8-0.1c0.5,0,1,0.1,1.4,0.3c0.4,0.2,0.7,0.5,0.9,0.9c0.2,0.4,0.3,0.9,0.3,1.5v4.8h-2
			v-4.3c0-0.5-0.1-0.9-0.3-1.2c-0.2-0.3-0.5-0.4-0.9-0.4c-0.4,0-0.7,0.1-0.9,0.3c-0.2,0.2-0.4,0.5-0.5,0.8c-0.1,0.4-0.1,0.8-0.1,1.3
			v3.4h-2v-10.1H201.8z M211.5,251.8c1,0,1.7,0.2,2.2,0.6c0.5,0.4,0.8,1.1,0.8,1.9v4.8h-1.4l-0.4-1h-0.1c-0.2,0.3-0.4,0.5-0.6,0.6
			c-0.2,0.2-0.5,0.3-0.7,0.3c-0.3,0.1-0.6,0.1-1,0.1c-0.4,0-0.8-0.1-1.2-0.2c-0.3-0.2-0.6-0.4-0.8-0.8c-0.2-0.3-0.3-0.8-0.3-1.3
			c0-0.8,0.3-1.3,0.8-1.7c0.5-0.4,1.4-0.6,2.4-0.6l1.3,0v-0.3c0-0.4-0.1-0.7-0.3-0.8c-0.2-0.2-0.5-0.3-0.8-0.3c-0.3,0-0.7,0.1-1,0.2
			c-0.3,0.1-0.7,0.2-1,0.4l-0.7-1.3c0.4-0.2,0.8-0.4,1.3-0.5C210.5,251.8,211,251.8,211.5,251.8z M212.6,255.8l-0.8,0
			c-0.6,0-1.1,0.1-1.3,0.3c-0.2,0.2-0.4,0.5-0.4,0.8c0,0.3,0.1,0.5,0.3,0.6c0.2,0.1,0.4,0.2,0.7,0.2c0.4,0,0.8-0.1,1.1-0.4
			c0.3-0.2,0.4-0.6,0.4-1.1V255.8z M221.7,257c0,0.5-0.1,0.9-0.4,1.2c-0.2,0.3-0.6,0.6-1,0.8c-0.5,0.2-1,0.2-1.7,0.2
			c-0.5,0-0.9,0-1.3-0.1c-0.4-0.1-0.7-0.2-1.1-0.3v-1.6c0.4,0.2,0.8,0.3,1.3,0.4c0.5,0.1,0.9,0.2,1.2,0.2c0.4,0,0.7-0.1,0.8-0.2
			c0.2-0.1,0.2-0.3,0.2-0.5c0-0.1,0-0.2-0.1-0.3c-0.1-0.1-0.2-0.2-0.4-0.3s-0.6-0.3-1-0.5c-0.4-0.2-0.8-0.4-1.1-0.6
			c-0.3-0.2-0.5-0.4-0.7-0.7c-0.1-0.3-0.2-0.6-0.2-1c0-0.7,0.3-1.2,0.8-1.5c0.5-0.3,1.2-0.5,2.1-0.5c0.4,0,0.9,0,1.3,0.1
			c0.4,0.1,0.8,0.2,1.3,0.4l-0.6,1.4c-0.4-0.2-0.7-0.3-1-0.4c-0.3-0.1-0.6-0.2-1-0.2c-0.3,0-0.5,0-0.7,0.1c-0.1,0.1-0.2,0.2-0.2,0.3
			c0,0.1,0,0.2,0.1,0.3c0.1,0.1,0.2,0.2,0.4,0.3c0.2,0.1,0.5,0.2,1,0.4c0.4,0.2,0.8,0.3,1.1,0.5c0.3,0.2,0.5,0.4,0.7,0.7
			C221.6,256.2,221.7,256.6,221.7,257z M229.7,257.7c0.2,0,0.4,0,0.6-0.1c0.2,0,0.4-0.1,0.6-0.2v1.5c-0.2,0.1-0.5,0.2-0.8,0.2
			c-0.3,0.1-0.7,0.1-1,0.1c-0.4,0-0.8-0.1-1.2-0.2c-0.3-0.1-0.6-0.4-0.8-0.7c-0.2-0.4-0.3-0.8-0.3-1.5v-3.5h-0.9v-0.8l1.1-0.7
			l0.6-1.5h1.3v1.5h2v1.5h-2v3.5c0,0.3,0.1,0.5,0.2,0.6C229.3,257.7,229.5,257.7,229.7,257.7z M239.1,251.9v7.3h-1.5l-0.3-0.9h-0.1
			c-0.2,0.2-0.4,0.5-0.6,0.6c-0.2,0.2-0.5,0.3-0.8,0.3c-0.3,0.1-0.6,0.1-0.9,0.1c-0.5,0-1-0.1-1.4-0.3c-0.4-0.2-0.7-0.5-0.9-0.9
			c-0.2-0.4-0.3-0.9-0.3-1.5v-4.8h2v4.3c0,0.5,0.1,0.9,0.3,1.2c0.2,0.3,0.5,0.4,0.9,0.4s0.7-0.1,1-0.3c0.2-0.2,0.4-0.5,0.5-0.8
			c0.1-0.4,0.1-0.8,0.1-1.3v-3.4H239.1z M245.3,251.8c0.1,0,0.2,0,0.3,0c0.1,0,0.2,0,0.3,0l-0.1,1.9c-0.1,0-0.2,0-0.3,0
			c-0.1,0-0.2,0-0.3,0c-0.3,0-0.5,0-0.7,0.1c-0.2,0.1-0.5,0.2-0.7,0.3c-0.2,0.1-0.3,0.3-0.5,0.6c-0.1,0.2-0.2,0.5-0.2,0.9v3.7h-2
			v-7.3h1.5l0.3,1.2h0.1c0.1-0.2,0.3-0.5,0.5-0.7c0.2-0.2,0.5-0.4,0.7-0.5C244.6,251.8,244.9,251.8,245.3,251.8z M255.8,251.8
			c0.8,0,1.4,0.2,1.9,0.6c0.4,0.4,0.6,1.1,0.6,2v4.8h-2v-4.3c0-0.5-0.1-0.9-0.3-1.2c-0.2-0.3-0.5-0.4-0.8-0.4
			c-0.5,0-0.9,0.2-1.1,0.6s-0.3,0.9-0.3,1.6v3.7h-2v-4.3c0-0.3,0-0.6-0.1-0.9c-0.1-0.2-0.2-0.4-0.4-0.5c-0.2-0.1-0.4-0.2-0.6-0.2
			c-0.4,0-0.7,0.1-0.9,0.3c-0.2,0.2-0.4,0.5-0.5,0.8c-0.1,0.4-0.1,0.8-0.1,1.3v3.4h-2v-7.3h1.5l0.3,0.9h0.1c0.1-0.2,0.3-0.5,0.5-0.6
			c0.2-0.2,0.5-0.3,0.8-0.3c0.3-0.1,0.5-0.1,0.8-0.1c0.5,0,1,0.1,1.4,0.3c0.4,0.2,0.7,0.4,0.9,0.8h0.2c0.2-0.4,0.5-0.6,0.9-0.8
			C255,251.9,255.4,251.8,255.8,251.8z M263.3,251.8c1,0,1.7,0.2,2.2,0.6c0.5,0.4,0.8,1.1,0.8,1.9v4.8H265l-0.4-1h-0.1
			c-0.2,0.3-0.4,0.5-0.6,0.6c-0.2,0.2-0.5,0.3-0.7,0.3c-0.3,0.1-0.6,0.1-1,0.1c-0.4,0-0.8-0.1-1.2-0.2c-0.3-0.2-0.6-0.4-0.8-0.8
			c-0.2-0.3-0.3-0.8-0.3-1.3c0-0.8,0.3-1.3,0.8-1.7c0.5-0.4,1.4-0.6,2.4-0.6l1.3,0v-0.3c0-0.4-0.1-0.7-0.3-0.8
			c-0.2-0.2-0.5-0.3-0.8-0.3c-0.3,0-0.7,0.1-1,0.2c-0.3,0.1-0.7,0.2-1,0.4l-0.7-1.3c0.4-0.2,0.8-0.4,1.3-0.5
			C262.3,251.8,262.8,251.8,263.3,251.8z M264.4,255.8l-0.8,0c-0.6,0-1.1,0.1-1.3,0.3s-0.4,0.5-0.4,0.8c0,0.3,0.1,0.5,0.3,0.6
			s0.4,0.2,0.7,0.2c0.4,0,0.8-0.1,1.1-0.4s0.4-0.6,0.4-1.1V255.8z M273.5,257c0,0.5-0.1,0.9-0.4,1.2c-0.2,0.3-0.6,0.6-1,0.8
			c-0.5,0.2-1,0.2-1.7,0.2c-0.5,0-0.9,0-1.3-0.1c-0.4-0.1-0.7-0.2-1.1-0.3v-1.6c0.4,0.2,0.8,0.3,1.3,0.4c0.5,0.1,0.9,0.2,1.2,0.2
			c0.4,0,0.7-0.1,0.8-0.2c0.2-0.1,0.2-0.3,0.2-0.5c0-0.1,0-0.2-0.1-0.3c-0.1-0.1-0.2-0.2-0.4-0.3s-0.6-0.3-1-0.5
			c-0.4-0.2-0.8-0.4-1.1-0.6c-0.3-0.2-0.5-0.4-0.7-0.7c-0.1-0.3-0.2-0.6-0.2-1c0-0.7,0.3-1.2,0.8-1.5c0.5-0.3,1.2-0.5,2.1-0.5
			c0.4,0,0.9,0,1.3,0.1c0.4,0.1,0.8,0.2,1.3,0.4l-0.6,1.4c-0.4-0.2-0.7-0.3-1-0.4c-0.3-0.1-0.6-0.2-1-0.2c-0.3,0-0.5,0-0.7,0.1
			c-0.1,0.1-0.2,0.2-0.2,0.3c0,0.1,0,0.2,0.1,0.3s0.2,0.2,0.4,0.3c0.2,0.1,0.5,0.2,1,0.4c0.4,0.2,0.8,0.3,1.1,0.5
			c0.3,0.2,0.5,0.4,0.7,0.7S273.5,256.6,273.5,257z"/>
		<path class="st3" d="M156.5,104.3h332.8v42H156.5V104.3z"/>
		<path class="st5" d="M179.3,124.6c0,1-0.1,2-0.4,2.8c-0.3,0.8-0.6,1.6-1.2,2.2c-0.5,0.6-1.2,1.1-2,1.4c-0.8,0.3-1.7,0.5-2.8,0.5
			c-1.1,0-2-0.2-2.8-0.5c-0.8-0.3-1.4-0.8-2-1.4s-0.9-1.3-1.2-2.2c-0.2-0.8-0.4-1.8-0.4-2.8c0-1.4,0.2-2.6,0.7-3.6
			c0.5-1,1.2-1.8,2.1-2.4c0.9-0.6,2.1-0.9,3.6-0.9c1.4,0,2.6,0.3,3.6,0.9c0.9,0.6,1.6,1.4,2.1,2.4C179,122,179.3,123.2,179.3,124.6z
			 M169.5,124.6c0,0.9,0.1,1.7,0.3,2.4c0.2,0.7,0.6,1.2,1.1,1.5c0.5,0.4,1.1,0.5,1.9,0.5c0.8,0,1.5-0.2,2-0.5
			c0.5-0.4,0.9-0.9,1.1-1.5c0.2-0.7,0.3-1.5,0.3-2.4c0-1.4-0.3-2.5-0.8-3.3c-0.5-0.8-1.4-1.2-2.6-1.2c-0.8,0-1.4,0.2-1.9,0.5
			c-0.5,0.4-0.9,0.9-1.1,1.5C169.7,122.8,169.5,123.6,169.5,124.6z M184.6,131.3h-2.8v-14.2h2.8V131.3z M191.7,120.9
			c1.4,0,2.4,0.3,3.1,0.9c0.7,0.6,1.1,1.5,1.1,2.7v6.8H194l-0.5-1.4h-0.1c-0.3,0.4-0.6,0.7-0.9,0.9c-0.3,0.2-0.7,0.4-1,0.5
			c-0.4,0.1-0.9,0.2-1.4,0.2c-0.6,0-1.1-0.1-1.6-0.3c-0.5-0.2-0.8-0.6-1.1-1.1c-0.3-0.5-0.4-1.1-0.4-1.8c0-1.1,0.4-1.9,1.1-2.4
			c0.8-0.5,1.9-0.8,3.4-0.8l1.8-0.1v-0.4c0-0.5-0.1-0.9-0.4-1.2c-0.3-0.2-0.7-0.4-1.2-0.4c-0.5,0-1,0.1-1.5,0.2
			c-0.5,0.1-0.9,0.3-1.4,0.5l-0.9-1.9c0.5-0.3,1.1-0.5,1.8-0.7C190.3,120.9,191,120.9,191.7,120.9z M193.2,126.5l-1.1,0
			c-0.9,0-1.5,0.2-1.9,0.5c-0.3,0.3-0.5,0.7-0.5,1.2c0,0.4,0.1,0.7,0.4,0.9c0.2,0.2,0.6,0.3,1,0.3c0.6,0,1.1-0.2,1.5-0.5
			c0.4-0.4,0.6-0.9,0.6-1.5V126.5z M195.2,117v0.2c-0.2,0.2-0.4,0.4-0.7,0.6c-0.3,0.2-0.6,0.5-0.9,0.8c-0.3,0.3-0.6,0.5-1,0.8
			c-0.3,0.2-0.6,0.4-0.8,0.6H190v-0.2c0.2-0.2,0.4-0.5,0.7-0.8c0.3-0.3,0.5-0.7,0.8-1c0.3-0.3,0.5-0.7,0.7-0.9H195.2z M201.4,129.1
			l0.1,0.2c-0.1,0.4-0.3,0.9-0.4,1.4c-0.2,0.5-0.4,1-0.6,1.5c-0.2,0.5-0.4,1-0.6,1.5h-2c0.1-0.5,0.2-1,0.3-1.5
			c0.1-0.5,0.2-1.1,0.3-1.6c0.1-0.5,0.2-1,0.2-1.4H201.4z M215.2,134.2h-7.7v-1.3h7.7V134.2z M222.9,134.2h-7.7v-1.3h7.7V134.2z
			 M230.5,134.2h-7.7v-1.3h7.7V134.2z M238.2,134.2h-7.7v-1.3h7.7V134.2z M245.9,134.2h-7.7v-1.3h7.7V134.2z M253.5,134.2h-7.7v-1.3
			h7.7V134.2z M261.2,134.2h-7.7v-1.3h7.7V134.2z M268.9,134.2h-7.7v-1.3h7.7V134.2z M276.5,134.2h-7.7v-1.3h7.7V134.2z
			 M284.2,134.2h-7.7v-1.3h7.7V134.2z M291.9,134.2h-7.7v-1.3h7.7V134.2z M299.6,134.2h-7.7v-1.3h7.7V134.2z M303.3,126.8h-2.2
			l-0.5-8.9h3.1L303.3,126.8z M300.6,130c0-0.6,0.2-1,0.5-1.2s0.7-0.3,1.1-0.3c0.4,0,0.8,0.1,1.1,0.3s0.5,0.6,0.5,1.2
			c0,0.5-0.2,0.9-0.5,1.2c-0.3,0.2-0.7,0.4-1.1,0.4c-0.4,0-0.8-0.1-1.1-0.4C300.7,130.9,300.6,130.5,300.6,130z"/>
		<path class="st3" d="M474.5,184.6L474.5,184.6c0-3.8,3.1-6.9,6.9-6.9h122.3c1.8,0,3.6,0.7,4.9,2c1.3,1.3,2,3.1,2,4.9v27.7
			c0,3.8-3.1,6.9-6.9,6.9H481.5c-3.8,0-6.9-3.1-6.9-6.9V184.6z"/>
		<path class="st4" d="M474.5,184.6L474.5,184.6c0-3.8,3.1-6.9,6.9-6.9h122.3c1.8,0,3.6,0.7,4.9,2c1.3,1.3,2,3.1,2,4.9v27.7
			c0,3.8-3.1,6.9-6.9,6.9H481.5c-3.8,0-6.9-3.1-6.9-6.9V184.6z"/>
		<path class="st5" d="M493.5,190.4c0,1.1-0.2,2-0.6,2.7c-0.4,0.7-1,1.2-1.8,1.6c-0.8,0.4-1.7,0.5-2.8,0.5h-2.7v-9.5h3
			c1,0,1.9,0.2,2.6,0.5c0.7,0.4,1.3,0.9,1.7,1.6C493.3,188.5,493.5,189.4,493.5,190.4z M491.4,190.4c0-0.7-0.1-1.3-0.3-1.7
			c-0.2-0.5-0.5-0.8-0.9-1c-0.4-0.2-0.9-0.3-1.5-0.3h-1.1v6.2h0.9c1,0,1.7-0.3,2.2-0.8C491.2,192.3,491.4,191.5,491.4,190.4z
			 M498.3,187.8c0.7,0,1.2,0.1,1.7,0.4c0.5,0.2,0.9,0.6,1.1,1.1s0.4,1.1,0.4,1.8v1h-4.7c0,0.6,0.2,1,0.5,1.3
			c0.3,0.3,0.8,0.5,1.3,0.5c0.5,0,0.9,0,1.3-0.1c0.4-0.1,0.8-0.2,1.2-0.4v1.5c-0.4,0.2-0.7,0.3-1.1,0.4c-0.4,0.1-0.9,0.1-1.4,0.1
			c-0.7,0-1.4-0.1-1.9-0.4c-0.6-0.3-1-0.7-1.3-1.2s-0.5-1.2-0.5-2.1c0-0.9,0.1-1.6,0.4-2.1c0.3-0.6,0.7-1,1.2-1.3
			C497.1,188,497.7,187.8,498.3,187.8z M498.3,189.2c-0.4,0-0.7,0.1-1,0.4c-0.2,0.2-0.4,0.6-0.4,1.2h2.8c0-0.3-0.1-0.6-0.2-0.8
			s-0.3-0.4-0.5-0.5C498.9,189.3,498.7,189.2,498.3,189.2z M508.3,193.1c0,0.5-0.1,0.9-0.4,1.2c-0.2,0.3-0.6,0.6-1,0.8
			c-0.5,0.2-1,0.2-1.7,0.2c-0.5,0-0.9,0-1.3-0.1c-0.4-0.1-0.7-0.2-1.1-0.3v-1.6c0.4,0.2,0.8,0.3,1.3,0.4c0.5,0.1,0.9,0.2,1.2,0.2
			c0.4,0,0.7-0.1,0.8-0.2s0.2-0.3,0.2-0.5c0-0.1,0-0.2-0.1-0.3c-0.1-0.1-0.2-0.2-0.4-0.3s-0.6-0.3-1-0.5c-0.4-0.2-0.8-0.4-1.1-0.6
			c-0.3-0.2-0.5-0.4-0.7-0.7c-0.1-0.3-0.2-0.6-0.2-1c0-0.7,0.3-1.2,0.8-1.5c0.5-0.3,1.2-0.5,2.1-0.5c0.4,0,0.9,0,1.3,0.1
			c0.4,0.1,0.8,0.2,1.3,0.4l-0.6,1.4c-0.4-0.2-0.7-0.3-1-0.4c-0.3-0.1-0.6-0.2-1-0.2c-0.3,0-0.5,0-0.7,0.1c-0.1,0.1-0.2,0.2-0.2,0.3
			c0,0.1,0,0.2,0.1,0.3s0.2,0.2,0.4,0.3c0.2,0.1,0.5,0.2,1,0.4c0.4,0.2,0.8,0.3,1.1,0.5c0.3,0.2,0.5,0.4,0.7,0.7
			S508.3,192.6,508.3,193.1z M512.8,187.8c0.7,0,1.2,0.1,1.7,0.4c0.5,0.2,0.9,0.6,1.1,1.1s0.4,1.1,0.4,1.8v1h-4.7
			c0,0.6,0.2,1,0.5,1.3c0.3,0.3,0.7,0.5,1.3,0.5c0.5,0,0.9,0,1.3-0.1c0.4-0.1,0.8-0.2,1.2-0.4v1.5c-0.4,0.2-0.7,0.3-1.1,0.4
			c-0.4,0.1-0.9,0.1-1.4,0.1c-0.7,0-1.4-0.1-1.9-0.4c-0.6-0.3-1-0.7-1.3-1.2c-0.3-0.6-0.5-1.2-0.5-2.1c0-0.9,0.1-1.6,0.4-2.1
			c0.3-0.6,0.7-1,1.2-1.3C511.6,188,512.2,187.8,512.8,187.8z M512.8,189.2c-0.4,0-0.7,0.1-1,0.4c-0.2,0.2-0.4,0.6-0.4,1.2h2.8
			c0-0.3-0.1-0.6-0.2-0.8s-0.3-0.4-0.5-0.5C513.4,189.3,513.2,189.2,512.8,189.2z M521.8,187.8c0.8,0,1.4,0.2,1.9,0.6
			c0.5,0.4,0.7,1.1,0.7,2v4.8h-2V191c0-0.5-0.1-0.9-0.3-1.2c-0.2-0.3-0.5-0.4-0.9-0.4c-0.6,0-1,0.2-1.2,0.6c-0.2,0.4-0.3,1-0.3,1.8
			v3.4h-2V188h1.5l0.3,0.9h0.1c0.2-0.2,0.3-0.5,0.6-0.6c0.2-0.2,0.5-0.3,0.8-0.3C521.2,187.9,521.5,187.8,521.8,187.8z M528.2,195.2
			l-2.8-7.3h2.1l1.4,4.2c0.1,0.2,0.1,0.5,0.2,0.8c0.1,0.3,0.1,0.5,0.1,0.7h0c0-0.2,0-0.5,0.1-0.7s0.1-0.5,0.2-0.8l1.4-4.2h2.1
			l-2.8,7.3H528.2z M540.7,191.6c0,0.6-0.1,1.2-0.2,1.6c-0.2,0.5-0.4,0.9-0.7,1.2s-0.7,0.6-1.1,0.7c-0.4,0.2-0.9,0.2-1.5,0.2
			c-0.5,0-1-0.1-1.4-0.2c-0.4-0.2-0.8-0.4-1.1-0.7c-0.3-0.3-0.6-0.7-0.7-1.2c-0.2-0.5-0.2-1-0.2-1.6c0-0.8,0.1-1.5,0.4-2
			c0.3-0.6,0.7-1,1.2-1.3c0.5-0.3,1.2-0.4,1.9-0.4c0.7,0,1.3,0.1,1.8,0.4c0.5,0.3,0.9,0.7,1.2,1.3S540.7,190.8,540.7,191.6z
			 M535.6,191.6c0,0.5,0.1,0.9,0.2,1.2c0.1,0.3,0.3,0.6,0.5,0.7c0.2,0.2,0.5,0.2,0.9,0.2s0.6-0.1,0.9-0.2c0.2-0.2,0.4-0.4,0.5-0.7
			c0.1-0.3,0.2-0.7,0.2-1.2s-0.1-0.9-0.2-1.2c-0.1-0.3-0.3-0.6-0.5-0.7c-0.2-0.2-0.5-0.2-0.9-0.2c-0.5,0-0.9,0.2-1.2,0.5
			C535.8,190.3,535.6,190.9,535.6,191.6z M544.3,195.2h-2v-10.1h2V195.2z M548.1,195.2l-2.8-7.3h2.1l1.4,4.2
			c0.1,0.2,0.1,0.5,0.2,0.8c0.1,0.3,0.1,0.5,0.1,0.7h0c0-0.2,0-0.5,0.1-0.7c0.1-0.3,0.1-0.5,0.2-0.8l1.4-4.2h2.1l-2.8,7.3H548.1z
			 M555.9,188v7.3h-2V188H555.9z M554.9,185.1c0.3,0,0.6,0.1,0.8,0.2c0.2,0.1,0.3,0.4,0.3,0.8c0,0.4-0.1,0.6-0.3,0.8
			c-0.2,0.1-0.5,0.2-0.8,0.2c-0.3,0-0.5-0.1-0.8-0.2c-0.2-0.1-0.3-0.4-0.3-0.8c0-0.4,0.1-0.6,0.3-0.8
			C554.4,185.2,554.7,185.1,554.9,185.1z M566.6,187.8c0.8,0,1.4,0.2,1.9,0.6c0.4,0.4,0.6,1.1,0.6,2v4.8h-2V191
			c0-0.5-0.1-0.9-0.3-1.2c-0.2-0.3-0.5-0.4-0.8-0.4c-0.5,0-0.9,0.2-1.1,0.6s-0.3,0.9-0.3,1.6v3.7h-2V191c0-0.3,0-0.6-0.1-0.9
			c-0.1-0.2-0.2-0.4-0.4-0.5c-0.2-0.1-0.4-0.2-0.6-0.2c-0.4,0-0.7,0.1-0.9,0.3s-0.4,0.5-0.5,0.8c-0.1,0.4-0.1,0.8-0.1,1.3v3.4h-2
			V188h1.5l0.3,0.9h0.1c0.1-0.2,0.3-0.5,0.5-0.6c0.2-0.2,0.5-0.3,0.8-0.3s0.5-0.1,0.8-0.1c0.5,0,1,0.1,1.4,0.3
			c0.4,0.2,0.7,0.4,0.9,0.8h0.2c0.2-0.4,0.5-0.6,0.9-0.8S566.2,187.8,566.6,187.8z M574.1,187.8c0.7,0,1.2,0.1,1.7,0.4
			c0.5,0.2,0.9,0.6,1.1,1.1c0.3,0.5,0.4,1.1,0.4,1.8v1h-4.7c0,0.6,0.2,1,0.5,1.3c0.3,0.3,0.8,0.5,1.3,0.5c0.5,0,0.9,0,1.3-0.1
			c0.4-0.1,0.8-0.2,1.2-0.4v1.5c-0.4,0.2-0.7,0.3-1.1,0.4c-0.4,0.1-0.9,0.1-1.4,0.1c-0.7,0-1.4-0.1-1.9-0.4c-0.6-0.3-1-0.7-1.3-1.2
			c-0.3-0.6-0.5-1.2-0.5-2.1c0-0.9,0.1-1.6,0.4-2.1c0.3-0.6,0.7-1,1.2-1.3C572.8,188,573.4,187.8,574.1,187.8z M574.1,189.2
			c-0.4,0-0.7,0.1-1,0.4c-0.2,0.2-0.4,0.6-0.4,1.2h2.8c0-0.3-0.1-0.6-0.2-0.8c-0.1-0.2-0.3-0.4-0.5-0.5
			C574.7,189.3,574.4,189.2,574.1,189.2z M583.1,187.8c0.8,0,1.4,0.2,1.9,0.6c0.5,0.4,0.7,1.1,0.7,2v4.8h-2V191
			c0-0.5-0.1-0.9-0.3-1.2c-0.2-0.3-0.5-0.4-0.9-0.4c-0.6,0-1,0.2-1.2,0.6c-0.2,0.4-0.3,1-0.3,1.8v3.4h-2V188h1.5l0.3,0.9h0.1
			c0.2-0.2,0.3-0.5,0.6-0.6s0.5-0.3,0.8-0.3C582.5,187.9,582.8,187.8,583.1,187.8z M590.8,193.8c0.2,0,0.4,0,0.6-0.1
			c0.2,0,0.4-0.1,0.6-0.2v1.5c-0.2,0.1-0.5,0.2-0.8,0.2s-0.7,0.1-1,0.1c-0.4,0-0.8-0.1-1.2-0.2c-0.3-0.1-0.6-0.4-0.8-0.7
			c-0.2-0.4-0.3-0.8-0.3-1.5v-3.5H587v-0.8l1.1-0.7l0.6-1.5h1.3v1.5h2v1.5h-2v3.5c0,0.3,0.1,0.5,0.2,0.6
			C590.3,193.7,590.6,193.8,590.8,193.8z M600.1,191.6c0,0.6-0.1,1.2-0.2,1.6c-0.2,0.5-0.4,0.9-0.7,1.2s-0.7,0.6-1.1,0.7
			c-0.4,0.2-0.9,0.2-1.5,0.2c-0.5,0-1-0.1-1.4-0.2c-0.4-0.2-0.8-0.4-1.1-0.7c-0.3-0.3-0.6-0.7-0.7-1.2c-0.2-0.5-0.2-1-0.2-1.6
			c0-0.8,0.1-1.5,0.4-2c0.3-0.6,0.7-1,1.2-1.3c0.5-0.3,1.2-0.4,1.9-0.4c0.7,0,1.3,0.1,1.8,0.4c0.5,0.3,0.9,0.7,1.2,1.3
			C600,190.1,600.1,190.8,600.1,191.6z M595.1,191.6c0,0.5,0.1,0.9,0.2,1.2c0.1,0.3,0.3,0.6,0.5,0.7c0.2,0.2,0.5,0.2,0.9,0.2
			c0.4,0,0.6-0.1,0.9-0.2c0.2-0.2,0.4-0.4,0.5-0.7c0.1-0.3,0.2-0.7,0.2-1.2s-0.1-0.9-0.2-1.2c-0.1-0.3-0.3-0.6-0.5-0.7
			c-0.2-0.2-0.5-0.2-0.9-0.2c-0.5,0-0.9,0.2-1.2,0.5C595.2,190.3,595.1,190.9,595.1,191.6z"/>
		<path class="st5" d="M507.7,201.7c1.2,0,2.1,0.3,2.7,0.8c0.6,0.5,0.8,1.2,0.8,2.2c0,0.4-0.1,0.8-0.2,1.2c-0.1,0.4-0.3,0.7-0.6,1
			c-0.3,0.3-0.7,0.5-1.1,0.7c-0.5,0.2-1.1,0.2-1.8,0.2h-0.9v3.4h-2v-9.5H507.7z M507.5,203.4h-0.9v2.8h0.7c0.4,0,0.7-0.1,1-0.2
			s0.5-0.3,0.6-0.5c0.2-0.2,0.2-0.5,0.2-0.8c0-0.5-0.1-0.8-0.4-1C508.5,203.5,508.1,203.4,507.5,203.4z M516.9,203.8
			c0.1,0,0.2,0,0.3,0c0.1,0,0.2,0,0.3,0l-0.1,1.9c-0.1,0-0.2,0-0.3,0c-0.1,0-0.2,0-0.3,0c-0.2,0-0.5,0-0.7,0.1
			c-0.2,0.1-0.5,0.2-0.7,0.3c-0.2,0.1-0.3,0.3-0.5,0.6c-0.1,0.2-0.2,0.5-0.2,0.9v3.7h-2V204h1.5l0.3,1.2h0.1
			c0.1-0.2,0.3-0.5,0.5-0.7c0.2-0.2,0.5-0.4,0.7-0.5C516.3,203.9,516.6,203.8,516.9,203.8z M525.5,207.6c0,0.6-0.1,1.2-0.2,1.6
			c-0.2,0.5-0.4,0.9-0.7,1.2s-0.7,0.6-1.1,0.7c-0.4,0.2-0.9,0.2-1.5,0.2c-0.5,0-1-0.1-1.4-0.2c-0.4-0.2-0.8-0.4-1.1-0.7
			c-0.3-0.3-0.6-0.7-0.7-1.2c-0.2-0.5-0.2-1-0.2-1.6c0-0.8,0.1-1.5,0.4-2c0.3-0.6,0.7-1,1.2-1.3c0.5-0.3,1.2-0.4,1.9-0.4
			c0.7,0,1.3,0.1,1.8,0.4c0.5,0.3,0.9,0.7,1.2,1.3C525.3,206.1,525.5,206.8,525.5,207.6z M520.5,207.6c0,0.5,0.1,0.9,0.2,1.2
			c0.1,0.3,0.3,0.6,0.5,0.7c0.2,0.2,0.5,0.2,0.9,0.2c0.4,0,0.6-0.1,0.9-0.2c0.2-0.2,0.4-0.4,0.5-0.7c0.1-0.3,0.2-0.7,0.2-1.2
			s-0.1-0.9-0.2-1.2c-0.1-0.3-0.3-0.6-0.5-0.7c-0.2-0.2-0.5-0.2-0.9-0.2c-0.5,0-0.9,0.2-1.2,0.5
			C520.6,206.3,520.5,206.9,520.5,207.6z M531.2,205.5h-1.7v5.8h-2v-5.8h-1.1v-1l1.1-0.5v-0.5c0-0.6,0.1-1.1,0.3-1.4
			c0.2-0.4,0.5-0.6,0.9-0.7c0.4-0.1,0.8-0.2,1.4-0.2c0.4,0,0.7,0,1,0.1s0.6,0.1,0.8,0.2l-0.5,1.5c-0.1,0-0.3-0.1-0.5-0.1
			c-0.2,0-0.4-0.1-0.6-0.1c-0.3,0-0.5,0.1-0.6,0.2c-0.1,0.2-0.2,0.4-0.2,0.6v0.5h1.7V205.5z M534.3,204v7.3h-2V204H534.3z
			 M533.3,201.1c0.3,0,0.6,0.1,0.8,0.2c0.2,0.1,0.3,0.4,0.3,0.8c0,0.4-0.1,0.6-0.3,0.8c-0.2,0.1-0.5,0.2-0.8,0.2
			c-0.3,0-0.5-0.1-0.8-0.2c-0.2-0.1-0.3-0.4-0.3-0.8c0-0.4,0.1-0.6,0.3-0.8C532.7,201.2,533,201.1,533.3,201.1z M541.4,209.1
			c0,0.5-0.1,0.9-0.4,1.2c-0.2,0.3-0.6,0.6-1,0.8c-0.5,0.2-1,0.2-1.7,0.2c-0.5,0-0.9,0-1.3-0.1c-0.4-0.1-0.7-0.2-1.1-0.3v-1.6
			c0.4,0.2,0.8,0.3,1.3,0.4c0.5,0.1,0.9,0.2,1.2,0.2c0.4,0,0.7-0.1,0.8-0.2c0.2-0.1,0.2-0.3,0.2-0.5c0-0.1,0-0.2-0.1-0.3
			c-0.1-0.1-0.2-0.2-0.4-0.3s-0.6-0.3-1-0.5c-0.4-0.2-0.8-0.4-1.1-0.6c-0.3-0.2-0.5-0.4-0.7-0.7c-0.1-0.3-0.2-0.6-0.2-1
			c0-0.7,0.3-1.2,0.8-1.5c0.5-0.3,1.2-0.5,2.1-0.5c0.4,0,0.9,0,1.3,0.1c0.4,0.1,0.8,0.2,1.3,0.4l-0.6,1.4c-0.4-0.2-0.7-0.3-1-0.4
			c-0.3-0.1-0.6-0.2-1-0.2c-0.3,0-0.5,0-0.7,0.1c-0.1,0.1-0.2,0.2-0.2,0.3c0,0.1,0,0.2,0.1,0.3c0.1,0.1,0.2,0.2,0.4,0.3
			c0.2,0.1,0.5,0.2,1,0.4c0.4,0.2,0.8,0.3,1.1,0.5c0.3,0.2,0.5,0.4,0.7,0.7C541.4,208.3,541.4,208.6,541.4,209.1z M548.1,209.1
			c0,0.5-0.1,0.9-0.4,1.2c-0.2,0.3-0.6,0.6-1,0.8c-0.5,0.2-1,0.2-1.7,0.2c-0.5,0-0.9,0-1.3-0.1c-0.4-0.1-0.7-0.2-1.1-0.3v-1.6
			c0.4,0.2,0.8,0.3,1.3,0.4c0.5,0.1,0.9,0.2,1.2,0.2c0.4,0,0.7-0.1,0.8-0.2c0.2-0.1,0.2-0.3,0.2-0.5c0-0.1,0-0.2-0.1-0.3
			c-0.1-0.1-0.2-0.2-0.4-0.3s-0.6-0.3-1-0.5c-0.4-0.2-0.8-0.4-1.1-0.6c-0.3-0.2-0.5-0.4-0.7-0.7c-0.1-0.3-0.2-0.6-0.2-1
			c0-0.7,0.3-1.2,0.8-1.5c0.5-0.3,1.2-0.5,2.1-0.5c0.4,0,0.9,0,1.3,0.1c0.4,0.1,0.8,0.2,1.3,0.4l-0.6,1.4c-0.4-0.2-0.7-0.3-1-0.4
			c-0.3-0.1-0.6-0.2-1-0.2c-0.3,0-0.5,0-0.7,0.1c-0.1,0.1-0.2,0.2-0.2,0.3c0,0.1,0,0.2,0.1,0.3c0.1,0.1,0.2,0.2,0.4,0.3
			c0.2,0.1,0.5,0.2,1,0.4c0.4,0.2,0.8,0.3,1.1,0.5c0.3,0.2,0.5,0.4,0.7,0.7C548,208.3,548.1,208.6,548.1,209.1z M551.6,204v7.3h-2
			V204H551.6z M550.6,201.1c0.3,0,0.6,0.1,0.8,0.2c0.2,0.1,0.3,0.4,0.3,0.8c0,0.4-0.1,0.6-0.3,0.8c-0.2,0.1-0.5,0.2-0.8,0.2
			c-0.3,0-0.5-0.1-0.8-0.2c-0.2-0.1-0.3-0.4-0.3-0.8c0-0.4,0.1-0.6,0.3-0.8C550,201.2,550.3,201.1,550.6,201.1z M560.3,207.6
			c0,0.6-0.1,1.2-0.2,1.6c-0.2,0.5-0.4,0.9-0.7,1.2s-0.7,0.6-1.1,0.7c-0.4,0.2-0.9,0.2-1.5,0.2c-0.5,0-1-0.1-1.4-0.2
			c-0.4-0.2-0.8-0.4-1.1-0.7c-0.3-0.3-0.6-0.7-0.7-1.2c-0.2-0.5-0.2-1-0.2-1.6c0-0.8,0.1-1.5,0.4-2c0.3-0.6,0.7-1,1.2-1.3
			c0.5-0.3,1.2-0.4,1.9-0.4c0.7,0,1.3,0.1,1.8,0.4c0.5,0.3,0.9,0.7,1.2,1.3S560.3,206.8,560.3,207.6z M555.3,207.6
			c0,0.5,0.1,0.9,0.2,1.2c0.1,0.3,0.3,0.6,0.5,0.7c0.2,0.2,0.5,0.2,0.9,0.2s0.6-0.1,0.9-0.2c0.2-0.2,0.4-0.4,0.5-0.7
			c0.1-0.3,0.2-0.7,0.2-1.2s-0.1-0.9-0.2-1.2c-0.1-0.3-0.3-0.6-0.5-0.7c-0.2-0.2-0.5-0.2-0.9-0.2c-0.5,0-0.9,0.2-1.2,0.5
			C555.4,206.3,555.3,206.9,555.3,207.6z M566.1,203.8c0.8,0,1.4,0.2,1.9,0.6c0.5,0.4,0.7,1.1,0.7,2v4.8h-2V207
			c0-0.5-0.1-0.9-0.3-1.2c-0.2-0.3-0.5-0.4-0.9-0.4c-0.6,0-1,0.2-1.2,0.6c-0.2,0.4-0.3,1-0.3,1.8v3.4h-2V204h1.5l0.3,0.9h0.1
			c0.2-0.2,0.3-0.5,0.6-0.6c0.2-0.2,0.5-0.3,0.8-0.3C565.5,203.9,565.8,203.8,566.1,203.8z M573.7,203.8c1,0,1.7,0.2,2.2,0.6
			c0.5,0.4,0.8,1.1,0.8,1.9v4.8h-1.4l-0.4-1h-0.1c-0.2,0.3-0.4,0.5-0.6,0.6c-0.2,0.2-0.5,0.3-0.7,0.3c-0.3,0.1-0.6,0.1-1,0.1
			c-0.4,0-0.8-0.1-1.2-0.2c-0.3-0.2-0.6-0.4-0.8-0.8c-0.2-0.3-0.3-0.8-0.3-1.3c0-0.8,0.3-1.3,0.8-1.7c0.5-0.4,1.4-0.6,2.4-0.6l1.3,0
			v-0.3c0-0.4-0.1-0.7-0.3-0.8s-0.5-0.3-0.8-0.3c-0.3,0-0.7,0.1-1,0.2c-0.3,0.1-0.7,0.2-1,0.4l-0.7-1.3c0.4-0.2,0.8-0.4,1.3-0.5
			S573.1,203.8,573.7,203.8z M574.7,207.9l-0.8,0c-0.6,0-1.1,0.1-1.3,0.3s-0.4,0.5-0.4,0.8c0,0.3,0.1,0.5,0.3,0.6s0.4,0.2,0.7,0.2
			c0.4,0,0.8-0.1,1.1-0.4s0.4-0.6,0.4-1.1V207.9z M580.7,211.2h-2v-10.1h2V211.2z"/>
		<path class="st3" d="M474.5,240.5L474.5,240.5c0-3.8,3.1-6.9,6.9-6.9h122.3c1.8,0,3.6,0.7,4.9,2c1.3,1.3,2,3.1,2,4.9v27.7
			c0,3.8-3.1,6.9-6.9,6.9H481.5c-3.8,0-6.9-3.1-6.9-6.9V240.5z"/>
		<path class="st4" d="M474.5,240.5L474.5,240.5c0-3.8,3.1-6.9,6.9-6.9h122.3c1.8,0,3.6,0.7,4.9,2c1.3,1.3,2,3.1,2,4.9v27.7
			c0,3.8-3.1,6.9-6.9,6.9H481.5c-3.8,0-6.9-3.1-6.9-6.9V240.5z"/>
		<path class="st5" d="M503.5,255.9l-2.1-6.7h0c0,0.2,0,0.4,0,0.7c0,0.3,0,0.7,0,1c0,0.4,0,0.7,0,1v4h-1.6v-8.6h2.5l2,6.5h0l2.2-6.5
			h2.5v8.6h-1.7v-4.1c0-0.3,0-0.6,0-0.9c0-0.4,0-0.7,0-1c0-0.3,0-0.6,0-0.7h0l-2.2,6.7H503.5z M513.7,249.3c0.6,0,1.1,0.1,1.6,0.3
			c0.4,0.2,0.8,0.6,1,1c0.2,0.4,0.4,1,0.4,1.6v0.9h-4.2c0,0.5,0.2,0.9,0.5,1.2c0.3,0.3,0.7,0.4,1.2,0.4c0.4,0,0.8,0,1.1-0.1
			c0.4-0.1,0.7-0.2,1.1-0.4v1.4c-0.3,0.2-0.7,0.3-1,0.3c-0.4,0.1-0.8,0.1-1.3,0.1c-0.7,0-1.2-0.1-1.8-0.4c-0.5-0.2-0.9-0.6-1.2-1.1
			c-0.3-0.5-0.4-1.1-0.4-1.9c0-0.8,0.1-1.4,0.4-1.9c0.3-0.5,0.6-0.9,1.1-1.1C512.6,249.4,513.1,249.3,513.7,249.3z M513.7,250.5
			c-0.4,0-0.6,0.1-0.9,0.3c-0.2,0.2-0.4,0.6-0.4,1h2.5c0-0.3-0.1-0.5-0.2-0.7c-0.1-0.2-0.2-0.4-0.4-0.5
			C514.3,250.6,514,250.5,513.7,250.5z M520.9,254.6c0.2,0,0.4,0,0.6,0c0.2,0,0.4-0.1,0.6-0.2v1.3c-0.2,0.1-0.4,0.2-0.7,0.2
			c-0.3,0.1-0.6,0.1-0.9,0.1c-0.4,0-0.8-0.1-1.1-0.2c-0.3-0.1-0.5-0.4-0.7-0.7c-0.2-0.3-0.3-0.8-0.3-1.3v-3.2h-0.8V250l1-0.6
			l0.5-1.4h1.1v1.4h1.8v1.3h-1.8v3.2c0,0.2,0.1,0.4,0.2,0.6C520.4,254.6,520.6,254.6,520.9,254.6z M526,249.2c0.9,0,1.5,0.2,2,0.6
			c0.5,0.4,0.7,1,0.7,1.8v4.4h-1.2l-0.3-0.9h0c-0.2,0.2-0.4,0.4-0.6,0.6c-0.2,0.1-0.4,0.3-0.7,0.3c-0.2,0.1-0.6,0.1-0.9,0.1
			c-0.4,0-0.7-0.1-1-0.2c-0.3-0.2-0.5-0.4-0.7-0.7c-0.2-0.3-0.3-0.7-0.3-1.2c0-0.7,0.2-1.2,0.7-1.5c0.5-0.3,1.2-0.5,2.2-0.6l1.1,0
			v-0.3c0-0.3-0.1-0.6-0.3-0.8c-0.2-0.2-0.4-0.2-0.8-0.2c-0.3,0-0.6,0-0.9,0.1c-0.3,0.1-0.6,0.2-0.9,0.3l-0.6-1.2
			c0.4-0.2,0.7-0.3,1.2-0.4C525.1,249.3,525.6,249.2,526,249.2z M527,252.9l-0.7,0c-0.6,0-1,0.1-1.2,0.3c-0.2,0.2-0.3,0.4-0.3,0.8
			c0,0.3,0.1,0.5,0.2,0.6c0.2,0.1,0.4,0.2,0.6,0.2c0.4,0,0.7-0.1,1-0.3c0.3-0.2,0.4-0.6,0.4-1V252.9z M535.1,254
			c0,0.4-0.1,0.8-0.3,1.1c-0.2,0.3-0.5,0.5-0.9,0.7c-0.4,0.2-0.9,0.2-1.5,0.2c-0.5,0-0.9,0-1.2-0.1c-0.3-0.1-0.7-0.2-1-0.3v-1.5
			c0.4,0.2,0.7,0.3,1.1,0.4c0.4,0.1,0.8,0.2,1.1,0.2c0.4,0,0.6-0.1,0.8-0.2c0.2-0.1,0.2-0.2,0.2-0.4c0-0.1,0-0.2-0.1-0.3
			c-0.1-0.1-0.2-0.2-0.4-0.3c-0.2-0.1-0.5-0.3-0.9-0.4c-0.4-0.2-0.7-0.3-1-0.5c-0.3-0.2-0.5-0.4-0.6-0.6c-0.1-0.2-0.2-0.6-0.2-0.9
			c0-0.6,0.2-1.1,0.7-1.4c0.5-0.3,1.1-0.5,1.9-0.5c0.4,0,0.8,0,1.2,0.1c0.4,0.1,0.8,0.2,1.1,0.4l-0.5,1.3c-0.3-0.1-0.6-0.2-0.9-0.3
			c-0.3-0.1-0.6-0.1-0.9-0.1c-0.3,0-0.5,0-0.6,0.1c-0.1,0.1-0.2,0.2-0.2,0.3c0,0.1,0,0.2,0.1,0.3c0.1,0.1,0.2,0.2,0.4,0.3
			c0.2,0.1,0.5,0.2,0.9,0.4c0.4,0.2,0.7,0.3,1,0.5c0.3,0.2,0.5,0.4,0.6,0.6C535.1,253.3,535.1,253.6,535.1,254z M542.4,249.3
			c0.6,0,1.1,0.1,1.6,0.3c0.4,0.2,0.8,0.6,1,1c0.2,0.4,0.4,1,0.4,1.6v0.9h-4.2c0,0.5,0.2,0.9,0.5,1.2c0.3,0.3,0.7,0.4,1.2,0.4
			c0.4,0,0.8,0,1.1-0.1c0.4-0.1,0.7-0.2,1.1-0.4v1.4c-0.3,0.2-0.7,0.3-1,0.3c-0.4,0.1-0.8,0.1-1.3,0.1c-0.7,0-1.2-0.1-1.8-0.4
			c-0.5-0.2-0.9-0.6-1.2-1.1c-0.3-0.5-0.4-1.1-0.4-1.9c0-0.8,0.1-1.4,0.4-1.9c0.3-0.5,0.6-0.9,1.1-1.1
			C541.2,249.4,541.7,249.3,542.4,249.3z M542.4,250.5c-0.4,0-0.6,0.1-0.9,0.3c-0.2,0.2-0.4,0.6-0.4,1h2.5c0-0.3-0.1-0.5-0.2-0.7
			c-0.1-0.2-0.2-0.4-0.4-0.5C542.9,250.6,542.7,250.5,542.4,250.5z M552.6,254.6c0.2,0,0.4,0,0.6,0c0.2,0,0.4-0.1,0.6-0.2v1.3
			c-0.2,0.1-0.4,0.2-0.7,0.2c-0.3,0.1-0.6,0.1-0.9,0.1c-0.4,0-0.8-0.1-1.1-0.2c-0.3-0.1-0.5-0.4-0.7-0.7c-0.2-0.3-0.3-0.8-0.3-1.3
			v-3.2h-0.8V250l1-0.6l0.5-1.4h1.1v1.4h1.8v1.3h-1.8v3.2c0,0.2,0.1,0.4,0.2,0.6C552.2,254.6,552.4,254.6,552.6,254.6z M561,252.6
			c0,0.5-0.1,1-0.2,1.5c-0.1,0.4-0.4,0.8-0.6,1.1c-0.3,0.3-0.6,0.5-1,0.7c-0.4,0.1-0.8,0.2-1.3,0.2c-0.5,0-0.9-0.1-1.3-0.2
			c-0.4-0.2-0.7-0.4-1-0.7c-0.3-0.3-0.5-0.6-0.7-1.1c-0.1-0.4-0.2-0.9-0.2-1.5c0-0.7,0.1-1.3,0.4-1.8c0.3-0.5,0.6-0.9,1.1-1.2
			c0.5-0.3,1-0.4,1.7-0.4c0.6,0,1.2,0.1,1.6,0.4c0.5,0.3,0.9,0.6,1.1,1.2C560.9,251.3,561,251.9,561,252.6z M556.5,252.6
			c0,0.4,0,0.8,0.1,1.1c0.1,0.3,0.2,0.5,0.4,0.7c0.2,0.1,0.5,0.2,0.8,0.2c0.3,0,0.6-0.1,0.8-0.2c0.2-0.2,0.3-0.4,0.4-0.7
			c0.1-0.3,0.1-0.7,0.1-1.1c0-0.4,0-0.8-0.1-1.1c-0.1-0.3-0.2-0.5-0.4-0.7c-0.2-0.1-0.5-0.2-0.8-0.2c-0.5,0-0.8,0.2-1,0.5
			C556.6,251.5,556.5,252,556.5,252.6z M561.9,253.4V252h3.1v1.5H561.9z M568.4,256.1c-0.7,0-1.3-0.3-1.8-0.9
			c-0.5-0.6-0.7-1.4-0.7-2.5c0-1.1,0.2-2,0.7-2.5c0.5-0.6,1.1-0.9,1.8-0.9c0.3,0,0.6,0,0.8,0.1c0.2,0.1,0.4,0.2,0.6,0.3
			c0.2,0.1,0.3,0.3,0.5,0.5h0c0-0.1,0-0.3-0.1-0.5c0-0.2,0-0.5,0-0.8v-2.1h1.8v9.1h-1.4l-0.3-0.8h-0.1c-0.1,0.2-0.3,0.3-0.4,0.5
			c-0.2,0.1-0.4,0.3-0.6,0.4C569,256,568.7,256.1,568.4,256.1z M569.1,254.6c0.5,0,0.8-0.1,1-0.4c0.2-0.3,0.3-0.7,0.3-1.3v-0.2
			c0-0.6-0.1-1.1-0.3-1.5c-0.2-0.3-0.6-0.5-1.1-0.5c-0.4,0-0.7,0.2-0.9,0.5c-0.2,0.3-0.3,0.8-0.3,1.5c0,0.6,0.1,1.1,0.3,1.4
			C568.3,254.5,568.7,254.6,569.1,254.6z M579.9,252.6c0,0.5-0.1,1-0.2,1.5c-0.1,0.4-0.4,0.8-0.6,1.1c-0.3,0.3-0.6,0.5-1,0.7
			c-0.4,0.1-0.8,0.2-1.3,0.2c-0.5,0-0.9-0.1-1.3-0.2c-0.4-0.2-0.7-0.4-1-0.7c-0.3-0.3-0.5-0.6-0.7-1.1c-0.1-0.4-0.2-0.9-0.2-1.5
			c0-0.7,0.1-1.3,0.4-1.8c0.3-0.5,0.6-0.9,1.1-1.2c0.5-0.3,1-0.4,1.7-0.4c0.6,0,1.2,0.1,1.6,0.4c0.5,0.3,0.9,0.6,1.1,1.2
			C579.8,251.3,579.9,251.9,579.9,252.6z M575.4,252.6c0,0.4,0,0.8,0.1,1.1c0.1,0.3,0.2,0.5,0.4,0.7c0.2,0.1,0.5,0.2,0.8,0.2
			c0.3,0,0.6-0.1,0.8-0.2c0.2-0.2,0.3-0.4,0.4-0.7c0.1-0.3,0.1-0.7,0.1-1.1c0-0.4,0-0.8-0.1-1.1c-0.1-0.3-0.2-0.5-0.4-0.7
			c-0.2-0.1-0.5-0.2-0.8-0.2c-0.5,0-0.8,0.2-1,0.5C575.5,251.5,575.4,252,575.4,252.6z M586,254c0,0.4-0.1,0.8-0.3,1.1
			c-0.2,0.3-0.5,0.5-0.9,0.7c-0.4,0.2-0.9,0.2-1.5,0.2c-0.5,0-0.9,0-1.2-0.1c-0.3-0.1-0.7-0.2-1-0.3v-1.5c0.4,0.2,0.7,0.3,1.1,0.4
			c0.4,0.1,0.8,0.2,1.1,0.2c0.4,0,0.6-0.1,0.8-0.2c0.2-0.1,0.2-0.2,0.2-0.4c0-0.1,0-0.2-0.1-0.3c-0.1-0.1-0.2-0.2-0.4-0.3
			c-0.2-0.1-0.5-0.3-0.9-0.4c-0.4-0.2-0.7-0.3-1-0.5c-0.3-0.2-0.5-0.4-0.6-0.6c-0.1-0.2-0.2-0.6-0.2-0.9c0-0.6,0.2-1.1,0.7-1.4
			c0.5-0.3,1.1-0.5,1.9-0.5c0.4,0,0.8,0,1.2,0.1c0.4,0.1,0.8,0.2,1.1,0.4l-0.5,1.3c-0.3-0.1-0.6-0.2-0.9-0.3
			c-0.3-0.1-0.6-0.1-0.9-0.1c-0.3,0-0.5,0-0.6,0.1c-0.1,0.1-0.2,0.2-0.2,0.3c0,0.1,0,0.2,0.1,0.3c0.1,0.1,0.2,0.2,0.4,0.3
			c0.2,0.1,0.5,0.2,0.9,0.4c0.4,0.2,0.7,0.3,1,0.5c0.3,0.2,0.5,0.4,0.6,0.6C585.9,253.3,586,253.6,586,254z"/>
		<path class="st3" d="M313.4,240.5L313.4,240.5c0-3.8,3.1-6.9,6.9-6.9h122.3c1.8,0,3.6,0.7,4.9,2s2,3.1,2,4.9v27.7
			c0,3.8-3.1,6.9-6.9,6.9H320.4c-3.8,0-6.9-3.1-6.9-6.9V240.5z"/>
		<path class="st4" d="M313.4,240.5L313.4,240.5c0-3.8,3.1-6.9,6.9-6.9h122.3c1.8,0,3.6,0.7,4.9,2s2,3.1,2,4.9v27.7
			c0,3.8-3.1,6.9-6.9,6.9H320.4c-3.8,0-6.9-3.1-6.9-6.9V240.5z"/>
		<path class="st5" d="M365.4,249.6c0,0.5-0.1,0.9-0.4,1.3c-0.2,0.4-0.6,0.7-1.1,0.9c-0.5,0.2-1,0.3-1.7,0.3c-0.3,0-0.6,0-0.9-0.1
			c-0.3,0-0.6-0.1-0.8-0.2c-0.3-0.1-0.5-0.2-0.8-0.3v-1.7c0.4,0.2,0.8,0.4,1.3,0.5c0.4,0.1,0.9,0.2,1.3,0.2c0.3,0,0.5,0,0.7-0.1
			c0.2-0.1,0.3-0.2,0.4-0.3c0.1-0.1,0.1-0.3,0.1-0.5c0-0.2-0.1-0.4-0.2-0.5c-0.1-0.2-0.3-0.3-0.6-0.4c-0.2-0.1-0.5-0.3-0.9-0.4
			c-0.2-0.1-0.4-0.2-0.7-0.3c-0.2-0.1-0.4-0.3-0.7-0.5c-0.2-0.2-0.4-0.4-0.5-0.7c-0.1-0.3-0.2-0.6-0.2-1c0-0.5,0.1-0.9,0.3-1.3
			c0.2-0.4,0.6-0.6,1-0.8c0.4-0.2,1-0.3,1.5-0.3c0.4,0,0.9,0.1,1.3,0.2c0.4,0.1,0.8,0.3,1.3,0.4l-0.6,1.4c-0.4-0.2-0.8-0.3-1.1-0.4
			c-0.3-0.1-0.6-0.1-1-0.1c-0.2,0-0.4,0-0.6,0.1c-0.2,0.1-0.3,0.2-0.4,0.3c-0.1,0.1-0.1,0.3-0.1,0.5c0,0.2,0.1,0.4,0.2,0.5
			c0.1,0.1,0.3,0.3,0.5,0.4c0.2,0.1,0.5,0.3,0.9,0.4c0.4,0.2,0.8,0.4,1.1,0.7c0.3,0.2,0.6,0.5,0.7,0.8
			C365.3,248.7,365.4,249.1,365.4,249.6z M372.7,248.6c0,0.5-0.1,1-0.2,1.5c-0.1,0.4-0.4,0.8-0.6,1.1c-0.3,0.3-0.6,0.5-1,0.7
			c-0.4,0.1-0.8,0.2-1.3,0.2c-0.5,0-0.9-0.1-1.3-0.2c-0.4-0.2-0.7-0.4-1-0.7c-0.3-0.3-0.5-0.6-0.7-1.1c-0.1-0.4-0.2-0.9-0.2-1.5
			c0-0.7,0.1-1.3,0.4-1.8c0.3-0.5,0.6-0.9,1.1-1.2c0.5-0.3,1-0.4,1.7-0.4c0.6,0,1.2,0.1,1.6,0.4c0.5,0.3,0.9,0.6,1.1,1.2
			C372.6,247.3,372.7,247.9,372.7,248.6z M368.2,248.6c0,0.4,0,0.8,0.1,1.1c0.1,0.3,0.2,0.5,0.4,0.7c0.2,0.1,0.5,0.2,0.8,0.2
			c0.3,0,0.6-0.1,0.8-0.2c0.2-0.2,0.3-0.4,0.4-0.7c0.1-0.3,0.1-0.7,0.1-1.1c0-0.4,0-0.8-0.1-1.1c-0.1-0.3-0.2-0.5-0.4-0.7
			c-0.2-0.1-0.5-0.2-0.8-0.2c-0.5,0-0.8,0.2-1,0.5C368.3,247.5,368.2,248,368.2,248.6z M376,242.8v2.1c0,0.3,0,0.5,0,0.7
			c0,0.2,0,0.4,0,0.6h0.1c0.2-0.3,0.4-0.5,0.7-0.7c0.3-0.2,0.7-0.3,1.2-0.3c0.7,0,1.3,0.3,1.8,0.9c0.5,0.6,0.7,1.4,0.7,2.5
			c0,0.7-0.1,1.4-0.3,1.9c-0.2,0.5-0.5,0.9-0.9,1.1c-0.4,0.3-0.8,0.4-1.3,0.4c-0.5,0-0.9-0.1-1.1-0.3c-0.3-0.2-0.5-0.4-0.7-0.6h-0.1
			l-0.3,0.7h-1.4v-9.1H376z M377.3,246.7c-0.3,0-0.6,0.1-0.8,0.2c-0.2,0.1-0.3,0.3-0.4,0.6c-0.1,0.3-0.1,0.6-0.1,1v0.2
			c0,0.6,0.1,1.1,0.3,1.5c0.2,0.3,0.5,0.5,1,0.5c0.4,0,0.7-0.2,0.9-0.5c0.2-0.3,0.3-0.8,0.3-1.5c0-0.6-0.1-1.1-0.3-1.4
			C378,246.8,377.7,246.7,377.3,246.7z M385.5,245.3c0.1,0,0.2,0,0.3,0c0.1,0,0.2,0,0.3,0l-0.1,1.7c-0.1,0-0.1,0-0.2,0
			c-0.1,0-0.2,0-0.3,0c-0.2,0-0.5,0-0.7,0.1c-0.2,0.1-0.4,0.1-0.6,0.3c-0.2,0.1-0.3,0.3-0.4,0.5c-0.1,0.2-0.2,0.5-0.2,0.8v3.3h-1.8
			v-6.5h1.4l0.3,1.1h0.1c0.1-0.2,0.3-0.4,0.5-0.6c0.2-0.2,0.4-0.3,0.7-0.4C384.9,245.3,385.2,245.3,385.5,245.3z M390,245.3
			c0.6,0,1.1,0.1,1.6,0.3c0.4,0.2,0.8,0.6,1,1c0.2,0.4,0.4,1,0.4,1.6v0.9h-4.2c0,0.5,0.2,0.9,0.5,1.2c0.3,0.3,0.7,0.4,1.2,0.4
			c0.4,0,0.8,0,1.1-0.1c0.4-0.1,0.7-0.2,1.1-0.4v1.4c-0.3,0.2-0.7,0.3-1,0.3c-0.4,0.1-0.8,0.1-1.3,0.1c-0.7,0-1.2-0.1-1.8-0.4
			c-0.5-0.2-0.9-0.6-1.2-1.1c-0.3-0.5-0.4-1.1-0.4-1.9c0-0.8,0.1-1.4,0.4-1.9c0.3-0.5,0.6-0.9,1.1-1.1
			C388.8,245.4,389.3,245.3,390,245.3z M390,246.5c-0.4,0-0.6,0.1-0.9,0.3c-0.2,0.2-0.4,0.6-0.4,1h2.5c0-0.3-0.1-0.5-0.2-0.7
			c-0.1-0.2-0.2-0.4-0.4-0.5C390.5,246.6,390.3,246.5,390,246.5z M400.2,245.2c0.9,0,1.5,0.2,2,0.6c0.5,0.4,0.7,1,0.7,1.8v4.4h-1.2
			l-0.3-0.9h0c-0.2,0.2-0.4,0.4-0.6,0.6c-0.2,0.1-0.4,0.3-0.7,0.3c-0.2,0.1-0.6,0.1-0.9,0.1c-0.4,0-0.7-0.1-1-0.2
			c-0.3-0.2-0.5-0.4-0.7-0.7c-0.2-0.3-0.3-0.7-0.3-1.2c0-0.7,0.2-1.2,0.7-1.5c0.5-0.3,1.2-0.5,2.2-0.6l1.1,0v-0.3
			c0-0.3-0.1-0.6-0.3-0.8c-0.2-0.2-0.4-0.2-0.8-0.2c-0.3,0-0.6,0-0.9,0.1c-0.3,0.1-0.6,0.2-0.9,0.3l-0.6-1.2
			c0.4-0.2,0.7-0.3,1.2-0.4C399.2,245.3,399.7,245.2,400.2,245.2z M401.1,248.9l-0.7,0c-0.6,0-1,0.1-1.2,0.3
			c-0.2,0.2-0.3,0.4-0.3,0.8c0,0.3,0.1,0.5,0.2,0.6c0.2,0.1,0.4,0.2,0.6,0.2c0.4,0,0.7-0.1,1-0.3c0.3-0.2,0.4-0.6,0.4-1V248.9z"/>
		<path class="st5" d="M342.2,258.8c-0.3,0-0.7,0.1-0.9,0.2c-0.3,0.1-0.5,0.3-0.7,0.6c-0.2,0.2-0.3,0.6-0.4,0.9
			c-0.1,0.4-0.1,0.8-0.1,1.2c0,0.6,0.1,1.1,0.2,1.6c0.2,0.4,0.4,0.8,0.7,1c0.3,0.2,0.7,0.3,1.2,0.3c0.3,0,0.7,0,1-0.1
			c0.4-0.1,0.7-0.2,1.2-0.3v1.5c-0.4,0.2-0.8,0.3-1.1,0.3c-0.4,0.1-0.8,0.1-1.2,0.1c-0.9,0-1.6-0.2-2.2-0.5c-0.6-0.4-1-0.9-1.2-1.5
			c-0.3-0.7-0.4-1.4-0.4-2.3c0-0.7,0.1-1.2,0.2-1.8c0.2-0.5,0.4-1,0.8-1.4c0.3-0.4,0.8-0.7,1.3-0.9c0.5-0.2,1.1-0.3,1.7-0.3
			c0.4,0,0.9,0.1,1.3,0.2c0.4,0.1,0.8,0.2,1.2,0.4l-0.6,1.5c-0.3-0.2-0.6-0.3-1-0.4C342.9,258.8,342.6,258.8,342.2,258.8z
			 M348.8,259.2c0.9,0,1.5,0.2,2,0.6c0.5,0.4,0.7,1,0.7,1.8v4.4h-1.2l-0.3-0.9h0c-0.2,0.2-0.4,0.4-0.6,0.6c-0.2,0.1-0.4,0.3-0.7,0.3
			c-0.2,0.1-0.6,0.1-0.9,0.1c-0.4,0-0.7-0.1-1-0.2c-0.3-0.2-0.5-0.4-0.7-0.7c-0.2-0.3-0.3-0.7-0.3-1.2c0-0.7,0.2-1.2,0.7-1.5
			c0.5-0.3,1.2-0.5,2.2-0.6l1.1,0v-0.3c0-0.3-0.1-0.6-0.3-0.8c-0.2-0.2-0.4-0.2-0.8-0.2c-0.3,0-0.6,0-0.9,0.1
			c-0.3,0.1-0.6,0.2-0.9,0.3l-0.6-1.2c0.4-0.2,0.7-0.3,1.2-0.4C347.9,259.3,348.3,259.2,348.8,259.2z M349.8,262.9l-0.7,0
			c-0.6,0-1,0.1-1.2,0.3c-0.2,0.2-0.3,0.4-0.3,0.8c0,0.3,0.1,0.5,0.2,0.6c0.2,0.1,0.4,0.2,0.6,0.2c0.4,0,0.7-0.1,1-0.3
			c0.3-0.2,0.4-0.6,0.4-1V262.9z M361,259.3c0.8,0,1.3,0.2,1.7,0.6c0.4,0.4,0.6,1,0.6,1.8v4.3h-1.8v-3.8c0-0.5-0.1-0.8-0.2-1.1
			c-0.2-0.2-0.4-0.4-0.7-0.4c-0.5,0-0.8,0.2-1,0.5c-0.2,0.3-0.3,0.8-0.3,1.5v3.3h-1.8v-3.8c0-0.3,0-0.6-0.1-0.8
			c-0.1-0.2-0.2-0.4-0.3-0.5c-0.1-0.1-0.3-0.2-0.6-0.2c-0.3,0-0.6,0.1-0.8,0.2c-0.2,0.2-0.3,0.4-0.4,0.7c-0.1,0.3-0.1,0.7-0.1,1.2
			v3.1h-1.8v-6.5h1.4l0.2,0.8h0.1c0.1-0.2,0.3-0.4,0.5-0.5c0.2-0.1,0.4-0.2,0.7-0.3c0.2-0.1,0.5-0.1,0.7-0.1c0.5,0,0.9,0.1,1.2,0.2
			c0.3,0.2,0.6,0.4,0.8,0.7h0.2c0.2-0.3,0.5-0.6,0.8-0.7C360.3,259.3,360.7,259.3,361,259.3z M366.9,259.4v6.5h-1.8v-6.5H366.9z
			 M366,256.8c0.3,0,0.5,0.1,0.7,0.2c0.2,0.1,0.3,0.4,0.3,0.7c0,0.3-0.1,0.6-0.3,0.7c-0.2,0.1-0.4,0.2-0.7,0.2
			c-0.3,0-0.5-0.1-0.7-0.2c-0.2-0.1-0.3-0.4-0.3-0.7c0-0.3,0.1-0.6,0.3-0.7C365.5,256.9,365.8,256.8,366,256.8z M372.5,259.3
			c0.7,0,1.3,0.2,1.7,0.6c0.4,0.4,0.6,1,0.6,1.8v4.3h-1.8v-3.8c0-0.5-0.1-0.8-0.3-1.1c-0.2-0.2-0.4-0.4-0.8-0.4
			c-0.5,0-0.9,0.2-1.1,0.6c-0.2,0.4-0.3,0.9-0.3,1.6v3.1h-1.8v-6.5h1.4l0.2,0.8h0.1c0.1-0.2,0.3-0.4,0.5-0.5
			c0.2-0.1,0.4-0.2,0.7-0.3C372,259.3,372.3,259.3,372.5,259.3z M382.6,262.6c0,0.5-0.1,1-0.2,1.5c-0.1,0.4-0.4,0.8-0.6,1.1
			c-0.3,0.3-0.6,0.5-1,0.7c-0.4,0.1-0.8,0.2-1.3,0.2c-0.5,0-0.9-0.1-1.3-0.2c-0.4-0.2-0.7-0.4-1-0.7c-0.3-0.3-0.5-0.6-0.7-1.1
			c-0.1-0.4-0.2-0.9-0.2-1.5c0-0.7,0.1-1.3,0.4-1.8c0.3-0.5,0.6-0.9,1.1-1.2c0.5-0.3,1-0.4,1.7-0.4c0.6,0,1.2,0.1,1.6,0.4
			c0.5,0.3,0.9,0.6,1.1,1.2C382.5,261.3,382.6,261.9,382.6,262.6z M378.1,262.6c0,0.4,0,0.8,0.1,1.1c0.1,0.3,0.2,0.5,0.4,0.7
			c0.2,0.1,0.5,0.2,0.8,0.2c0.3,0,0.6-0.1,0.8-0.2c0.2-0.2,0.3-0.4,0.4-0.7c0.1-0.3,0.1-0.7,0.1-1.1c0-0.4,0-0.8-0.1-1.1
			c-0.1-0.3-0.2-0.5-0.4-0.7c-0.2-0.1-0.5-0.2-0.8-0.2c-0.5,0-0.8,0.2-1,0.5C378.2,261.5,378.1,262,378.1,262.6z M392.4,263.6
			c0,0.5-0.1,0.9-0.4,1.3s-0.6,0.7-1.1,0.9c-0.5,0.2-1,0.3-1.7,0.3c-0.3,0-0.6,0-0.9-0.1c-0.3,0-0.6-0.1-0.8-0.2
			c-0.3-0.1-0.5-0.2-0.8-0.3v-1.7c0.4,0.2,0.8,0.4,1.3,0.5c0.4,0.1,0.9,0.2,1.3,0.2c0.3,0,0.5,0,0.7-0.1c0.2-0.1,0.3-0.2,0.4-0.3
			c0.1-0.1,0.1-0.3,0.1-0.5c0-0.2-0.1-0.4-0.2-0.5c-0.1-0.2-0.3-0.3-0.6-0.4c-0.2-0.1-0.5-0.3-0.9-0.4c-0.2-0.1-0.4-0.2-0.7-0.3
			c-0.2-0.1-0.4-0.3-0.7-0.5c-0.2-0.2-0.4-0.4-0.5-0.7c-0.1-0.3-0.2-0.6-0.2-1c0-0.5,0.1-0.9,0.3-1.3c0.2-0.4,0.6-0.6,1-0.8
			c0.4-0.2,1-0.3,1.5-0.3c0.4,0,0.9,0.1,1.3,0.2c0.4,0.1,0.8,0.2,1.3,0.4l-0.6,1.4c-0.4-0.2-0.8-0.3-1.1-0.4c-0.3-0.1-0.6-0.1-1-0.1
			c-0.2,0-0.4,0-0.6,0.1c-0.2,0.1-0.3,0.2-0.4,0.3c-0.1,0.1-0.1,0.3-0.1,0.5c0,0.2,0.1,0.4,0.2,0.5c0.1,0.1,0.3,0.3,0.5,0.4
			c0.2,0.1,0.5,0.3,0.9,0.4c0.4,0.2,0.8,0.4,1.1,0.7c0.3,0.2,0.6,0.5,0.7,0.8C392.4,262.7,392.4,263.1,392.4,263.6z M396.5,266.1
			c-0.6,0-1.2-0.1-1.7-0.4c-0.5-0.2-0.8-0.6-1-1.1c-0.2-0.5-0.3-1.1-0.3-1.9c0-0.8,0.1-1.5,0.4-2c0.3-0.5,0.6-0.9,1.1-1.1
			c0.5-0.2,1-0.4,1.7-0.4c0.5,0,0.8,0,1.2,0.1c0.3,0.1,0.6,0.2,0.9,0.3l-0.5,1.4c-0.3-0.1-0.5-0.2-0.8-0.3c-0.2-0.1-0.5-0.1-0.7-0.1
			c-0.3,0-0.6,0.1-0.8,0.2c-0.2,0.1-0.3,0.4-0.5,0.7c-0.1,0.3-0.2,0.7-0.2,1.1c0,0.4,0.1,0.8,0.2,1.1c0.1,0.3,0.3,0.5,0.5,0.6
			c0.2,0.1,0.5,0.2,0.8,0.2c0.4,0,0.7,0,1-0.1c0.3-0.1,0.6-0.2,0.8-0.4v1.5c-0.3,0.2-0.6,0.3-0.9,0.4
			C397.3,266,397,266.1,396.5,266.1z M401.8,256.8v1.9c0,0.3,0,0.6,0,0.9c0,0.3,0,0.5,0,0.6h0.1c0.1-0.2,0.3-0.4,0.5-0.5
			c0.2-0.1,0.4-0.2,0.6-0.3c0.2-0.1,0.5-0.1,0.8-0.1c0.5,0,0.9,0.1,1.2,0.2c0.4,0.2,0.6,0.4,0.8,0.8c0.2,0.4,0.3,0.8,0.3,1.4v4.3
			h-1.8v-3.8c0-0.5-0.1-0.8-0.3-1.1c-0.2-0.2-0.4-0.4-0.8-0.4c-0.4,0-0.6,0.1-0.8,0.2c-0.2,0.2-0.4,0.4-0.5,0.7
			c-0.1,0.3-0.1,0.7-0.1,1.2v3.1H400v-9.1H401.8z M413.9,262.6c0,0.5-0.1,1-0.2,1.5c-0.1,0.4-0.4,0.8-0.6,1.1
			c-0.3,0.3-0.6,0.5-1,0.7c-0.4,0.1-0.8,0.2-1.3,0.2c-0.5,0-0.9-0.1-1.3-0.2c-0.4-0.2-0.7-0.4-1-0.7c-0.3-0.3-0.5-0.6-0.7-1.1
			c-0.1-0.4-0.2-0.9-0.2-1.5c0-0.7,0.1-1.3,0.4-1.8c0.3-0.5,0.6-0.9,1.1-1.2c0.5-0.3,1-0.4,1.7-0.4c0.6,0,1.2,0.1,1.6,0.4
			c0.5,0.3,0.9,0.6,1.1,1.2C413.7,261.3,413.9,261.9,413.9,262.6z M409.3,262.6c0,0.4,0,0.8,0.1,1.1c0.1,0.3,0.2,0.5,0.4,0.7
			c0.2,0.1,0.5,0.2,0.8,0.2c0.3,0,0.6-0.1,0.8-0.2c0.2-0.2,0.3-0.4,0.4-0.7c0.1-0.3,0.1-0.7,0.1-1.1c0-0.4,0-0.8-0.1-1.1
			c-0.1-0.3-0.2-0.5-0.4-0.7c-0.2-0.1-0.5-0.2-0.8-0.2c-0.5,0-0.8,0.2-1,0.5C409.4,261.5,409.3,262,409.3,262.6z M421.3,262.6
			c0,0.5-0.1,1-0.2,1.5c-0.1,0.4-0.4,0.8-0.6,1.1c-0.3,0.3-0.6,0.5-1,0.7c-0.4,0.1-0.8,0.2-1.3,0.2c-0.5,0-0.9-0.1-1.3-0.2
			c-0.4-0.2-0.7-0.4-1-0.7c-0.3-0.3-0.5-0.6-0.7-1.1c-0.1-0.4-0.2-0.9-0.2-1.5c0-0.7,0.1-1.3,0.4-1.8c0.3-0.5,0.6-0.9,1.1-1.2
			c0.5-0.3,1-0.4,1.7-0.4c0.6,0,1.2,0.1,1.6,0.4c0.5,0.3,0.9,0.6,1.1,1.2C421.2,261.3,421.3,261.9,421.3,262.6z M416.8,262.6
			c0,0.4,0,0.8,0.1,1.1c0.1,0.3,0.2,0.5,0.4,0.7c0.2,0.1,0.5,0.2,0.8,0.2c0.3,0,0.6-0.1,0.8-0.2c0.2-0.2,0.3-0.4,0.4-0.7
			c0.1-0.3,0.1-0.7,0.1-1.1c0-0.4,0-0.8-0.1-1.1c-0.1-0.3-0.2-0.5-0.4-0.7c-0.2-0.1-0.5-0.2-0.8-0.2c-0.5,0-0.8,0.2-1,0.5
			C416.9,261.5,416.8,262,416.8,262.6z M424.5,265.9h-1.8v-9.1h1.8V265.9z"/>
		<path class="st3" d="M155.6,296.5L155.6,296.5c0-3.8,3.1-6.9,6.9-6.9h122.3c1.8,0,3.6,0.7,4.9,2c1.3,1.3,2,3.1,2,4.9v27.7
			c0,3.8-3.1,6.9-6.9,6.9H162.5c-3.8,0-6.9-3.1-6.9-6.9V296.5z"/>
		<path class="st4" d="M155.6,296.5L155.6,296.5c0-3.8,3.1-6.9,6.9-6.9h122.3c1.8,0,3.6,0.7,4.9,2c1.3,1.3,2,3.1,2,4.9v27.7
			c0,3.8-3.1,6.9-6.9,6.9H162.5c-3.8,0-6.9-3.1-6.9-6.9V296.5z"/>
		<path class="st5" d="M193.5,315.1h-5.5v-9.5h5.5v1.7h-3.5v2.1h3.2v1.6h-3.2v2.5h3.5V315.1z M196.9,311.4l-2.3-3.6h2.2l1.4,2.3
			l1.4-2.3h2.2l-2.4,3.6l2.5,3.7h-2.3l-1.5-2.5l-1.5,2.5h-2.2L196.9,311.4z M207.1,307.7c0.8,0,1.5,0.3,2,1c0.5,0.6,0.8,1.6,0.8,2.8
			c0,0.8-0.1,1.5-0.4,2.1c-0.2,0.6-0.6,1-1,1.3c-0.4,0.3-0.9,0.4-1.5,0.4c-0.3,0-0.6,0-0.9-0.1c-0.2-0.1-0.5-0.2-0.6-0.3
			c-0.2-0.1-0.3-0.3-0.5-0.5H205c0,0.2,0.1,0.3,0.1,0.5c0,0.2,0,0.4,0,0.5v2.9h-2v-10.5h1.6l0.3,1h0.1c0.1-0.2,0.3-0.4,0.5-0.5
			s0.4-0.3,0.7-0.4S206.8,307.7,207.1,307.7z M206.5,309.3c-0.3,0-0.6,0.1-0.8,0.2s-0.4,0.4-0.5,0.7c-0.1,0.3-0.1,0.6-0.1,1.1v0.2
			c0,0.5,0,0.9,0.1,1.2c0.1,0.3,0.2,0.6,0.5,0.7s0.5,0.2,0.9,0.2c0.3,0,0.5-0.1,0.7-0.2c0.2-0.2,0.3-0.4,0.4-0.7
			c0.1-0.3,0.2-0.7,0.2-1.2c0-0.7-0.1-1.3-0.3-1.6C207.3,309.5,206.9,309.3,206.5,309.3z M214.5,307.7c0.7,0,1.2,0.1,1.7,0.4
			c0.5,0.2,0.9,0.6,1.1,1.1s0.4,1.1,0.4,1.8v1h-4.7c0,0.6,0.2,1,0.5,1.3c0.3,0.3,0.8,0.5,1.3,0.5c0.5,0,0.9,0,1.3-0.1
			c0.4-0.1,0.8-0.2,1.2-0.4v1.5c-0.4,0.2-0.7,0.3-1.1,0.4c-0.4,0.1-0.9,0.1-1.4,0.1c-0.7,0-1.4-0.1-1.9-0.4c-0.6-0.3-1-0.7-1.3-1.2
			s-0.5-1.2-0.5-2.1c0-0.9,0.1-1.6,0.4-2.1c0.3-0.6,0.7-1,1.2-1.3C213.2,307.9,213.8,307.7,214.5,307.7z M214.5,309.1
			c-0.4,0-0.7,0.1-1,0.4c-0.2,0.2-0.4,0.6-0.4,1.2h2.8c0-0.3-0.1-0.6-0.2-0.8s-0.3-0.4-0.5-0.5C215.1,309.2,214.8,309.1,214.5,309.1
			z M221.7,315.3c-0.8,0-1.5-0.3-2-1c-0.5-0.6-0.8-1.6-0.8-2.8c0-1.2,0.3-2.2,0.8-2.8c0.5-0.6,1.2-1,2-1c0.4,0,0.7,0,0.9,0.1
			c0.3,0.1,0.5,0.2,0.7,0.4c0.2,0.2,0.4,0.3,0.5,0.5h0.1c0-0.1-0.1-0.3-0.1-0.6c0-0.3,0-0.6,0-0.8V305h2v10.1h-1.5l-0.4-0.9h-0.1
			c-0.1,0.2-0.3,0.4-0.5,0.5c-0.2,0.2-0.4,0.3-0.7,0.4C222.3,315.2,222,315.3,221.7,315.3z M222.4,313.7c0.5,0,0.9-0.2,1.1-0.5
			c0.2-0.3,0.3-0.8,0.4-1.5v-0.2c0-0.7-0.1-1.2-0.3-1.6s-0.6-0.6-1.2-0.6c-0.4,0-0.8,0.2-1,0.6c-0.2,0.4-0.4,0.9-0.4,1.6
			c0,0.7,0.1,1.2,0.4,1.6C221.6,313.5,221.9,313.7,222.4,313.7z M229.8,307.9v7.3h-2v-7.3H229.8z M228.8,305c0.3,0,0.6,0.1,0.8,0.2
			c0.2,0.1,0.3,0.4,0.3,0.8c0,0.4-0.1,0.6-0.3,0.8c-0.2,0.1-0.5,0.2-0.8,0.2c-0.3,0-0.5-0.1-0.8-0.2c-0.2-0.1-0.3-0.4-0.3-0.8
			c0-0.4,0.1-0.6,0.3-0.8C228.3,305.1,228.5,305,228.8,305z M234.8,315.3c-0.7,0-1.3-0.1-1.8-0.4s-0.9-0.7-1.2-1.2
			c-0.3-0.6-0.4-1.3-0.4-2.1c0-0.9,0.2-1.6,0.5-2.2s0.7-1,1.2-1.2c0.5-0.3,1.2-0.4,1.9-0.4c0.5,0,0.9,0,1.3,0.1
			c0.4,0.1,0.7,0.2,1,0.3l-0.6,1.5c-0.3-0.1-0.6-0.2-0.9-0.3c-0.3-0.1-0.5-0.1-0.8-0.1c-0.3,0-0.6,0.1-0.9,0.2
			c-0.2,0.2-0.4,0.4-0.5,0.7c-0.1,0.3-0.2,0.7-0.2,1.2c0,0.5,0.1,0.9,0.2,1.2c0.1,0.3,0.3,0.5,0.5,0.7c0.2,0.1,0.5,0.2,0.8,0.2
			c0.4,0,0.8-0.1,1.1-0.2c0.3-0.1,0.6-0.3,0.9-0.5v1.7c-0.3,0.2-0.6,0.3-1,0.4S235.3,315.3,234.8,315.3z M236.3,316.8
			c0,0.5-0.1,0.9-0.4,1.2c-0.3,0.3-0.8,0.4-1.6,0.4c-0.2,0-0.4,0-0.5,0c-0.2,0-0.3-0.1-0.4-0.1v-1.1c0.1,0,0.3,0.1,0.5,0.1
			c0.2,0,0.3,0,0.5,0s0.2,0,0.3-0.1c0.1-0.1,0.1-0.2,0.1-0.3s-0.1-0.3-0.2-0.4c-0.2-0.1-0.4-0.2-0.8-0.3l0.5-1h1.3l-0.2,0.4
			c0.2,0.1,0.3,0.1,0.5,0.2c0.2,0.1,0.3,0.2,0.4,0.4C236.2,316.3,236.3,316.5,236.3,316.8z M245.4,311.5c0,0.6-0.1,1.2-0.2,1.6
			c-0.2,0.5-0.4,0.9-0.7,1.2s-0.7,0.6-1.1,0.7c-0.4,0.2-0.9,0.2-1.5,0.2c-0.5,0-1-0.1-1.4-0.2c-0.4-0.2-0.8-0.4-1.1-0.7
			c-0.3-0.3-0.6-0.7-0.7-1.2c-0.2-0.5-0.2-1-0.2-1.6c0-0.8,0.1-1.5,0.4-2c0.3-0.6,0.7-1,1.2-1.3c0.5-0.3,1.2-0.4,1.9-0.4
			c0.7,0,1.3,0.1,1.8,0.4c0.5,0.3,0.9,0.7,1.2,1.3C245.2,310,245.4,310.7,245.4,311.5z M240.3,311.5c0,0.5,0.1,0.9,0.2,1.2
			c0.1,0.3,0.3,0.6,0.5,0.7c0.2,0.2,0.5,0.2,0.9,0.2c0.4,0,0.6-0.1,0.9-0.2c0.2-0.2,0.4-0.4,0.5-0.7c0.1-0.3,0.2-0.7,0.2-1.2
			s-0.1-0.9-0.2-1.2c-0.1-0.3-0.3-0.6-0.5-0.7c-0.2-0.2-0.5-0.2-0.9-0.2c-0.5,0-0.9,0.2-1.2,0.5
			C240.4,310.2,240.3,310.8,240.3,311.5z M239.1,307.1c0-0.3,0.1-0.6,0.2-0.9c0.1-0.3,0.2-0.5,0.4-0.6c0.2-0.2,0.3-0.3,0.5-0.4
			c0.2-0.1,0.4-0.1,0.6-0.1c0.2,0,0.4,0,0.5,0.1c0.2,0.1,0.3,0.1,0.5,0.2c0.2,0.1,0.3,0.2,0.5,0.2c0.2,0.1,0.3,0.1,0.5,0.1
			c0.1,0,0.2-0.1,0.4-0.2c0.1-0.1,0.2-0.3,0.3-0.5h1c-0.1,0.7-0.2,1.2-0.6,1.5c-0.3,0.3-0.7,0.5-1.2,0.5c-0.2,0-0.4,0-0.5-0.1
			c-0.2-0.1-0.3-0.2-0.5-0.2c-0.2-0.1-0.3-0.2-0.5-0.2c-0.2-0.1-0.3-0.1-0.5-0.1c-0.1,0-0.3,0.1-0.4,0.2c-0.1,0.1-0.2,0.3-0.3,0.5
			H239.1z M250,307.7c0.7,0,1.2,0.1,1.7,0.4c0.5,0.2,0.9,0.6,1.1,1.1c0.3,0.5,0.4,1.1,0.4,1.8v1h-4.7c0,0.6,0.2,1,0.5,1.3
			c0.3,0.3,0.8,0.5,1.3,0.5c0.5,0,0.9,0,1.3-0.1c0.4-0.1,0.8-0.2,1.2-0.4v1.5c-0.4,0.2-0.7,0.3-1.1,0.4c-0.4,0.1-0.9,0.1-1.4,0.1
			c-0.7,0-1.4-0.1-1.9-0.4c-0.6-0.3-1-0.7-1.3-1.2c-0.3-0.6-0.5-1.2-0.5-2.1c0-0.9,0.1-1.6,0.4-2.1c0.3-0.6,0.7-1,1.2-1.3
			C248.7,307.9,249.3,307.7,250,307.7z M250,309.1c-0.4,0-0.7,0.1-1,0.4c-0.2,0.2-0.4,0.6-0.4,1.2h2.8c0-0.3-0.1-0.6-0.2-0.8
			c-0.1-0.2-0.3-0.4-0.5-0.5C250.6,309.2,250.3,309.1,250,309.1z M259.9,313c0,0.5-0.1,0.9-0.4,1.2c-0.2,0.3-0.6,0.6-1,0.8
			c-0.5,0.2-1,0.2-1.7,0.2c-0.5,0-0.9,0-1.3-0.1c-0.4-0.1-0.7-0.2-1.1-0.3v-1.6c0.4,0.2,0.8,0.3,1.3,0.4c0.5,0.1,0.9,0.2,1.2,0.2
			c0.4,0,0.7-0.1,0.8-0.2s0.2-0.3,0.2-0.5c0-0.1,0-0.2-0.1-0.3c-0.1-0.1-0.2-0.2-0.4-0.3s-0.6-0.3-1-0.5c-0.4-0.2-0.8-0.4-1.1-0.6
			c-0.3-0.2-0.5-0.4-0.7-0.7c-0.1-0.3-0.2-0.6-0.2-1c0-0.7,0.3-1.2,0.8-1.5c0.5-0.3,1.2-0.5,2.1-0.5c0.4,0,0.9,0,1.3,0.1
			c0.4,0.1,0.8,0.2,1.3,0.4l-0.6,1.4c-0.4-0.2-0.7-0.3-1-0.4c-0.3-0.1-0.6-0.2-1-0.2c-0.3,0-0.5,0-0.7,0.1c-0.1,0.1-0.2,0.2-0.2,0.3
			c0,0.1,0,0.2,0.1,0.3s0.2,0.2,0.4,0.3c0.2,0.1,0.5,0.2,1,0.4c0.4,0.2,0.8,0.3,1.1,0.5c0.3,0.2,0.5,0.4,0.7,0.7
			S259.9,312.5,259.9,313z"/>
		<path class="st3" d="M630.8,184.6L630.8,184.6c0-3.8,3.1-6.9,6.9-6.9H760c1.8,0,3.6,0.7,4.9,2c1.3,1.3,2,3.1,2,4.9v27.7
			c0,3.8-3.1,6.9-6.9,6.9H637.8c-3.8,0-6.9-3.1-6.9-6.9V184.6z"/>
		<path class="st4" d="M630.8,184.6L630.8,184.6c0-3.8,3.1-6.9,6.9-6.9H760c1.8,0,3.6,0.7,4.9,2c1.3,1.3,2,3.1,2,4.9v27.7
			c0,3.8-3.1,6.9-6.9,6.9H637.8c-3.8,0-6.9-3.1-6.9-6.9V184.6z"/>
		<path class="st5" d="M644.7,194.4c0.8,0,1.4,0.1,1.9,0.3c0.5,0.2,0.9,0.5,1.1,0.8c0.2,0.4,0.4,0.9,0.4,1.4c0,0.4-0.1,0.7-0.2,1
			c-0.1,0.3-0.3,0.5-0.6,0.8c-0.2,0.2-0.5,0.4-0.8,0.5l2.5,3.7h-2l-2-3.3h-1v3.3h-1.8v-8.6H644.7z M644.5,195.9H644v2.3h0.6
			c0.6,0,1-0.1,1.3-0.3c0.3-0.2,0.4-0.5,0.4-0.9c0-0.4-0.1-0.7-0.4-0.9C645.5,196,645.1,195.9,644.5,195.9z M652.6,196.3
			c0.6,0,1.1,0.1,1.6,0.3c0.4,0.2,0.8,0.6,1,1c0.2,0.4,0.4,1,0.4,1.6v0.9h-4.2c0,0.5,0.2,0.9,0.5,1.2c0.3,0.3,0.7,0.4,1.2,0.4
			c0.4,0,0.8,0,1.1-0.1c0.4-0.1,0.7-0.2,1.1-0.4v1.4c-0.3,0.2-0.7,0.3-1,0.3c-0.4,0.1-0.8,0.1-1.3,0.1c-0.7,0-1.2-0.1-1.8-0.4
			c-0.5-0.2-0.9-0.6-1.2-1.1c-0.3-0.5-0.4-1.1-0.4-1.9c0-0.8,0.1-1.4,0.4-1.9c0.3-0.5,0.6-0.9,1.1-1.1
			C651.5,196.4,652,196.3,652.6,196.3z M652.7,197.5c-0.4,0-0.6,0.1-0.9,0.3c-0.2,0.2-0.4,0.6-0.4,1h2.5c0-0.3-0.1-0.5-0.2-0.7
			c-0.1-0.2-0.2-0.4-0.4-0.5C653.2,197.6,652.9,197.5,652.7,197.5z M661.6,201c0,0.4-0.1,0.8-0.3,1.1c-0.2,0.3-0.5,0.5-0.9,0.7
			c-0.4,0.2-0.9,0.2-1.5,0.2c-0.5,0-0.9,0-1.2-0.1c-0.3-0.1-0.7-0.2-1-0.3v-1.5c0.4,0.2,0.7,0.3,1.1,0.4c0.4,0.1,0.8,0.2,1.1,0.2
			c0.4,0,0.6-0.1,0.8-0.2c0.2-0.1,0.2-0.2,0.2-0.4c0-0.1,0-0.2-0.1-0.3c-0.1-0.1-0.2-0.2-0.4-0.3c-0.2-0.1-0.5-0.3-0.9-0.4
			c-0.4-0.2-0.7-0.3-1-0.5c-0.3-0.2-0.5-0.4-0.6-0.6c-0.1-0.2-0.2-0.6-0.2-0.9c0-0.6,0.2-1.1,0.7-1.4c0.5-0.3,1.1-0.5,1.9-0.5
			c0.4,0,0.8,0,1.2,0.1c0.4,0.1,0.8,0.2,1.1,0.4l-0.5,1.3c-0.3-0.1-0.6-0.2-0.9-0.3c-0.3-0.1-0.6-0.1-0.9-0.1c-0.3,0-0.5,0-0.6,0.1
			c-0.1,0.1-0.2,0.2-0.2,0.3c0,0.1,0,0.2,0.1,0.3c0.1,0.1,0.2,0.2,0.4,0.3c0.2,0.1,0.5,0.2,0.9,0.4c0.4,0.2,0.7,0.3,1,0.5
			c0.3,0.2,0.5,0.4,0.6,0.6C661.5,200.3,661.6,200.6,661.6,201z M665.7,196.3c0.6,0,1.1,0.1,1.6,0.3c0.4,0.2,0.8,0.6,1,1
			c0.2,0.4,0.4,1,0.4,1.6v0.9h-4.2c0,0.5,0.2,0.9,0.5,1.2c0.3,0.3,0.7,0.4,1.2,0.4c0.4,0,0.8,0,1.1-0.1c0.4-0.1,0.7-0.2,1.1-0.4v1.4
			c-0.3,0.2-0.7,0.3-1,0.3c-0.4,0.1-0.8,0.1-1.3,0.1c-0.7,0-1.2-0.1-1.8-0.4c-0.5-0.2-0.9-0.6-1.2-1.1c-0.3-0.5-0.4-1.1-0.4-1.9
			c0-0.8,0.1-1.4,0.4-1.9c0.3-0.5,0.6-0.9,1.1-1.1C664.5,196.4,665.1,196.3,665.7,196.3z M665.7,197.5c-0.4,0-0.6,0.1-0.9,0.3
			c-0.2,0.2-0.4,0.6-0.4,1h2.5c0-0.3-0.1-0.5-0.2-0.7c-0.1-0.2-0.2-0.4-0.4-0.5C666.2,197.6,666,197.5,665.7,197.5z M673.7,196.3
			c0.1,0,0.2,0,0.3,0c0.1,0,0.2,0,0.3,0l-0.1,1.7c-0.1,0-0.1,0-0.2,0c-0.1,0-0.2,0-0.3,0c-0.2,0-0.5,0-0.7,0.1
			c-0.2,0.1-0.4,0.1-0.6,0.3c-0.2,0.1-0.3,0.3-0.4,0.5c-0.1,0.2-0.2,0.5-0.2,0.8v3.3h-1.8v-6.5h1.4l0.3,1.1h0.1
			c0.1-0.2,0.3-0.4,0.5-0.6c0.2-0.2,0.4-0.3,0.7-0.4C673.2,196.3,673.4,196.3,673.7,196.3z M677.1,203l-2.5-6.5h1.9l1.3,3.7
			c0.1,0.2,0.1,0.4,0.2,0.7c0,0.2,0.1,0.5,0.1,0.6h0c0-0.2,0-0.4,0.1-0.6c0.1-0.2,0.1-0.5,0.2-0.7l1.2-3.7h1.9l-2.5,6.5H677.1z
			 M685,196.3c0.9,0,1.5,0.2,2,0.6c0.5,0.4,0.7,1,0.7,1.8v4.4h-1.2l-0.3-0.9h0c-0.2,0.2-0.4,0.4-0.6,0.6c-0.2,0.1-0.4,0.3-0.7,0.3
			c-0.2,0.1-0.6,0.1-0.9,0.1c-0.4,0-0.7-0.1-1-0.2c-0.3-0.2-0.5-0.4-0.7-0.7c-0.2-0.3-0.3-0.7-0.3-1.2c0-0.7,0.2-1.2,0.7-1.5
			c0.5-0.3,1.2-0.5,2.2-0.6l1.1,0v-0.3c0-0.3-0.1-0.6-0.3-0.8c-0.2-0.2-0.4-0.2-0.8-0.2c-0.3,0-0.6,0-0.9,0.1
			c-0.3,0.1-0.6,0.2-0.9,0.3l-0.6-1.2c0.4-0.2,0.7-0.3,1.2-0.4C684.1,196.3,684.6,196.3,685,196.3z M686,199.9l-0.7,0
			c-0.6,0-1,0.1-1.2,0.3c-0.2,0.2-0.3,0.4-0.3,0.8c0,0.3,0.1,0.5,0.2,0.6c0.2,0.1,0.4,0.2,0.6,0.2c0.4,0,0.7-0.1,1-0.3
			c0.3-0.2,0.4-0.6,0.4-1V199.9z M694.8,203.1c-0.7,0-1.3-0.3-1.8-0.9c-0.5-0.6-0.7-1.4-0.7-2.5c0-1.1,0.2-2,0.7-2.5
			c0.5-0.6,1.1-0.9,1.8-0.9c0.3,0,0.6,0,0.8,0.1c0.2,0.1,0.4,0.2,0.6,0.3c0.2,0.1,0.3,0.3,0.5,0.5h0c0-0.1,0-0.3-0.1-0.5
			c0-0.2,0-0.5,0-0.8v-2.1h1.8v9.1h-1.4l-0.3-0.8h-0.1c-0.1,0.2-0.3,0.3-0.4,0.5c-0.2,0.1-0.4,0.3-0.6,0.4
			C695.4,203,695.1,203.1,694.8,203.1z M695.4,201.6c0.5,0,0.8-0.1,1-0.4c0.2-0.3,0.3-0.7,0.3-1.3v-0.2c0-0.6-0.1-1.1-0.3-1.5
			c-0.2-0.3-0.6-0.5-1.1-0.5c-0.4,0-0.7,0.2-0.9,0.5c-0.2,0.3-0.3,0.8-0.3,1.5c0,0.6,0.1,1.1,0.3,1.4
			C694.7,201.5,695,201.6,695.4,201.6z M703,196.3c0.6,0,1.1,0.1,1.6,0.3c0.4,0.2,0.8,0.6,1,1c0.2,0.4,0.4,1,0.4,1.6v0.9h-4.2
			c0,0.5,0.2,0.9,0.5,1.2c0.3,0.3,0.7,0.4,1.2,0.4c0.4,0,0.8,0,1.1-0.1c0.4-0.1,0.7-0.2,1.1-0.4v1.4c-0.3,0.2-0.7,0.3-1,0.3
			c-0.4,0.1-0.8,0.1-1.3,0.1c-0.7,0-1.2-0.1-1.8-0.4c-0.5-0.2-0.9-0.6-1.2-1.1c-0.3-0.5-0.4-1.1-0.4-1.9c0-0.8,0.1-1.4,0.4-1.9
			c0.3-0.5,0.6-0.9,1.1-1.1C701.9,196.4,702.4,196.3,703,196.3z M703,197.5c-0.4,0-0.6,0.1-0.9,0.3c-0.2,0.2-0.4,0.6-0.4,1h2.5
			c0-0.3-0.1-0.5-0.2-0.7c-0.1-0.2-0.2-0.4-0.4-0.5C703.5,197.6,703.3,197.5,703,197.5z M715.6,203h-4.9v-8.6h4.9v1.5h-3.1v1.9h2.9
			v1.5h-2.9v2.2h3.1V203z M721.8,201c0,0.4-0.1,0.8-0.3,1.1c-0.2,0.3-0.5,0.5-0.9,0.7c-0.4,0.2-0.9,0.2-1.5,0.2
			c-0.5,0-0.9,0-1.2-0.1c-0.3-0.1-0.7-0.2-1-0.3v-1.5c0.4,0.2,0.7,0.3,1.1,0.4c0.4,0.1,0.8,0.2,1.1,0.2c0.4,0,0.6-0.1,0.8-0.2
			c0.2-0.1,0.2-0.2,0.2-0.4c0-0.1,0-0.2-0.1-0.3c-0.1-0.1-0.2-0.2-0.4-0.3c-0.2-0.1-0.5-0.3-0.9-0.4c-0.4-0.2-0.7-0.3-1-0.5
			c-0.3-0.2-0.5-0.4-0.6-0.6c-0.1-0.2-0.2-0.6-0.2-0.9c0-0.6,0.2-1.1,0.7-1.4c0.5-0.3,1.1-0.5,1.9-0.5c0.4,0,0.8,0,1.2,0.1
			c0.4,0.1,0.8,0.2,1.1,0.4l-0.5,1.3c-0.3-0.1-0.6-0.2-0.9-0.3c-0.3-0.1-0.6-0.1-0.9-0.1c-0.3,0-0.5,0-0.6,0.1
			c-0.1,0.1-0.2,0.2-0.2,0.3c0,0.1,0,0.2,0.1,0.3c0.1,0.1,0.2,0.2,0.4,0.3c0.2,0.1,0.5,0.2,0.9,0.4c0.4,0.2,0.7,0.3,1,0.5
			c0.3,0.2,0.5,0.4,0.6,0.6C721.7,200.3,721.8,200.6,721.8,201z M726.9,196.3c0.7,0,1.3,0.3,1.8,0.9c0.5,0.6,0.7,1.4,0.7,2.5
			c0,0.7-0.1,1.4-0.3,1.9c-0.2,0.5-0.5,0.9-0.9,1.1c-0.4,0.3-0.8,0.4-1.3,0.4c-0.3,0-0.6,0-0.8-0.1c-0.2-0.1-0.4-0.2-0.6-0.3
			c-0.2-0.1-0.3-0.3-0.4-0.4h-0.1c0,0.2,0.1,0.3,0.1,0.5c0,0.2,0,0.3,0,0.5v2.7h-1.8v-9.4h1.5l0.2,0.8h0.1c0.1-0.2,0.3-0.3,0.4-0.5
			c0.2-0.1,0.4-0.3,0.6-0.3C726.3,196.3,726.5,196.3,726.9,196.3z M726.3,197.7c-0.3,0-0.6,0.1-0.8,0.2c-0.2,0.1-0.3,0.3-0.4,0.6
			c-0.1,0.3-0.1,0.6-0.1,1v0.2c0,0.4,0,0.8,0.1,1.1c0.1,0.3,0.2,0.5,0.4,0.7c0.2,0.1,0.4,0.2,0.8,0.2c0.3,0,0.5-0.1,0.7-0.2
			c0.2-0.2,0.3-0.4,0.4-0.7c0.1-0.3,0.1-0.7,0.1-1.1c0-0.6-0.1-1.1-0.3-1.4C727,197.9,726.7,197.7,726.3,197.7z M733.5,196.3
			c0.9,0,1.5,0.2,2,0.6c0.5,0.4,0.7,1,0.7,1.8v4.4H735l-0.3-0.9h0c-0.2,0.2-0.4,0.4-0.6,0.6c-0.2,0.1-0.4,0.3-0.7,0.3
			c-0.2,0.1-0.6,0.1-0.9,0.1c-0.4,0-0.7-0.1-1-0.2c-0.3-0.2-0.5-0.4-0.7-0.7c-0.2-0.3-0.3-0.7-0.3-1.2c0-0.7,0.2-1.2,0.7-1.5
			c0.5-0.3,1.2-0.5,2.2-0.6l1.1,0v-0.3c0-0.3-0.1-0.6-0.3-0.8c-0.2-0.2-0.4-0.2-0.8-0.2c-0.3,0-0.6,0-0.9,0.1
			c-0.3,0.1-0.6,0.2-0.9,0.3l-0.6-1.2c0.4-0.2,0.7-0.3,1.2-0.4C732.6,196.3,733,196.3,733.5,196.3z M734.4,199.9l-0.7,0
			c-0.6,0-1,0.1-1.2,0.3c-0.2,0.2-0.3,0.4-0.3,0.8c0,0.3,0.1,0.5,0.2,0.6c0.2,0.1,0.4,0.2,0.6,0.2c0.4,0,0.7-0.1,1-0.3
			c0.3-0.2,0.4-0.6,0.4-1V199.9z M740.7,203.1c-0.6,0-1.2-0.1-1.7-0.4c-0.5-0.2-0.8-0.6-1-1.1c-0.2-0.5-0.3-1.1-0.3-1.9
			c0-0.8,0.1-1.5,0.4-2c0.3-0.5,0.6-0.9,1.1-1.1c0.5-0.2,1-0.4,1.7-0.4c0.5,0,0.8,0,1.2,0.1c0.3,0.1,0.6,0.2,0.9,0.3l-0.5,1.4
			c-0.3-0.1-0.5-0.2-0.8-0.3c-0.2-0.1-0.5-0.1-0.7-0.1c-0.3,0-0.6,0.1-0.8,0.2c-0.2,0.1-0.3,0.4-0.5,0.7c-0.1,0.3-0.2,0.7-0.2,1.1
			c0,0.4,0.1,0.8,0.2,1.1c0.1,0.3,0.3,0.5,0.5,0.6c0.2,0.1,0.5,0.2,0.8,0.2c0.4,0,0.7,0,1-0.1c0.3-0.1,0.6-0.2,0.8-0.4v1.5
			c-0.3,0.2-0.6,0.3-0.9,0.4C741.5,203,741.2,203.1,740.7,203.1z M742,204.4c0,0.4-0.1,0.8-0.4,1c-0.3,0.3-0.7,0.4-1.4,0.4
			c-0.2,0-0.3,0-0.5,0c-0.1,0-0.3,0-0.4-0.1v-1c0.1,0,0.3,0,0.4,0.1c0.2,0,0.3,0,0.4,0c0.1,0,0.2,0,0.3-0.1c0.1-0.1,0.1-0.1,0.1-0.3
			c0-0.1-0.1-0.3-0.2-0.4c-0.1-0.1-0.4-0.2-0.8-0.2l0.5-0.9h1.1l-0.2,0.4c0.2,0.1,0.3,0.1,0.5,0.2c0.1,0.1,0.3,0.2,0.4,0.4
			C742,204.1,742,204.2,742,204.4z M750.2,199.7c0,0.5-0.1,1-0.2,1.5c-0.1,0.4-0.4,0.8-0.6,1.1c-0.3,0.3-0.6,0.5-1,0.7
			c-0.4,0.1-0.8,0.2-1.3,0.2c-0.5,0-0.9-0.1-1.3-0.2c-0.4-0.2-0.7-0.4-1-0.7c-0.3-0.3-0.5-0.6-0.7-1.1c-0.1-0.4-0.2-0.9-0.2-1.5
			c0-0.7,0.1-1.3,0.4-1.8c0.3-0.5,0.6-0.9,1.1-1.2c0.5-0.3,1-0.4,1.7-0.4c0.6,0,1.2,0.1,1.6,0.4c0.5,0.3,0.9,0.6,1.1,1.2
			C750,198.3,750.2,198.9,750.2,199.7z M745.6,199.7c0,0.4,0,0.8,0.1,1.1c0.1,0.3,0.2,0.5,0.4,0.7c0.2,0.1,0.5,0.2,0.8,0.2
			c0.3,0,0.6-0.1,0.8-0.2c0.2-0.2,0.3-0.4,0.4-0.7c0.1-0.3,0.1-0.7,0.1-1.1c0-0.4,0-0.8-0.1-1.1c-0.1-0.3-0.2-0.5-0.4-0.7
			c-0.2-0.1-0.5-0.2-0.8-0.2c-0.5,0-0.8,0.2-1,0.5C745.7,198.5,745.6,199,745.6,199.7z M756.2,201c0,0.4-0.1,0.8-0.3,1.1
			c-0.2,0.3-0.5,0.5-0.9,0.7c-0.4,0.2-0.9,0.2-1.5,0.2c-0.5,0-0.9,0-1.2-0.1c-0.3-0.1-0.7-0.2-1-0.3v-1.5c0.4,0.2,0.7,0.3,1.1,0.4
			c0.4,0.1,0.8,0.2,1.1,0.2c0.4,0,0.6-0.1,0.8-0.2c0.2-0.1,0.2-0.2,0.2-0.4c0-0.1,0-0.2-0.1-0.3c-0.1-0.1-0.2-0.2-0.4-0.3
			c-0.2-0.1-0.5-0.3-0.9-0.4c-0.4-0.2-0.7-0.3-1-0.5c-0.3-0.2-0.5-0.4-0.6-0.6c-0.1-0.2-0.2-0.6-0.2-0.9c0-0.6,0.2-1.1,0.7-1.4
			c0.5-0.3,1.1-0.5,1.9-0.5c0.4,0,0.8,0,1.2,0.1c0.4,0.1,0.8,0.2,1.1,0.4l-0.5,1.3c-0.3-0.1-0.6-0.2-0.9-0.3
			c-0.3-0.1-0.6-0.1-0.9-0.1c-0.3,0-0.5,0-0.6,0.1c-0.1,0.1-0.2,0.2-0.2,0.3c0,0.1,0,0.2,0.1,0.3c0.1,0.1,0.2,0.2,0.4,0.3
			c0.2,0.1,0.5,0.2,0.9,0.4c0.4,0.2,0.7,0.3,1,0.5c0.3,0.2,0.5,0.4,0.6,0.6C756.2,200.3,756.2,200.6,756.2,201z"/>
		<path class="st3" d="M630.8,240.5L630.8,240.5c0-3.8,3.1-6.9,6.9-6.9H760c1.8,0,3.6,0.7,4.9,2c1.3,1.3,2,3.1,2,4.9v27.7
			c0,3.8-3.1,6.9-6.9,6.9H637.8c-3.8,0-6.9-3.1-6.9-6.9V240.5z"/>
		<path class="st4" d="M630.8,240.5L630.8,240.5c0-3.8,3.1-6.9,6.9-6.9H760c1.8,0,3.6,0.7,4.9,2c1.3,1.3,2,3.1,2,4.9v27.7
			c0,3.8-3.1,6.9-6.9,6.9H637.8c-3.8,0-6.9-3.1-6.9-6.9V240.5z"/>
		<path class="st5" d="M682.8,258.9l-0.6-2h-3.1l-0.6,2h-2l3-8.6h2.2l3,8.6H682.8z M681.8,255.4l-0.6-2c0-0.1-0.1-0.3-0.2-0.5
			c-0.1-0.2-0.1-0.4-0.2-0.6c-0.1-0.2-0.1-0.4-0.2-0.6c0,0.2-0.1,0.4-0.2,0.6c-0.1,0.2-0.1,0.5-0.2,0.7c-0.1,0.2-0.1,0.4-0.1,0.4
			l-0.6,2H681.8z M687.5,258.9h-1.8v-9.1h1.8V258.9z M697.1,252.3c0.8,0,1.3,0.2,1.7,0.6c0.4,0.4,0.6,1,0.6,1.8v4.3h-1.8v-3.8
			c0-0.5-0.1-0.8-0.2-1.1c-0.2-0.2-0.4-0.4-0.7-0.4c-0.5,0-0.8,0.2-1,0.5c-0.2,0.3-0.3,0.8-0.3,1.5v3.3h-1.8v-3.8
			c0-0.3,0-0.6-0.1-0.8c-0.1-0.2-0.2-0.4-0.3-0.5c-0.1-0.1-0.3-0.2-0.6-0.2c-0.3,0-0.6,0.1-0.8,0.2c-0.2,0.2-0.3,0.4-0.4,0.7
			c-0.1,0.3-0.1,0.7-0.1,1.2v3.1h-1.8v-6.5h1.4l0.2,0.8h0.1c0.1-0.2,0.3-0.4,0.5-0.5c0.2-0.1,0.4-0.2,0.7-0.3
			c0.2-0.1,0.5-0.1,0.7-0.1c0.5,0,0.9,0.1,1.2,0.2c0.3,0.2,0.6,0.4,0.8,0.7h0.2c0.2-0.3,0.5-0.6,0.8-0.7
			C696.3,252.3,696.7,252.3,697.1,252.3z M707.1,255.6c0,0.5-0.1,1-0.2,1.5c-0.1,0.4-0.4,0.8-0.6,1.1c-0.3,0.3-0.6,0.5-1,0.7
			c-0.4,0.1-0.8,0.2-1.3,0.2c-0.5,0-0.9-0.1-1.3-0.2c-0.4-0.2-0.7-0.4-1-0.7c-0.3-0.3-0.5-0.6-0.7-1.1c-0.1-0.4-0.2-0.9-0.2-1.5
			c0-0.7,0.1-1.3,0.4-1.8c0.3-0.5,0.6-0.9,1.1-1.2c0.5-0.3,1-0.4,1.7-0.4c0.6,0,1.2,0.1,1.6,0.4c0.5,0.3,0.9,0.6,1.1,1.2
			C707,254.3,707.1,254.9,707.1,255.6z M702.6,255.6c0,0.4,0,0.8,0.1,1.1c0.1,0.3,0.2,0.5,0.4,0.7c0.2,0.1,0.5,0.2,0.8,0.2
			c0.3,0,0.6-0.1,0.8-0.2c0.2-0.2,0.3-0.4,0.4-0.7c0.1-0.3,0.1-0.7,0.1-1.1c0-0.4,0-0.8-0.1-1.1c-0.1-0.3-0.2-0.5-0.4-0.7
			c-0.2-0.1-0.5-0.2-0.8-0.2c-0.5,0-0.8,0.2-1,0.5C702.7,254.5,702.6,255,702.6,255.6z M711.3,259.1c-0.6,0-1.2-0.1-1.7-0.4
			c-0.5-0.2-0.8-0.6-1-1.1c-0.2-0.5-0.3-1.1-0.3-1.9c0-0.8,0.1-1.5,0.4-2c0.3-0.5,0.6-0.9,1.1-1.1c0.5-0.2,1-0.4,1.7-0.4
			c0.5,0,0.8,0,1.2,0.1c0.3,0.1,0.6,0.2,0.9,0.3l-0.5,1.4c-0.3-0.1-0.5-0.2-0.8-0.3c-0.2-0.1-0.5-0.1-0.7-0.1
			c-0.3,0-0.6,0.1-0.8,0.2c-0.2,0.1-0.3,0.4-0.5,0.7c-0.1,0.3-0.2,0.7-0.2,1.1c0,0.4,0.1,0.8,0.2,1.1c0.1,0.3,0.3,0.5,0.5,0.6
			c0.2,0.1,0.5,0.2,0.8,0.2c0.4,0,0.7,0,1-0.1c0.3-0.1,0.6-0.2,0.8-0.4v1.5c-0.3,0.2-0.6,0.3-0.9,0.4
			C712.1,259,711.7,259.1,711.3,259.1z M712.5,260.4c0,0.4-0.1,0.8-0.4,1c-0.3,0.2-0.7,0.4-1.4,0.4c-0.2,0-0.3,0-0.5,0
			c-0.1,0-0.3,0-0.4-0.1v-1c0.1,0,0.3,0,0.4,0.1c0.2,0,0.3,0,0.4,0c0.1,0,0.2,0,0.3-0.1c0.1-0.1,0.1-0.1,0.1-0.3
			c0-0.1-0.1-0.3-0.2-0.4c-0.1-0.1-0.4-0.2-0.8-0.2l0.5-0.9h1.1l-0.2,0.4c0.2,0.1,0.3,0.1,0.5,0.2c0.1,0.1,0.3,0.2,0.4,0.4
			C712.5,260,712.5,260.2,712.5,260.4z M720.7,255.6c0,0.5-0.1,1-0.2,1.5c-0.1,0.4-0.4,0.8-0.6,1.1c-0.3,0.3-0.6,0.5-1,0.7
			c-0.4,0.1-0.8,0.2-1.3,0.2c-0.5,0-0.9-0.1-1.3-0.2c-0.4-0.2-0.7-0.4-1-0.7c-0.3-0.3-0.5-0.6-0.7-1.1c-0.1-0.4-0.2-0.9-0.2-1.5
			c0-0.7,0.1-1.3,0.4-1.8c0.3-0.5,0.6-0.9,1.1-1.2c0.5-0.3,1-0.4,1.7-0.4c0.6,0,1.2,0.1,1.6,0.4c0.5,0.3,0.9,0.6,1.1,1.2
			C720.6,254.3,720.7,254.9,720.7,255.6z M716.2,255.6c0,0.4,0,0.8,0.1,1.1c0.1,0.3,0.2,0.5,0.4,0.7c0.2,0.1,0.5,0.2,0.8,0.2
			c0.3,0,0.6-0.1,0.8-0.2c0.2-0.2,0.3-0.4,0.4-0.7c0.1-0.3,0.1-0.7,0.1-1.1c0-0.4,0-0.8-0.1-1.1c-0.1-0.3-0.2-0.5-0.4-0.7
			c-0.2-0.1-0.5-0.2-0.8-0.2c-0.5,0-0.8,0.2-1,0.5C716.3,254.5,716.2,255,716.2,255.6z"/>
		<path class="st3" d="M313.4,296.1L313.4,296.1c0-3.8,3.1-6.9,6.9-6.9h122.3c1.8,0,3.6,0.7,4.9,2s2,3.1,2,4.9v27.7
			c0,3.8-3.1,6.9-6.9,6.9H320.4c-3.8,0-6.9-3.1-6.9-6.9V296.1z"/>
		<path class="st4" d="M313.4,296.1L313.4,296.1c0-3.8,3.1-6.9,6.9-6.9h122.3c1.8,0,3.6,0.7,4.9,2s2,3.1,2,4.9v27.7
			c0,3.8-3.1,6.9-6.9,6.9H320.4c-3.8,0-6.9-3.1-6.9-6.9V296.1z"/>
		<path class="st5" d="M329.7,307.3c-0.3,0-0.7,0.1-0.9,0.2c-0.3,0.1-0.5,0.3-0.7,0.6c-0.2,0.2-0.3,0.6-0.4,0.9
			c-0.1,0.4-0.1,0.8-0.1,1.2c0,0.6,0.1,1.1,0.2,1.6c0.2,0.4,0.4,0.8,0.7,1c0.3,0.2,0.7,0.3,1.2,0.3c0.3,0,0.7,0,1-0.1
			c0.4-0.1,0.7-0.2,1.2-0.3v1.5c-0.4,0.2-0.8,0.3-1.1,0.3c-0.4,0.1-0.8,0.1-1.2,0.1c-0.9,0-1.6-0.2-2.2-0.5c-0.6-0.4-1-0.9-1.2-1.5
			c-0.3-0.7-0.4-1.4-0.4-2.3c0-0.7,0.1-1.2,0.2-1.8c0.2-0.5,0.4-1,0.8-1.4s0.8-0.7,1.3-0.9c0.5-0.2,1.1-0.3,1.7-0.3
			c0.4,0,0.9,0.1,1.3,0.2c0.4,0.1,0.8,0.2,1.2,0.4l-0.6,1.5c-0.3-0.2-0.6-0.3-1-0.4C330.4,307.4,330.1,307.3,329.7,307.3z
			 M339.6,311.2c0,0.5-0.1,1-0.2,1.5c-0.1,0.4-0.4,0.8-0.6,1.1s-0.6,0.5-1,0.7c-0.4,0.1-0.8,0.2-1.3,0.2c-0.5,0-0.9-0.1-1.3-0.2
			c-0.4-0.2-0.7-0.4-1-0.7c-0.3-0.3-0.5-0.6-0.7-1.1c-0.1-0.4-0.2-0.9-0.2-1.5c0-0.7,0.1-1.3,0.4-1.8c0.3-0.5,0.6-0.9,1.1-1.2
			c0.5-0.3,1-0.4,1.7-0.4c0.6,0,1.2,0.1,1.6,0.4c0.5,0.3,0.9,0.6,1.1,1.2C339.4,309.9,339.6,310.5,339.6,311.2z M335,311.2
			c0,0.4,0,0.8,0.1,1.1s0.2,0.5,0.4,0.7c0.2,0.1,0.5,0.2,0.8,0.2c0.3,0,0.6-0.1,0.8-0.2c0.2-0.2,0.3-0.4,0.4-0.7s0.1-0.7,0.1-1.1
			c0-0.4,0-0.8-0.1-1.1c-0.1-0.3-0.2-0.5-0.4-0.7c-0.2-0.1-0.5-0.2-0.8-0.2c-0.5,0-0.8,0.2-1,0.5C335.1,310.1,335,310.6,335,311.2z
			 M348.7,307.8c0.8,0,1.3,0.2,1.7,0.6c0.4,0.4,0.6,1,0.6,1.8v4.3h-1.8v-3.8c0-0.5-0.1-0.8-0.2-1.1c-0.2-0.2-0.4-0.4-0.7-0.4
			c-0.5,0-0.8,0.2-1,0.5c-0.2,0.3-0.3,0.8-0.3,1.5v3.3h-1.8v-3.8c0-0.3,0-0.6-0.1-0.8c-0.1-0.2-0.2-0.4-0.3-0.5
			c-0.1-0.1-0.3-0.2-0.6-0.2c-0.3,0-0.6,0.1-0.8,0.2s-0.3,0.4-0.4,0.7c-0.1,0.3-0.1,0.7-0.1,1.2v3.1H341V308h1.4l0.2,0.8h0.1
			c0.1-0.2,0.3-0.4,0.5-0.5c0.2-0.1,0.4-0.2,0.7-0.3c0.2-0.1,0.5-0.1,0.7-0.1c0.5,0,0.9,0.1,1.2,0.2c0.3,0.2,0.6,0.4,0.8,0.7h0.2
			c0.2-0.3,0.5-0.6,0.8-0.7C348,307.9,348.4,307.8,348.7,307.8z M354.6,305.4v2.1c0,0.2,0,0.5,0,0.7c0,0.2,0,0.4,0,0.6h0.1
			c0.2-0.3,0.4-0.5,0.7-0.7c0.3-0.2,0.7-0.3,1.2-0.3c0.7,0,1.3,0.3,1.8,0.9c0.5,0.6,0.7,1.4,0.7,2.5c0,0.7-0.1,1.4-0.3,1.9
			c-0.2,0.5-0.5,0.9-0.9,1.1c-0.4,0.3-0.8,0.4-1.3,0.4c-0.5,0-0.9-0.1-1.1-0.3c-0.3-0.2-0.5-0.4-0.7-0.6h-0.1l-0.3,0.7h-1.4v-9.1
			H354.6z M355.9,309.3c-0.3,0-0.6,0.1-0.8,0.2c-0.2,0.1-0.3,0.3-0.4,0.6c-0.1,0.3-0.1,0.6-0.1,1v0.2c0,0.6,0.1,1.1,0.3,1.5
			c0.2,0.3,0.5,0.5,1,0.5c0.4,0,0.7-0.2,0.9-0.5c0.2-0.3,0.3-0.8,0.3-1.5c0-0.6-0.1-1.1-0.3-1.4
			C356.6,309.4,356.3,309.3,355.9,309.3z M362.2,308v6.5h-1.8V308H362.2z M361.3,305.4c0.3,0,0.5,0.1,0.7,0.2
			c0.2,0.1,0.3,0.4,0.3,0.7s-0.1,0.6-0.3,0.7c-0.2,0.1-0.4,0.2-0.7,0.2c-0.3,0-0.5-0.1-0.7-0.2c-0.2-0.1-0.3-0.4-0.3-0.7
			s0.1-0.6,0.3-0.7C360.8,305.4,361,305.4,361.3,305.4z M367.8,307.8c0.7,0,1.3,0.2,1.7,0.6c0.4,0.4,0.6,1,0.6,1.8v4.3h-1.8v-3.8
			c0-0.5-0.1-0.8-0.3-1.1c-0.2-0.2-0.4-0.4-0.8-0.4c-0.5,0-0.9,0.2-1.1,0.6c-0.2,0.4-0.3,0.9-0.3,1.6v3.1h-1.8V308h1.4l0.2,0.8h0.1
			c0.1-0.2,0.3-0.4,0.5-0.5c0.2-0.1,0.4-0.2,0.7-0.3C367.3,307.9,367.5,307.8,367.8,307.8z M374.7,307.8c0.9,0,1.5,0.2,2,0.6
			s0.7,1,0.7,1.8v4.4h-1.2l-0.3-0.9h0c-0.2,0.2-0.4,0.4-0.6,0.6c-0.2,0.1-0.4,0.3-0.7,0.3c-0.2,0.1-0.6,0.1-0.9,0.1
			c-0.4,0-0.7-0.1-1-0.2c-0.3-0.2-0.5-0.4-0.7-0.7c-0.2-0.3-0.3-0.7-0.3-1.2c0-0.7,0.2-1.2,0.7-1.5c0.5-0.3,1.2-0.5,2.2-0.6l1.1,0
			v-0.3c0-0.3-0.1-0.6-0.3-0.8c-0.2-0.2-0.4-0.2-0.8-0.2c-0.3,0-0.6,0-0.9,0.1c-0.3,0.1-0.6,0.2-0.9,0.3l-0.6-1.2
			c0.4-0.2,0.7-0.3,1.2-0.4C373.7,307.9,374.2,307.8,374.7,307.8z M375.6,311.5l-0.7,0c-0.6,0-1,0.1-1.2,0.3
			c-0.2,0.2-0.3,0.4-0.3,0.8c0,0.3,0.1,0.5,0.2,0.6s0.4,0.2,0.6,0.2c0.4,0,0.7-0.1,1-0.3c0.3-0.2,0.4-0.6,0.4-1V311.5z M381.3,314.6
			c-0.7,0-1.3-0.3-1.8-0.9c-0.5-0.6-0.7-1.4-0.7-2.5c0-1.1,0.2-2,0.7-2.5c0.5-0.6,1.1-0.9,1.8-0.9c0.3,0,0.6,0,0.8,0.1
			c0.2,0.1,0.4,0.2,0.6,0.3c0.2,0.1,0.3,0.3,0.5,0.5h0c0-0.1,0-0.3-0.1-0.5c0-0.2,0-0.5,0-0.8v-2.1h1.8v9.1h-1.4l-0.3-0.8h-0.1
			c-0.1,0.2-0.3,0.3-0.4,0.5c-0.2,0.1-0.4,0.3-0.6,0.4C381.9,314.6,381.6,314.6,381.3,314.6z M381.9,313.2c0.5,0,0.8-0.1,1-0.4
			c0.2-0.3,0.3-0.7,0.3-1.3v-0.2c0-0.6-0.1-1.1-0.3-1.5c-0.2-0.3-0.6-0.5-1.1-0.5c-0.4,0-0.7,0.2-0.9,0.5c-0.2,0.3-0.3,0.8-0.3,1.5
			c0,0.6,0.1,1.1,0.3,1.4C381.2,313,381.5,313.2,381.9,313.2z M392.8,311.2c0,0.5-0.1,1-0.2,1.5c-0.1,0.4-0.4,0.8-0.6,1.1
			s-0.6,0.5-1,0.7c-0.4,0.1-0.8,0.2-1.3,0.2c-0.5,0-0.9-0.1-1.3-0.2c-0.4-0.2-0.7-0.4-1-0.7c-0.3-0.3-0.5-0.6-0.7-1.1
			c-0.1-0.4-0.2-0.9-0.2-1.5c0-0.7,0.1-1.3,0.4-1.8c0.3-0.5,0.6-0.9,1.1-1.2c0.5-0.3,1-0.4,1.7-0.4c0.6,0,1.2,0.1,1.6,0.4
			c0.5,0.3,0.9,0.6,1.1,1.2C392.6,309.9,392.8,310.5,392.8,311.2z M388.2,311.2c0,0.4,0,0.8,0.1,1.1s0.2,0.5,0.4,0.7
			c0.2,0.1,0.5,0.2,0.8,0.2c0.3,0,0.6-0.1,0.8-0.2c0.2-0.2,0.3-0.4,0.4-0.7s0.1-0.7,0.1-1.1c0-0.4,0-0.8-0.1-1.1
			c-0.1-0.3-0.2-0.5-0.4-0.7c-0.2-0.1-0.5-0.2-0.8-0.2c-0.5,0-0.8,0.2-1,0.5C388.3,310.1,388.2,310.6,388.2,311.2z M398.8,312.6
			c0,0.4-0.1,0.8-0.3,1.1c-0.2,0.3-0.5,0.5-0.9,0.7c-0.4,0.2-0.9,0.2-1.5,0.2c-0.5,0-0.9,0-1.2-0.1c-0.3-0.1-0.7-0.2-1-0.3v-1.5
			c0.4,0.2,0.7,0.3,1.1,0.4c0.4,0.1,0.8,0.2,1.1,0.2c0.4,0,0.6-0.1,0.8-0.2c0.2-0.1,0.2-0.2,0.2-0.4c0-0.1,0-0.2-0.1-0.3
			c-0.1-0.1-0.2-0.2-0.4-0.3c-0.2-0.1-0.5-0.3-0.9-0.4c-0.4-0.2-0.7-0.3-1-0.5c-0.3-0.2-0.5-0.4-0.6-0.6c-0.1-0.2-0.2-0.6-0.2-0.9
			c0-0.6,0.2-1.1,0.7-1.4c0.5-0.3,1.1-0.5,1.9-0.5c0.4,0,0.8,0,1.2,0.1c0.4,0.1,0.8,0.2,1.1,0.4l-0.5,1.3c-0.3-0.1-0.6-0.2-0.9-0.3
			c-0.3-0.1-0.6-0.1-0.9-0.1c-0.3,0-0.5,0-0.6,0.1c-0.1,0.1-0.2,0.2-0.2,0.3c0,0.1,0,0.2,0.1,0.3c0.1,0.1,0.2,0.2,0.4,0.3
			c0.2,0.1,0.5,0.2,0.9,0.4c0.4,0.2,0.7,0.3,1,0.5c0.3,0.2,0.5,0.4,0.6,0.6C398.7,311.9,398.8,312.2,398.8,312.6z M410.4,305.9
			l-3.2,8.6h-1.6l3.2-8.6H410.4z M416.4,314.5h-1.8v-8.6h4.9v1.5h-3.1v2.2h2.9v1.5h-2.9V314.5z M426.5,314.5l-0.6-2h-3.1l-0.6,2h-2
			l3-8.6h2.2l3,8.6H426.5z M425.4,310.9l-0.6-2c0-0.1-0.1-0.3-0.2-0.5c-0.1-0.2-0.1-0.4-0.2-0.6s-0.1-0.4-0.2-0.6
			c0,0.2-0.1,0.4-0.2,0.6c-0.1,0.2-0.1,0.5-0.2,0.7c-0.1,0.2-0.1,0.4-0.1,0.4l-0.6,2H425.4z M437.3,310.2c0,0.6-0.1,1.2-0.2,1.8
			c-0.1,0.5-0.4,1-0.7,1.4s-0.7,0.7-1.2,0.9l2.1,2.3h-2.3l-1.6-1.9c0,0,0,0-0.1,0c0,0,0,0-0.1,0c-0.7,0-1.3-0.1-1.8-0.3
			c-0.5-0.2-0.9-0.5-1.3-0.9c-0.3-0.4-0.6-0.9-0.8-1.4c-0.2-0.5-0.2-1.1-0.2-1.8c0-0.9,0.1-1.7,0.4-2.3c0.3-0.7,0.7-1.2,1.3-1.5
			c0.6-0.4,1.4-0.5,2.3-0.5c0.9,0,1.7,0.2,2.3,0.5c0.6,0.4,1.1,0.9,1.3,1.5C437.2,308.6,437.3,309.3,437.3,310.2z M431,310.2
			c0,0.6,0.1,1.1,0.2,1.5c0.1,0.4,0.4,0.8,0.7,1c0.3,0.2,0.7,0.3,1.2,0.3c0.5,0,0.9-0.1,1.2-0.3c0.3-0.2,0.6-0.6,0.7-1
			c0.1-0.4,0.2-1,0.2-1.5c0-0.9-0.2-1.6-0.5-2.1c-0.3-0.5-0.9-0.8-1.7-0.8c-0.5,0-0.9,0.1-1.2,0.3c-0.3,0.2-0.6,0.6-0.7,1
			C431.1,309.1,431,309.6,431,310.2z"/>
		<path class="st3" d="M474.5,296.5L474.5,296.5c0-3.8,3.1-6.9,6.9-6.9h122.3c1.8,0,3.6,0.7,4.9,2c1.3,1.3,2,3.1,2,4.9v27.7
			c0,3.8-3.1,6.9-6.9,6.9H481.5c-3.8,0-6.9-3.1-6.9-6.9V296.5z"/>
		<path class="st4" d="M474.5,296.5L474.5,296.5c0-3.8,3.1-6.9,6.9-6.9h122.3c1.8,0,3.6,0.7,4.9,2c1.3,1.3,2,3.1,2,4.9v27.7
			c0,3.8-3.1,6.9-6.9,6.9H481.5c-3.8,0-6.9-3.1-6.9-6.9V296.5z"/>
		<path class="st5" d="M511,307.1h3.4v4.4c-0.4,0.2-0.9,0.3-1.4,0.4c-0.5,0.1-1,0.1-1.6,0.1c-0.9,0-1.6-0.2-2.2-0.5
			c-0.6-0.3-1-0.8-1.4-1.5c-0.3-0.7-0.5-1.5-0.5-2.4c0-0.9,0.2-1.7,0.5-2.3c0.3-0.7,0.8-1.2,1.5-1.5c0.7-0.4,1.5-0.5,2.4-0.5
			c0.5,0,0.9,0.1,1.3,0.2c0.4,0.1,0.8,0.2,1.2,0.4l-0.6,1.5c-0.3-0.1-0.6-0.2-0.9-0.3c-0.3-0.1-0.7-0.1-1.1-0.1
			c-0.5,0-1,0.1-1.4,0.4c-0.4,0.2-0.7,0.6-0.9,1c-0.2,0.4-0.3,0.9-0.3,1.5c0,0.6,0.1,1.1,0.2,1.5c0.2,0.4,0.4,0.8,0.7,1
			c0.3,0.2,0.8,0.4,1.3,0.4c0.3,0,0.5,0,0.7,0c0.2,0,0.3-0.1,0.5-0.1v-1.8H511V307.1z M522.2,308.6c0,0.5-0.1,1-0.2,1.5
			c-0.1,0.4-0.4,0.8-0.6,1.1c-0.3,0.3-0.6,0.5-1,0.7c-0.4,0.1-0.8,0.2-1.3,0.2c-0.5,0-0.9-0.1-1.3-0.2c-0.4-0.2-0.7-0.4-1-0.7
			c-0.3-0.3-0.5-0.6-0.7-1.1c-0.1-0.4-0.2-0.9-0.2-1.5c0-0.7,0.1-1.3,0.4-1.8c0.3-0.5,0.6-0.9,1.1-1.2c0.5-0.3,1-0.4,1.7-0.4
			c0.6,0,1.2,0.1,1.6,0.4c0.5,0.3,0.9,0.6,1.1,1.2C522.1,307.3,522.2,307.9,522.2,308.6z M517.7,308.6c0,0.4,0,0.8,0.1,1.1
			c0.1,0.3,0.2,0.5,0.4,0.7c0.2,0.1,0.5,0.2,0.8,0.2c0.3,0,0.6-0.1,0.8-0.2c0.2-0.2,0.3-0.4,0.4-0.7c0.1-0.3,0.1-0.7,0.1-1.1
			c0-0.4,0-0.8-0.1-1.1c-0.1-0.3-0.2-0.5-0.4-0.7c-0.2-0.1-0.5-0.2-0.8-0.2c-0.5,0-0.8,0.2-1,0.5C517.8,307.5,517.7,308,517.7,308.6
			z M525.2,311.9l-2.5-6.5h1.9l1.3,3.7c0.1,0.2,0.1,0.4,0.2,0.7c0,0.2,0.1,0.5,0.1,0.6h0c0-0.2,0-0.4,0.1-0.6
			c0.1-0.2,0.1-0.5,0.2-0.7l1.2-3.7h1.9l-2.5,6.5H525.2z M533.2,305.2c0.6,0,1.1,0.1,1.6,0.3c0.4,0.2,0.8,0.6,1,1
			c0.2,0.4,0.4,1,0.4,1.6v0.9h-4.2c0,0.5,0.2,0.9,0.5,1.2c0.3,0.3,0.7,0.4,1.2,0.4c0.4,0,0.8,0,1.1-0.1c0.4-0.1,0.7-0.2,1.1-0.4v1.4
			c-0.3,0.2-0.7,0.3-1,0.3c-0.4,0.1-0.8,0.1-1.3,0.1c-0.7,0-1.2-0.1-1.8-0.4c-0.5-0.2-0.9-0.6-1.2-1.1c-0.3-0.5-0.4-1.1-0.4-1.9
			c0-0.8,0.1-1.4,0.4-1.9c0.3-0.5,0.6-0.9,1.1-1.1C532.1,305.4,532.6,305.2,533.2,305.2z M533.2,306.5c-0.4,0-0.6,0.1-0.9,0.3
			c-0.2,0.2-0.4,0.6-0.4,1h2.5c0-0.3-0.1-0.5-0.2-0.7c-0.1-0.2-0.2-0.4-0.4-0.5C533.7,306.6,533.5,306.5,533.2,306.5z M541.3,305.2
			c0.1,0,0.2,0,0.3,0c0.1,0,0.2,0,0.3,0l-0.1,1.7c-0.1,0-0.1,0-0.2,0c-0.1,0-0.2,0-0.3,0c-0.2,0-0.5,0-0.7,0.1
			c-0.2,0.1-0.4,0.1-0.6,0.3c-0.2,0.1-0.3,0.3-0.4,0.5c-0.1,0.2-0.2,0.5-0.2,0.8v3.3h-1.8v-6.5h1.4l0.3,1.1h0.1
			c0.1-0.2,0.3-0.4,0.5-0.6c0.2-0.2,0.4-0.3,0.7-0.4C540.7,305.3,541,305.2,541.3,305.2z M546.8,305.2c0.7,0,1.3,0.2,1.7,0.6
			c0.4,0.4,0.6,1,0.6,1.8v4.3h-1.8v-3.8c0-0.5-0.1-0.8-0.3-1.1c-0.2-0.2-0.4-0.4-0.8-0.4c-0.5,0-0.9,0.2-1.1,0.6
			c-0.2,0.4-0.3,0.9-0.3,1.6v3.1h-1.8v-6.5h1.4l0.2,0.8h0.1c0.1-0.2,0.3-0.4,0.5-0.5c0.2-0.1,0.4-0.2,0.7-0.3
			C546.2,305.3,546.5,305.2,546.8,305.2z M553.6,305.2c0.9,0,1.5,0.2,2,0.6c0.5,0.4,0.7,1,0.7,1.8v4.4h-1.2l-0.3-0.9h0
			c-0.2,0.2-0.4,0.4-0.6,0.6c-0.2,0.1-0.4,0.3-0.7,0.3c-0.2,0.1-0.6,0.1-0.9,0.1c-0.4,0-0.7-0.1-1-0.2c-0.3-0.2-0.5-0.4-0.7-0.7
			c-0.2-0.3-0.3-0.7-0.3-1.2c0-0.7,0.2-1.2,0.7-1.5c0.5-0.3,1.2-0.5,2.2-0.6l1.1,0v-0.3c0-0.3-0.1-0.6-0.3-0.8
			c-0.2-0.2-0.4-0.2-0.8-0.2c-0.3,0-0.6,0-0.9,0.1c-0.3,0.1-0.6,0.2-0.9,0.3l-0.6-1.2c0.4-0.2,0.7-0.3,1.2-0.4
			C552.7,305.3,553.2,305.2,553.6,305.2z M554.6,308.9l-0.7,0c-0.6,0-1,0.1-1.2,0.3c-0.2,0.2-0.3,0.4-0.3,0.8c0,0.3,0.1,0.5,0.2,0.6
			c0.2,0.1,0.4,0.2,0.6,0.2c0.4,0,0.7-0.1,1-0.3c0.3-0.2,0.4-0.6,0.4-1V308.9z M561.9,305.2c0.7,0,1.3,0.2,1.7,0.6
			c0.4,0.4,0.6,1,0.6,1.8v4.3h-1.8v-3.8c0-0.5-0.1-0.8-0.3-1.1c-0.2-0.2-0.4-0.4-0.8-0.4c-0.5,0-0.9,0.2-1.1,0.6
			c-0.2,0.4-0.3,0.9-0.3,1.6v3.1h-1.8v-6.5h1.4l0.2,0.8h0.1c0.1-0.2,0.3-0.4,0.5-0.5c0.2-0.1,0.4-0.2,0.7-0.3
			C561.4,305.3,561.6,305.2,561.9,305.2z M568.7,312c-0.6,0-1.2-0.1-1.7-0.4c-0.5-0.2-0.8-0.6-1-1.1c-0.2-0.5-0.3-1.1-0.3-1.9
			c0-0.8,0.1-1.5,0.4-2c0.3-0.5,0.6-0.9,1.1-1.1c0.5-0.2,1-0.4,1.7-0.4c0.5,0,0.8,0,1.2,0.1c0.3,0.1,0.6,0.2,0.9,0.3l-0.5,1.4
			c-0.3-0.1-0.5-0.2-0.8-0.3c-0.2-0.1-0.5-0.1-0.7-0.1c-0.3,0-0.6,0.1-0.8,0.2c-0.2,0.1-0.3,0.4-0.5,0.7c-0.1,0.3-0.2,0.7-0.2,1.1
			c0,0.4,0.1,0.8,0.2,1.1c0.1,0.3,0.3,0.5,0.5,0.6c0.2,0.1,0.5,0.2,0.8,0.2c0.4,0,0.7,0,1-0.1c0.3-0.1,0.6-0.2,0.8-0.4v1.5
			c-0.3,0.2-0.6,0.3-0.9,0.4C569.6,312,569.2,312,568.7,312z M570,313.4c0,0.4-0.1,0.8-0.4,1c-0.3,0.2-0.7,0.4-1.4,0.4
			c-0.2,0-0.3,0-0.5,0c-0.1,0-0.3,0-0.4-0.1v-1c0.1,0,0.3,0,0.4,0.1c0.2,0,0.3,0,0.4,0c0.1,0,0.2,0,0.3-0.1c0.1-0.1,0.1-0.1,0.1-0.3
			c0-0.1-0.1-0.3-0.2-0.4c-0.1-0.1-0.4-0.2-0.8-0.2l0.5-0.9h1.1l-0.2,0.4c0.2,0.1,0.3,0.1,0.5,0.2c0.1,0.1,0.3,0.2,0.4,0.4
			C570,313,570,313.2,570,313.4z M574.9,305.2c0.9,0,1.5,0.2,2,0.6c0.5,0.4,0.7,1,0.7,1.8v4.4h-1.2l-0.3-0.9h0
			c-0.2,0.2-0.4,0.4-0.6,0.6c-0.2,0.1-0.4,0.3-0.7,0.3c-0.2,0.1-0.6,0.1-0.9,0.1c-0.4,0-0.7-0.1-1-0.2c-0.3-0.2-0.5-0.4-0.7-0.7
			c-0.2-0.3-0.3-0.7-0.3-1.2c0-0.7,0.2-1.2,0.7-1.5c0.5-0.3,1.2-0.5,2.2-0.6l1.1,0v-0.3c0-0.3-0.1-0.6-0.3-0.8
			c-0.2-0.2-0.4-0.2-0.8-0.2c-0.3,0-0.6,0-0.9,0.1c-0.3,0.1-0.6,0.2-0.9,0.3l-0.6-1.2c0.4-0.2,0.7-0.3,1.2-0.4
			C574,305.3,574.5,305.2,574.9,305.2z M575.9,308.9l-0.7,0c-0.6,0-1,0.1-1.2,0.3c-0.2,0.2-0.3,0.4-0.3,0.8c0,0.3,0.1,0.5,0.2,0.6
			c0.2,0.1,0.4,0.2,0.6,0.2c0.4,0,0.7-0.1,1-0.3c0.3-0.2,0.4-0.6,0.4-1V308.9z"/>
		<path class="st3" d="M630.8,296.5L630.8,296.5c0-3.8,3.1-6.9,6.9-6.9H760c1.8,0,3.6,0.7,4.9,2c1.3,1.3,2,3.1,2,4.9v27.7
			c0,3.8-3.1,6.9-6.9,6.9H637.8c-3.8,0-6.9-3.1-6.9-6.9V296.5z"/>
		<path class="st4" d="M630.8,296.5L630.8,296.5c0-3.8,3.1-6.9,6.9-6.9H760c1.8,0,3.6,0.7,4.9,2c1.3,1.3,2,3.1,2,4.9v27.7
			c0,3.8-3.1,6.9-6.9,6.9H637.8c-3.8,0-6.9-3.1-6.9-6.9V296.5z"/>
		<path class="st5" d="M643.4,306.3c1.1,0,1.9,0.2,2.4,0.7c0.5,0.5,0.8,1.1,0.8,2c0,0.4-0.1,0.7-0.2,1.1c-0.1,0.3-0.3,0.6-0.6,0.9
			c-0.2,0.3-0.6,0.5-1,0.6c-0.4,0.2-1,0.2-1.6,0.2h-0.8v3h-1.8v-8.6H643.4z M643.3,307.8h-0.8v2.5h0.6c0.3,0,0.6,0,0.9-0.1
			s0.4-0.2,0.6-0.4c0.1-0.2,0.2-0.4,0.2-0.7c0-0.4-0.1-0.7-0.4-0.9C644.1,307.9,643.8,307.8,643.3,307.8z M650.7,308.2
			c0.6,0,1.1,0.1,1.6,0.3c0.4,0.2,0.8,0.6,1,1c0.2,0.4,0.4,1,0.4,1.6v0.9h-4.2c0,0.5,0.2,0.9,0.5,1.2c0.3,0.3,0.7,0.4,1.2,0.4
			c0.4,0,0.8,0,1.1-0.1c0.4-0.1,0.7-0.2,1.1-0.4v1.4c-0.3,0.2-0.7,0.3-1,0.3c-0.4,0.1-0.8,0.1-1.3,0.1c-0.7,0-1.2-0.1-1.8-0.4
			c-0.5-0.2-0.9-0.6-1.2-1.1c-0.3-0.5-0.4-1.1-0.4-1.9c0-0.8,0.1-1.4,0.4-1.9c0.3-0.5,0.6-0.9,1.1-1.1
			C649.6,308.4,650.1,308.2,650.7,308.2z M650.7,309.5c-0.4,0-0.6,0.1-0.9,0.3c-0.2,0.2-0.4,0.6-0.4,1h2.5c0-0.3-0.1-0.5-0.2-0.7
			c-0.1-0.2-0.2-0.4-0.4-0.5C651.2,309.6,651,309.5,650.7,309.5z M657.2,315c-0.7,0-1.3-0.3-1.8-0.9c-0.5-0.6-0.7-1.4-0.7-2.5
			c0-1.1,0.2-2,0.7-2.5c0.5-0.6,1.1-0.9,1.8-0.9c0.3,0,0.6,0,0.8,0.1c0.2,0.1,0.4,0.2,0.6,0.3c0.2,0.1,0.3,0.3,0.5,0.5h0
			c0-0.1,0-0.3-0.1-0.5c0-0.2,0-0.5,0-0.8v-2.1h1.8v9.1h-1.4l-0.3-0.8H659c-0.1,0.2-0.3,0.3-0.4,0.5c-0.2,0.1-0.4,0.3-0.6,0.4
			C657.8,315,657.5,315,657.2,315z M657.8,313.6c0.5,0,0.8-0.1,1-0.4c0.2-0.3,0.3-0.7,0.3-1.3v-0.2c0-0.6-0.1-1.1-0.3-1.5
			c-0.2-0.3-0.6-0.5-1.1-0.5c-0.4,0-0.7,0.2-0.9,0.5c-0.2,0.3-0.3,0.8-0.3,1.5c0,0.6,0.1,1.1,0.3,1.4
			C657.1,313.4,657.4,313.6,657.8,313.6z M664.5,308.4v6.5h-1.8v-6.5H664.5z M663.6,305.8c0.3,0,0.5,0.1,0.7,0.2
			c0.2,0.1,0.3,0.4,0.3,0.7c0,0.3-0.1,0.6-0.3,0.7c-0.2,0.1-0.4,0.2-0.7,0.2c-0.3,0-0.5-0.1-0.7-0.2c-0.2-0.1-0.3-0.4-0.3-0.7
			c0-0.3,0.1-0.6,0.3-0.7C663.1,305.8,663.3,305.8,663.6,305.8z M668.4,315c-0.7,0-1.3-0.3-1.8-0.9c-0.5-0.6-0.7-1.4-0.7-2.5
			c0-1.1,0.2-2,0.7-2.5c0.5-0.6,1.1-0.9,1.8-0.9c0.3,0,0.6,0,0.8,0.1c0.2,0.1,0.4,0.2,0.6,0.3c0.2,0.1,0.3,0.3,0.5,0.5h0
			c0-0.1,0-0.3-0.1-0.5c0-0.2,0-0.5,0-0.8v-2.1h1.8v9.1h-1.4l-0.3-0.8h-0.1c-0.1,0.2-0.3,0.3-0.4,0.5c-0.2,0.1-0.4,0.3-0.6,0.4
			C669,315,668.8,315,668.4,315z M669.1,313.6c0.5,0,0.8-0.1,1-0.4c0.2-0.3,0.3-0.7,0.3-1.3v-0.2c0-0.6-0.1-1.1-0.3-1.5
			c-0.2-0.3-0.6-0.5-1.1-0.5c-0.4,0-0.7,0.2-0.9,0.5c-0.2,0.3-0.3,0.8-0.3,1.5c0,0.6,0.1,1.1,0.3,1.4
			C668.3,313.4,668.7,313.6,669.1,313.6z M679.9,311.6c0,0.5-0.1,1-0.2,1.5c-0.1,0.4-0.4,0.8-0.6,1.1c-0.3,0.3-0.6,0.5-1,0.7
			c-0.4,0.1-0.8,0.2-1.3,0.2c-0.5,0-0.9-0.1-1.3-0.2c-0.4-0.2-0.7-0.4-1-0.7c-0.3-0.3-0.5-0.6-0.7-1.1c-0.1-0.4-0.2-0.9-0.2-1.5
			c0-0.7,0.1-1.3,0.4-1.8c0.3-0.5,0.6-0.9,1.1-1.2c0.5-0.3,1-0.4,1.7-0.4c0.6,0,1.2,0.1,1.6,0.4c0.5,0.3,0.9,0.6,1.1,1.2
			C679.8,310.3,679.9,310.9,679.9,311.6z M675.4,311.6c0,0.4,0,0.8,0.1,1.1c0.1,0.3,0.2,0.5,0.4,0.7c0.2,0.1,0.5,0.2,0.8,0.2
			c0.3,0,0.6-0.1,0.8-0.2c0.2-0.2,0.3-0.4,0.4-0.7c0.1-0.3,0.1-0.7,0.1-1.1c0-0.4,0-0.8-0.1-1.1c-0.1-0.3-0.2-0.5-0.4-0.7
			c-0.2-0.1-0.5-0.2-0.8-0.2c-0.5,0-0.8,0.2-1,0.5C675.5,310.5,675.4,311,675.4,311.6z M686.6,315c-0.7,0-1.3-0.3-1.8-0.9
			c-0.5-0.6-0.7-1.4-0.7-2.5c0-1.1,0.2-2,0.7-2.5c0.5-0.6,1.1-0.9,1.8-0.9c0.3,0,0.6,0,0.8,0.1c0.2,0.1,0.4,0.2,0.6,0.3
			c0.2,0.1,0.3,0.3,0.5,0.5h0c0-0.1,0-0.3-0.1-0.5c0-0.2,0-0.5,0-0.8v-2.1h1.8v9.1h-1.4l-0.3-0.8h-0.1c-0.1,0.2-0.3,0.3-0.4,0.5
			c-0.2,0.1-0.4,0.3-0.6,0.4C687.2,315,686.9,315,686.6,315z M687.2,313.6c0.5,0,0.8-0.1,1-0.4c0.2-0.3,0.3-0.7,0.3-1.3v-0.2
			c0-0.6-0.1-1.1-0.3-1.5c-0.2-0.3-0.6-0.5-1.1-0.5c-0.4,0-0.7,0.2-0.9,0.5c-0.2,0.3-0.3,0.8-0.3,1.5c0,0.6,0.1,1.1,0.3,1.4
			C686.5,313.4,686.8,313.6,687.2,313.6z M694.8,308.2c0.6,0,1.1,0.1,1.6,0.3c0.4,0.2,0.8,0.6,1,1c0.2,0.4,0.4,1,0.4,1.6v0.9h-4.2
			c0,0.5,0.2,0.9,0.5,1.2c0.3,0.3,0.7,0.4,1.2,0.4c0.4,0,0.8,0,1.1-0.1c0.4-0.1,0.7-0.2,1.1-0.4v1.4c-0.3,0.2-0.7,0.3-1,0.3
			c-0.4,0.1-0.8,0.1-1.3,0.1c-0.7,0-1.2-0.1-1.8-0.4c-0.5-0.2-0.9-0.6-1.2-1.1c-0.3-0.5-0.4-1.1-0.4-1.9c0-0.8,0.1-1.4,0.4-1.9
			c0.3-0.5,0.6-0.9,1.1-1.1C693.6,308.4,694.2,308.2,694.8,308.2z M694.8,309.5c-0.4,0-0.6,0.1-0.9,0.3c-0.2,0.2-0.4,0.6-0.4,1h2.5
			c0-0.3-0.1-0.5-0.2-0.7c-0.1-0.2-0.2-0.4-0.4-0.5C695.3,309.6,695.1,309.5,694.8,309.5z M706.1,314.9l-2.1-6.7h0
			c0,0.2,0,0.4,0,0.7c0,0.3,0,0.7,0,1c0,0.4,0,0.7,0,1v4h-1.6v-8.6h2.5l2,6.5h0l2.2-6.5h2.5v8.6h-1.7v-4.1c0-0.3,0-0.6,0-0.9
			c0-0.4,0-0.7,0-1c0-0.3,0-0.6,0-0.7h0l-2.2,6.7H706.1z M716.3,308.2c0.9,0,1.5,0.2,2,0.6c0.5,0.4,0.7,1,0.7,1.8v4.4h-1.2l-0.3-0.9
			h0c-0.2,0.2-0.4,0.4-0.6,0.6c-0.2,0.1-0.4,0.3-0.7,0.3c-0.2,0.1-0.6,0.1-0.9,0.1c-0.4,0-0.7-0.1-1-0.2c-0.3-0.2-0.5-0.4-0.7-0.7
			c-0.2-0.3-0.3-0.7-0.3-1.2c0-0.7,0.2-1.2,0.7-1.5c0.5-0.3,1.2-0.5,2.2-0.6l1.1,0v-0.3c0-0.3-0.1-0.6-0.3-0.8
			c-0.2-0.2-0.4-0.2-0.8-0.2c-0.3,0-0.6,0-0.9,0.1c-0.3,0.1-0.6,0.2-0.9,0.3l-0.6-1.2c0.4-0.2,0.7-0.3,1.2-0.4
			C715.4,308.3,715.8,308.2,716.3,308.2z M717.3,311.9l-0.7,0c-0.6,0-1,0.1-1.2,0.3c-0.2,0.2-0.3,0.4-0.3,0.8c0,0.3,0.1,0.5,0.2,0.6
			c0.2,0.1,0.4,0.2,0.6,0.2c0.4,0,0.7-0.1,1-0.3c0.3-0.2,0.4-0.6,0.4-1V311.9z M723.6,313.6c0.2,0,0.4,0,0.6,0
			c0.2,0,0.4-0.1,0.6-0.2v1.3c-0.2,0.1-0.4,0.2-0.7,0.2c-0.3,0.1-0.6,0.1-0.9,0.1c-0.4,0-0.8-0.1-1.1-0.2c-0.3-0.1-0.5-0.4-0.7-0.7
			c-0.2-0.3-0.3-0.8-0.3-1.3v-3.2h-0.8v-0.8l1-0.6l0.5-1.4h1.1v1.4h1.8v1.3h-1.8v3.2c0,0.2,0.1,0.4,0.2,0.6
			C723.2,313.5,723.4,313.6,723.6,313.6z M728.8,308.2c0.6,0,1.1,0.1,1.6,0.3c0.4,0.2,0.8,0.6,1,1c0.2,0.4,0.4,1,0.4,1.6v0.9h-4.2
			c0,0.5,0.2,0.9,0.5,1.2c0.3,0.3,0.7,0.4,1.2,0.4c0.4,0,0.8,0,1.1-0.1c0.4-0.1,0.7-0.2,1.1-0.4v1.4c-0.3,0.2-0.7,0.3-1,0.3
			c-0.4,0.1-0.8,0.1-1.3,0.1c-0.7,0-1.2-0.1-1.8-0.4c-0.5-0.2-0.9-0.6-1.2-1.1c-0.3-0.5-0.4-1.1-0.4-1.9c0-0.8,0.1-1.4,0.4-1.9
			c0.3-0.5,0.6-0.9,1.1-1.1C727.6,308.4,728.2,308.2,728.8,308.2z M728.8,309.5c-0.4,0-0.6,0.1-0.9,0.3c-0.2,0.2-0.4,0.6-0.4,1h2.5
			c0-0.3-0.1-0.5-0.2-0.7c-0.1-0.2-0.2-0.4-0.4-0.5C729.3,309.6,729.1,309.5,728.8,309.5z M736.8,308.2c0.1,0,0.2,0,0.3,0
			c0.1,0,0.2,0,0.3,0l-0.1,1.7c-0.1,0-0.1,0-0.2,0c-0.1,0-0.2,0-0.3,0c-0.2,0-0.5,0-0.7,0.1c-0.2,0.1-0.4,0.1-0.6,0.3
			c-0.2,0.1-0.3,0.3-0.4,0.5c-0.1,0.2-0.2,0.5-0.2,0.8v3.3h-1.8v-6.5h1.4l0.3,1.1h0.1c0.1-0.2,0.3-0.4,0.5-0.6
			c0.2-0.2,0.4-0.3,0.7-0.4C736.3,308.3,736.5,308.2,736.8,308.2z M740.4,308.4v6.5h-1.8v-6.5H740.4z M739.5,305.8
			c0.3,0,0.5,0.1,0.7,0.2c0.2,0.1,0.3,0.4,0.3,0.7c0,0.3-0.1,0.6-0.3,0.7c-0.2,0.1-0.4,0.2-0.7,0.2c-0.3,0-0.5-0.1-0.7-0.2
			c-0.2-0.1-0.3-0.4-0.3-0.7c0-0.3,0.1-0.6,0.3-0.7C739,305.8,739.2,305.8,739.5,305.8z M745,308.2c0.9,0,1.5,0.2,2,0.6
			c0.5,0.4,0.7,1,0.7,1.8v4.4h-1.2l-0.3-0.9h0c-0.2,0.2-0.4,0.4-0.6,0.6c-0.2,0.1-0.4,0.3-0.7,0.3c-0.2,0.1-0.6,0.1-0.9,0.1
			c-0.4,0-0.7-0.1-1-0.2c-0.3-0.2-0.5-0.4-0.7-0.7c-0.2-0.3-0.3-0.7-0.3-1.2c0-0.7,0.2-1.2,0.7-1.5c0.5-0.3,1.2-0.5,2.2-0.6l1.1,0
			v-0.3c0-0.3-0.1-0.6-0.3-0.8c-0.2-0.2-0.4-0.2-0.8-0.2c-0.3,0-0.6,0-0.9,0.1c-0.3,0.1-0.6,0.2-0.9,0.3l-0.6-1.2
			c0.4-0.2,0.7-0.3,1.2-0.4C744.1,308.3,744.5,308.2,745,308.2z M745.9,311.9l-0.7,0c-0.6,0-1,0.1-1.2,0.3c-0.2,0.2-0.3,0.4-0.3,0.8
			c0,0.3,0.1,0.5,0.2,0.6c0.2,0.1,0.4,0.2,0.6,0.2c0.4,0,0.7-0.1,1-0.3c0.3-0.2,0.4-0.6,0.4-1V311.9z M751.3,308.4v6.5h-1.8v-6.5
			H751.3z M750.4,305.8c0.3,0,0.5,0.1,0.7,0.2c0.2,0.1,0.3,0.4,0.3,0.7c0,0.3-0.1,0.6-0.3,0.7c-0.2,0.1-0.4,0.2-0.7,0.2
			c-0.3,0-0.5-0.1-0.7-0.2c-0.2-0.1-0.3-0.4-0.3-0.7c0-0.3,0.1-0.6,0.3-0.7C749.9,305.8,750.2,305.8,750.4,305.8z M757.8,312.9
			c0,0.4-0.1,0.8-0.3,1.1c-0.2,0.3-0.5,0.5-0.9,0.7c-0.4,0.2-0.9,0.2-1.5,0.2c-0.5,0-0.9,0-1.2-0.1c-0.3-0.1-0.7-0.2-1-0.3v-1.5
			c0.4,0.2,0.7,0.3,1.1,0.4c0.4,0.1,0.8,0.2,1.1,0.2c0.4,0,0.6-0.1,0.8-0.2c0.2-0.1,0.2-0.2,0.2-0.4c0-0.1,0-0.2-0.1-0.3
			c-0.1-0.1-0.2-0.2-0.4-0.3c-0.2-0.1-0.5-0.3-0.9-0.4c-0.4-0.2-0.7-0.3-1-0.5c-0.3-0.2-0.5-0.4-0.6-0.6c-0.1-0.2-0.2-0.6-0.2-0.9
			c0-0.6,0.2-1.1,0.7-1.4c0.5-0.3,1.1-0.5,1.9-0.5c0.4,0,0.8,0,1.2,0.1c0.4,0.1,0.8,0.2,1.1,0.4l-0.5,1.3c-0.3-0.1-0.6-0.2-0.9-0.3
			c-0.3-0.1-0.6-0.1-0.9-0.1c-0.3,0-0.5,0-0.6,0.1c-0.1,0.1-0.2,0.2-0.2,0.3c0,0.1,0,0.2,0.1,0.3c0.1,0.1,0.2,0.2,0.4,0.3
			c0.2,0.1,0.5,0.2,0.9,0.4c0.4,0.2,0.7,0.3,1,0.5c0.3,0.2,0.5,0.4,0.6,0.6C757.7,312.2,757.8,312.6,757.8,312.9z"/>
		<path class="st3" d="M155.6,352.4L155.6,352.4c0-3.8,3.1-6.9,6.9-6.9h122.3c1.8,0,3.6,0.7,4.9,2c1.3,1.3,2,3.1,2,4.9v27.7
			c0,3.8-3.1,6.9-6.9,6.9H162.5c-3.8,0-6.9-3.1-6.9-6.9V352.4z"/>
		<path class="st4" d="M155.6,352.4L155.6,352.4c0-3.8,3.1-6.9,6.9-6.9h122.3c1.8,0,3.6,0.7,4.9,2c1.3,1.3,2,3.1,2,4.9v27.7
			c0,3.8-3.1,6.9-6.9,6.9H162.5c-3.8,0-6.9-3.1-6.9-6.9V352.4z"/>
		<path class="st5" d="M192.4,370.8v-8.6h1.8v7.1h3.5v1.5H192.4z M200.8,364.3v6.5H199v-6.5H200.8z M199.9,361.7
			c0.3,0,0.5,0.1,0.7,0.2c0.2,0.1,0.3,0.4,0.3,0.7c0,0.3-0.1,0.6-0.3,0.7c-0.2,0.1-0.4,0.2-0.7,0.2c-0.3,0-0.5-0.1-0.7-0.2
			c-0.2-0.1-0.3-0.4-0.3-0.7c0-0.3,0.1-0.6,0.3-0.7C199.4,361.7,199.7,361.7,199.9,361.7z M206.4,364.1c0.7,0,1.3,0.2,1.7,0.6
			c0.4,0.4,0.6,1,0.6,1.8v4.3H207V367c0-0.5-0.1-0.8-0.3-1.1c-0.2-0.2-0.4-0.4-0.8-0.4c-0.5,0-0.9,0.2-1.1,0.6
			c-0.2,0.4-0.3,0.9-0.3,1.6v3.1h-1.8v-6.5h1.4l0.2,0.8h0.1c0.1-0.2,0.3-0.4,0.5-0.5c0.2-0.1,0.4-0.2,0.7-0.3
			C205.9,364.2,206.1,364.1,206.4,364.1z M212.4,361.7v4.1c0,0.2,0,0.5,0,0.8c0,0.2,0,0.5-0.1,0.7h0c0.1-0.2,0.2-0.3,0.4-0.5
			c0.1-0.2,0.3-0.3,0.4-0.5l1.8-2h2l-2.6,2.8l2.8,3.7H215l-1.9-2.7l-0.8,0.6v2h-1.8v-9.1H212.4z M222.6,368.9c0,0.4-0.1,0.8-0.3,1.1
			c-0.2,0.3-0.5,0.5-0.9,0.7c-0.4,0.2-0.9,0.2-1.5,0.2c-0.5,0-0.9,0-1.2-0.1c-0.3-0.1-0.7-0.2-1-0.3v-1.5c0.4,0.2,0.7,0.3,1.1,0.4
			c0.4,0.1,0.8,0.2,1.1,0.2c0.4,0,0.6-0.1,0.8-0.2c0.2-0.1,0.2-0.2,0.2-0.4c0-0.1,0-0.2-0.1-0.3c-0.1-0.1-0.2-0.2-0.4-0.3
			c-0.2-0.1-0.5-0.3-0.9-0.4c-0.4-0.2-0.7-0.3-1-0.5c-0.3-0.2-0.5-0.4-0.6-0.6c-0.1-0.2-0.2-0.6-0.2-0.9c0-0.6,0.2-1.1,0.7-1.4
			c0.5-0.3,1.1-0.5,1.9-0.5c0.4,0,0.8,0,1.2,0.1c0.4,0.1,0.8,0.2,1.1,0.4l-0.5,1.3c-0.3-0.1-0.6-0.2-0.9-0.3
			c-0.3-0.1-0.6-0.1-0.9-0.1c-0.3,0-0.5,0-0.6,0.1c-0.1,0.1-0.2,0.2-0.2,0.3c0,0.1,0,0.2,0.1,0.3c0.1,0.1,0.2,0.2,0.4,0.3
			c0.2,0.1,0.5,0.2,0.9,0.4c0.4,0.2,0.7,0.3,1,0.5c0.3,0.2,0.5,0.4,0.6,0.6C222.5,368.2,222.6,368.5,222.6,368.9z M233.1,364.3v6.5
			h-1.4l-0.2-0.8h-0.1c-0.1,0.2-0.3,0.4-0.5,0.6c-0.2,0.1-0.4,0.2-0.7,0.3c-0.2,0.1-0.5,0.1-0.8,0.1c-0.5,0-0.9-0.1-1.2-0.2
			c-0.3-0.2-0.6-0.4-0.8-0.8c-0.2-0.4-0.3-0.8-0.3-1.4v-4.3h1.8v3.8c0,0.5,0.1,0.8,0.2,1.1c0.2,0.2,0.4,0.3,0.8,0.3
			c0.4,0,0.6-0.1,0.8-0.2c0.2-0.2,0.4-0.4,0.4-0.7c0.1-0.3,0.1-0.7,0.1-1.2v-3.1H233.1z M232.4,361.6v0.1c-0.1,0.1-0.3,0.3-0.5,0.4
			c-0.2,0.2-0.4,0.3-0.6,0.5c-0.2,0.2-0.4,0.3-0.6,0.5c-0.2,0.2-0.4,0.3-0.5,0.4H229v-0.2c0.1-0.1,0.3-0.3,0.4-0.5
			c0.2-0.2,0.3-0.4,0.5-0.6c0.2-0.2,0.3-0.4,0.4-0.6H232.4z M237.8,369.5c0.2,0,0.4,0,0.6,0c0.2,0,0.4-0.1,0.6-0.2v1.3
			c-0.2,0.1-0.4,0.2-0.7,0.2c-0.3,0.1-0.6,0.1-0.9,0.1c-0.4,0-0.8-0.1-1.1-0.2c-0.3-0.1-0.5-0.4-0.7-0.7c-0.2-0.3-0.3-0.8-0.3-1.3
			v-3.2h-0.8v-0.8l1-0.6l0.5-1.4h1.1v1.4h1.8v1.3H237v3.2c0,0.2,0.1,0.4,0.2,0.6C237.3,369.4,237.5,369.5,237.8,369.5z M242.9,364.1
			c0.6,0,1.1,0.1,1.6,0.3c0.4,0.2,0.8,0.6,1,1c0.2,0.4,0.4,1,0.4,1.6v0.9h-4.2c0,0.5,0.2,0.9,0.5,1.2c0.3,0.3,0.7,0.4,1.2,0.4
			c0.4,0,0.8,0,1.1-0.1c0.4-0.1,0.7-0.2,1.1-0.4v1.4c-0.3,0.2-0.7,0.3-1,0.3c-0.4,0.1-0.8,0.1-1.3,0.1c-0.7,0-1.2-0.1-1.8-0.4
			c-0.5-0.2-0.9-0.6-1.2-1.1c-0.3-0.5-0.4-1.1-0.4-1.9c0-0.8,0.1-1.4,0.4-1.9c0.3-0.5,0.6-0.9,1.1-1.1
			C241.8,364.3,242.3,364.1,242.9,364.1z M242.9,365.4c-0.4,0-0.6,0.1-0.9,0.3c-0.2,0.2-0.4,0.6-0.4,1h2.5c0-0.3-0.1-0.5-0.2-0.7
			c-0.1-0.2-0.2-0.4-0.4-0.5C243.4,365.5,243.2,365.4,242.9,365.4z M249.1,364.3v6.5h-1.8v-6.5H249.1z M248.2,361.7
			c0.3,0,0.5,0.1,0.7,0.2c0.2,0.1,0.3,0.4,0.3,0.7c0,0.3-0.1,0.6-0.3,0.7c-0.2,0.1-0.4,0.2-0.7,0.2c-0.3,0-0.5-0.1-0.7-0.2
			c-0.2-0.1-0.3-0.4-0.3-0.7c0-0.3,0.1-0.6,0.3-0.7C247.7,361.7,247.9,361.7,248.2,361.7z M255.5,368.9c0,0.4-0.1,0.8-0.3,1.1
			c-0.2,0.3-0.5,0.5-0.9,0.7c-0.4,0.2-0.9,0.2-1.5,0.2c-0.5,0-0.9,0-1.2-0.1c-0.3-0.1-0.7-0.2-1-0.3v-1.5c0.4,0.2,0.7,0.3,1.1,0.4
			c0.4,0.1,0.8,0.2,1.1,0.2c0.4,0,0.6-0.1,0.8-0.2c0.2-0.1,0.2-0.2,0.2-0.4c0-0.1,0-0.2-0.1-0.3c-0.1-0.1-0.2-0.2-0.4-0.3
			c-0.2-0.1-0.5-0.3-0.9-0.4c-0.4-0.2-0.7-0.3-1-0.5c-0.3-0.2-0.5-0.4-0.6-0.6c-0.1-0.2-0.2-0.6-0.2-0.9c0-0.6,0.2-1.1,0.7-1.4
			c0.5-0.3,1.1-0.5,1.9-0.5c0.4,0,0.8,0,1.2,0.1c0.4,0.1,0.8,0.2,1.1,0.4l-0.5,1.3c-0.3-0.1-0.6-0.2-0.9-0.3
			c-0.3-0.1-0.6-0.1-0.9-0.1c-0.3,0-0.5,0-0.6,0.1c-0.1,0.1-0.2,0.2-0.2,0.3c0,0.1,0,0.2,0.1,0.3c0.1,0.1,0.2,0.2,0.4,0.3
			c0.2,0.1,0.5,0.2,0.9,0.4c0.4,0.2,0.7,0.3,1,0.5c0.3,0.2,0.5,0.4,0.6,0.6C255.5,368.2,255.5,368.5,255.5,368.9z"/>
	</g>
</g>
</svg>
